<svg width="21" height="21" viewBox="0 0 21 21" fill="none" xmlns="http://www.w3.org/2000/svg">
<path d="M4.41667 15.9579V19.0963L5.67917 18.3388L9.6475 15.9579H13.5833C14.5025 15.9579 15.25 15.2104 15.25 14.2913V7.62461C15.25 6.70545 14.5025 5.95795 13.5833 5.95795H3.58333C2.66417 5.95795 1.91667 6.70545 1.91667 7.62461V14.2913C1.91667 15.2104 2.66417 15.9579 3.58333 15.9579H4.41667ZM3.58333 7.62461H13.5833V14.2913H9.18583L6.08333 16.1529V14.2913H3.58333V7.62461Z" fill="#7E7E7E"/>
<path d="M16.9167 2.6246H6.91667C5.9975 2.6246 5.25 3.3721 5.25 4.29127H15.25C16.1692 4.29127 16.9167 5.03877 16.9167 5.95794V12.6246C17.8358 12.6246 18.5833 11.8771 18.5833 10.9579V4.29127C18.5833 3.3721 17.8358 2.6246 16.9167 2.6246Z" fill="#7E7E7E"/>
</svg>
