<svg width="66" height="66" viewBox="0 0 66 66" fill="none" xmlns="http://www.w3.org/2000/svg">
<circle cx="33" cy="33" r="33" fill="#FFF0F6"/>
<circle cx="33" cy="33" r="28" fill="#FFE3EF"/>
<path d="M34.605 30.615C35.5162 29.3419 36.0061 27.8156 36.0061 26.25C36.0061 24.6844 35.5162 23.1581 34.605 21.885C35.4578 21.3029 36.4675 20.9942 37.5 21C38.8924 21 40.2277 21.5531 41.2123 22.5377C42.1969 23.5222 42.75 24.8576 42.75 26.25C42.75 27.6424 42.1969 28.9777 41.2123 29.9623C40.2277 30.9469 38.8924 31.5 37.5 31.5C36.4675 31.5057 35.4578 31.1971 34.605 30.615ZM23.25 26.25C23.25 25.2116 23.5579 24.1966 24.1348 23.3332C24.7117 22.4699 25.5316 21.797 26.4909 21.3996C27.4502 21.0023 28.5058 20.8983 29.5242 21.1009C30.5426 21.3034 31.4781 21.8035 32.2123 22.5377C32.9465 23.2719 33.4466 24.2074 33.6491 25.2258C33.8517 26.2442 33.7477 27.2998 33.3504 28.2591C32.953 29.2184 32.2801 30.0383 31.4167 30.6152C30.5534 31.1921 29.5384 31.5 28.5 31.5C27.1076 31.5 25.7723 30.9469 24.7877 29.9623C23.8031 28.9777 23.25 27.6424 23.25 26.25ZM26.25 26.25C26.25 26.695 26.382 27.13 26.6292 27.5C26.8764 27.87 27.2278 28.1584 27.639 28.3287C28.0501 28.499 28.5025 28.5436 28.939 28.4568C29.3754 28.3699 29.7763 28.1556 30.091 27.841C30.4057 27.5263 30.62 27.1254 30.7068 26.6889C30.7936 26.2525 30.749 25.8001 30.5787 25.3889C30.4084 24.9778 30.12 24.6264 29.75 24.3792C29.38 24.1319 28.945 24 28.5 24C27.9033 24 27.331 24.237 26.909 24.659C26.4871 25.081 26.25 25.6533 26.25 26.25ZM39 40.5V43.5H18V40.5C18 40.5 18 34.5 28.5 34.5C39 34.5 39 40.5 39 40.5ZM36 40.5C35.79 39.33 34.005 37.5 28.5 37.5C22.995 37.5 21.105 39.465 21 40.5M38.925 34.5C39.8444 35.2151 40.596 36.1228 41.1273 37.1593C41.6585 38.1958 41.9564 39.3361 42 40.5V43.5H48V40.5C48 40.5 48 35.055 38.91 34.5H38.925Z" fill="#EE78AB"/>
</svg>
