<svg width="111" height="74" viewBox="0 0 111 74" fill="none" xmlns="http://www.w3.org/2000/svg">
<g clip-path="url(#clip0_1_576)">
<path d="M41.9204 9.104H31.7112V19.7375H41.9204V9.104Z" fill="#E0E0E0"/>
<path d="M41.2291 9.10431H31.0199V19.7378H41.2291V9.10431Z" fill="#FAFAFA"/>
<path d="M41.232 19.7406H31.0164V9.10083H41.232V19.7406ZM31.0227 19.7343H41.2256V9.10717H31.0227V19.7343Z" fill="#E0E0E0"/>
<path d="M39.8583 10.5336H32.3933V18.3078H39.8583V10.5336Z" fill="white"/>
<path d="M32.3933 18.3601C32.3933 18.3601 32.3282 18.4489 32.2093 18.5741C32.0903 18.6993 31.9222 18.8705 31.735 19.0544C31.5478 19.2398 31.3749 19.4046 31.248 19.5203C31.1211 19.6376 31.0386 19.7058 31.0323 19.6994C31.0259 19.6931 31.0957 19.6123 31.2147 19.487C31.3336 19.3618 31.5018 19.1907 31.6906 19.0052C31.8793 18.8198 32.0522 18.6549 32.1791 18.5377C32.306 18.4204 32.3885 18.3522 32.3933 18.3586V18.3601Z" fill="#E0E0E0"/>
<path d="M39.8567 18.3411C39.8567 18.3411 39.9455 18.4061 40.0708 18.525C40.1962 18.6439 40.3675 18.8119 40.5515 18.9989C40.7371 19.1859 40.9021 19.3587 41.0178 19.4855C41.1352 19.6123 41.2034 19.6947 41.1971 19.701C41.1908 19.7074 41.1099 19.6376 40.9845 19.5187C40.8592 19.3999 40.6879 19.2319 40.5023 19.0433C40.3167 18.8547 40.1517 18.6819 40.0344 18.5551C39.917 18.4283 39.8488 18.3459 39.8551 18.3411H39.8567Z" fill="#E0E0E0"/>
<path d="M39.8361 10.5542C39.8361 10.5542 39.9011 10.4655 40.0201 10.3403C40.139 10.2151 40.3072 10.0439 40.4944 9.86002C40.6815 9.67458 40.8544 9.50975 40.9813 9.39405C41.1083 9.27676 41.1907 9.20861 41.1971 9.21495C41.2034 9.22129 41.1336 9.30212 41.0147 9.42733C40.8957 9.55254 40.7275 9.72372 40.5388 9.90916C40.35 10.0946 40.1771 10.2594 40.0502 10.3767C39.9233 10.494 39.8408 10.5622 39.8361 10.5558V10.5542Z" fill="#E0E0E0"/>
<path d="M32.3727 10.5732C32.3727 10.5732 32.2838 10.5083 32.1585 10.3894C32.0332 10.2705 31.8619 10.1025 31.6779 9.91549C31.4923 9.72846 31.3273 9.5557 31.2115 9.4289C31.0941 9.30211 31.0259 9.21969 31.0323 9.21335C31.0386 9.20701 31.1195 9.27675 31.2448 9.39562C31.3701 9.51449 31.5415 9.6825 31.7271 9.87111C31.9126 10.0597 32.0776 10.2325 32.195 10.3593C32.3124 10.4861 32.3806 10.5685 32.3743 10.5732H32.3727Z" fill="#E0E0E0"/>
<path d="M39.8361 18.3079C39.8361 18.3079 39.8361 18.2952 39.8345 18.2698C39.8345 18.2429 39.8345 18.208 39.8329 18.162C39.8329 18.0654 39.8313 17.9243 39.8297 17.742C39.8281 17.3743 39.825 16.8386 39.8218 16.1571C39.8186 14.7956 39.8139 12.8556 39.8075 10.5336L39.8361 10.5622C37.6629 10.5622 35.1106 10.5653 32.3933 10.5669L32.4266 10.5336C32.425 13.3866 32.4234 16.0572 32.4218 18.3079L32.3933 18.2793C34.6236 18.2857 36.4811 18.2904 37.7834 18.2936C38.4338 18.2968 38.9462 18.2999 39.2967 18.3015C39.4696 18.3015 39.6045 18.3047 39.6981 18.3047C39.7425 18.3047 39.7758 18.3047 39.8012 18.3063C39.825 18.3063 39.8361 18.3063 39.8376 18.3063C39.8376 18.3063 39.8265 18.3063 39.8043 18.3079C39.779 18.3079 39.7472 18.3079 39.7044 18.3094C39.6124 18.3094 39.4807 18.311 39.3094 18.3126C38.9588 18.3142 38.4497 18.3174 37.8025 18.3205C36.4954 18.3237 34.6331 18.3285 32.3949 18.3348H32.3663V18.3063C32.3663 16.0556 32.3631 13.385 32.3615 10.5321V10.4988H32.3949C35.1137 10.4988 37.6645 10.5019 39.8376 10.5035H39.8662V10.5321C39.8599 12.8619 39.8551 14.8083 39.8519 16.1745C39.8487 16.8529 39.8456 17.3854 39.844 17.7531C39.844 17.9322 39.8408 18.0717 39.8408 18.1668C39.8408 18.2112 39.8408 18.246 39.8392 18.2714C39.8392 18.2952 39.8392 18.3063 39.8376 18.3063L39.8361 18.3079Z" fill="#E0E0E0"/>
<path d="M37.3694 13.1773H34.879V15.6657H37.3694V13.1773Z" fill="#EBEBEB"/>
<path d="M66.6774 70.4006L63.4208 63.1288H61.4125L66.1095 70.4006H66.6774Z" fill="#E0E0E0"/>
<path d="M37.4963 47.8594C37.0823 45.7735 35.9465 45.2061 34.3968 44.4834C32.847 43.7607 33.518 42.1091 33.518 42.1091H32.6138C32.6138 42.1091 33.2848 43.7607 31.735 44.4834C30.1852 45.2061 29.0494 45.7735 28.6354 47.8594C28.2214 49.9436 29.3064 52.7378 29.3064 52.7378H36.8238C36.8238 52.7378 37.9088 49.9452 37.4947 47.8594H37.4963Z" fill="#F5F5F5"/>
<path d="M40.009 42.5703H25.8563L29.4349 34.3476H36.9189L40.0106 42.5703H40.009Z" fill="#E0E0E0"/>
<path d="M25.1424 63.2508H65.6209H69.5914V52.6158H25.1424V63.2508Z" fill="#EBEBEB"/>
<path d="M25.7769 62.4853C25.7769 62.4853 25.7801 62.4283 25.7801 62.3205C25.7801 62.2111 25.7817 62.0526 25.7849 61.845C25.7865 61.4266 25.7896 60.8132 25.7944 60.0255C25.7991 58.4484 25.8055 56.174 25.815 53.3623L25.7785 53.3988C31.2702 53.4019 38.8193 53.4083 47.1472 53.413L47.0949 53.3607C47.0949 56.5607 47.0964 59.6451 47.0964 62.4821L47.1456 62.433C40.9465 62.4425 35.6102 62.4504 31.8206 62.4568C29.925 62.4631 28.4165 62.4679 27.3791 62.471C26.8619 62.4742 26.4638 62.4758 26.1894 62.4774C26.0561 62.4774 25.953 62.479 25.8816 62.4806C25.8118 62.4806 25.7753 62.4837 25.7753 62.4837C25.7753 62.4837 25.8087 62.4853 25.8753 62.4869C25.9467 62.4869 26.0466 62.4885 26.1783 62.4901C26.4495 62.4901 26.8445 62.4932 27.3569 62.4964C28.3927 62.4996 29.8965 62.5043 31.7873 62.5107C35.5849 62.517 40.9322 62.5249 47.1456 62.5344H47.1948V62.4853C47.1948 59.6482 47.1948 56.5639 47.1964 53.3639V53.3116H47.144C38.8161 53.3179 31.2654 53.3227 25.7753 53.3259H25.7389V53.3623C25.7468 56.1835 25.7547 58.4659 25.7595 60.0476C25.7642 60.8322 25.7658 61.4408 25.769 61.8577C25.7706 62.0621 25.7722 62.2175 25.7738 62.3268C25.7738 62.4314 25.7769 62.4837 25.7769 62.4837V62.4853Z" fill="#E0E0E0"/>
<path d="M35.688 57.8953C35.688 58.2662 35.9894 58.5673 36.3605 58.5673C36.7317 58.5673 37.0331 58.2662 37.0331 57.8953C37.0331 57.5244 36.7317 57.2233 36.3605 57.2233C35.9894 57.2233 35.688 57.5244 35.688 57.8953Z" fill="#E0E0E0"/>
<path d="M47.5009 62.4853C47.5009 62.4853 47.5041 62.4283 47.5041 62.3205C47.5041 62.2111 47.5057 62.0526 47.5089 61.845C47.5104 61.4266 47.5136 60.8132 47.5184 60.0255C47.5231 58.4484 47.5295 56.174 47.539 53.3623L47.5025 53.3988C52.9942 53.4019 60.5433 53.4083 68.8712 53.413L68.8188 53.3607C68.8188 56.5607 68.8204 59.6451 68.822 62.4821L68.8712 62.433C62.672 62.4425 57.3358 62.4504 53.5462 62.4568C51.6506 62.4631 50.1421 62.4679 49.1047 62.471C48.5875 62.4742 48.1894 62.4758 47.9149 62.4774C47.7817 62.4774 47.6786 62.479 47.6072 62.4806C47.5374 62.4806 47.5009 62.4837 47.5009 62.4837C47.5009 62.4837 47.5342 62.4853 47.6009 62.4869C47.6722 62.4869 47.7722 62.4885 47.9038 62.4901C48.1751 62.4901 48.5701 62.4932 49.0824 62.4964C50.1183 62.4996 51.6221 62.5043 53.5129 62.5107C57.3104 62.517 62.6578 62.5249 68.8712 62.5344H68.9204V62.4853C68.9204 59.6482 68.9204 56.5639 68.922 53.3639V53.3116H68.8696C60.5417 53.3179 52.991 53.3227 47.5009 53.3259H47.4644V53.3623C47.4724 56.1835 47.4803 58.4659 47.4851 60.0476C47.4882 60.8322 47.4914 61.4408 47.4946 61.8577C47.4962 62.0621 47.4978 62.2175 47.4978 62.3268C47.4978 62.4314 47.5009 62.4837 47.5009 62.4837V62.4853Z" fill="#E0E0E0"/>
<path d="M57.412 57.8953C57.412 58.2662 57.7134 58.5673 58.0845 58.5673C58.4557 58.5673 58.7571 58.2662 58.7571 57.8953C58.7571 57.5244 58.4557 57.2233 58.0845 57.2233C57.7134 57.2233 57.412 57.5244 57.412 57.8953Z" fill="#E0E0E0"/>
<path d="M31.4145 63.2509L27.1348 70.4481H26.6414L29.8616 63.2509H31.4145Z" fill="#E0E0E0"/>
<path d="M89.3468 48.9498C89.3468 48.9498 89.3468 48.9371 89.3452 48.9149C89.3452 48.8895 89.3452 48.8563 89.3436 48.8166C89.3436 48.7263 89.3404 48.6011 89.3388 48.4394C89.3357 48.1082 89.3309 47.6311 89.3262 47.0304L89.3484 47.0526C87.6907 47.0558 85.0543 47.0605 82.088 47.0668C82.1039 47.051 82.0499 47.1033 82.1245 47.0304V47.0922V47.154V47.2777C82.1245 47.3601 82.1245 47.4409 82.1245 47.5217C82.1245 47.685 82.1245 47.8467 82.1245 48.0067C82.1245 48.3269 82.1245 48.6423 82.1245 48.9514L82.088 48.9149C84.1565 48.9212 85.9648 48.9276 87.2624 48.9308C87.908 48.9355 88.4267 48.9387 88.79 48.9419C88.9661 48.9434 89.1041 48.945 89.2024 48.9466C89.2468 48.9466 89.2817 48.9482 89.3103 48.9482C89.3341 48.9482 89.3484 48.9482 89.3484 48.9498C89.3484 48.9498 89.3373 48.9498 89.3151 48.9514C89.2881 48.9514 89.2548 48.9514 89.2119 48.9529C89.1152 48.9529 88.9803 48.9561 88.8074 48.9577C88.4474 48.9609 87.9318 48.964 87.2878 48.9672C85.9839 48.972 84.166 48.9767 82.088 48.9831H82.0515V48.9466C82.0515 48.6375 82.0515 48.3221 82.0515 48.002C82.0515 47.8419 82.0515 47.6802 82.0515 47.517C82.0515 47.4361 82.0515 47.3537 82.0515 47.2729V47.1493V47.0875V47.0288V47.0256C82.1261 46.9512 82.0721 47.005 82.0896 46.9876C85.0559 46.9939 87.6923 46.9987 89.35 47.0019H89.3722V47.0241C89.3674 47.6311 89.3626 48.1113 89.3595 48.4458C89.3579 48.6058 89.3547 48.7295 89.3547 48.8182C89.3547 48.8563 89.3531 48.888 89.3531 48.9133C89.3531 48.9339 89.3531 48.945 89.3515 48.9434L89.3468 48.9498Z" fill="#E0E0E0"/>
<path d="M90.3319 47.0304C90.3319 47.0304 90.3303 47.0177 90.3287 46.9939C90.3287 46.967 90.3271 46.9337 90.3255 46.8925C90.3239 46.7974 90.3223 46.669 90.3192 46.5074C90.316 46.1713 90.3112 45.6959 90.3049 45.111L90.3319 45.138C89.2009 45.1411 87.6638 45.1443 85.9696 45.149C85.9363 45.1823 86.014 45.1047 86.0061 45.1126V45.176V45.2394V45.3646C86.0061 45.4486 86.0061 45.531 86.0061 45.6134C86.0061 45.7783 86.0061 45.9415 86.0061 46.1016C86.0061 46.4234 86.0061 46.734 86.0061 47.032L85.9712 46.9971C87.2307 47.0034 88.3157 47.0098 89.0914 47.0145C89.4753 47.0193 89.7814 47.0225 90.0003 47.0241C90.1019 47.0256 90.1843 47.0272 90.2462 47.0288C90.3017 47.0288 90.3319 47.032 90.3334 47.0336C90.335 47.0351 90.3081 47.0367 90.2541 47.0383C90.1939 47.0383 90.1161 47.0415 90.0162 47.0431C89.7989 47.0447 89.4943 47.0494 89.1152 47.0526C88.3316 47.0573 87.2402 47.0621 85.9712 47.07H85.9363V47.0351C85.9363 46.7372 85.9363 46.4249 85.9363 46.1048C85.9363 45.9447 85.9363 45.7814 85.9363 45.6166C85.9363 45.5342 85.9363 45.4518 85.9363 45.3678V45.2426V45.1792V45.1205V45.1173C85.9284 45.1253 86.0061 45.046 85.9744 45.0793C87.6685 45.0841 89.2072 45.0872 90.3366 45.0904H90.3636V45.1173C90.3572 45.7085 90.3525 46.1888 90.3493 46.5295C90.3461 46.6896 90.3446 46.8148 90.343 46.9083C90.3414 46.9939 90.3398 47.0383 90.3366 47.0367L90.3319 47.0304Z" fill="#E0E0E0"/>
<path d="M16.4861 39.887C16.4861 39.887 16.4861 39.8744 16.4845 39.8522C16.4845 39.8268 16.4845 39.7935 16.483 39.7539C16.483 39.6636 16.4798 39.5383 16.4782 39.3767C16.475 39.0454 16.4703 38.5684 16.4655 37.9677L16.4877 37.9898C14.8301 37.993 12.1937 37.9978 9.22734 38.0041C9.2432 37.9883 9.18927 38.0406 9.26383 37.9677V38.0295V38.0913V38.2149C9.26383 38.2973 9.26383 38.3782 9.26383 38.459C9.26383 38.6222 9.26383 38.7839 9.26383 38.944C9.26383 39.2642 9.26383 39.5796 9.26383 39.8886L9.22734 39.8522C11.2958 39.8585 13.1042 39.8648 14.4018 39.868C15.0474 39.8728 15.5661 39.8759 15.9293 39.8791C16.1054 39.8807 16.2434 39.8823 16.3418 39.8839C16.3862 39.8839 16.4211 39.8855 16.4496 39.8855C16.4734 39.8855 16.4877 39.8855 16.4877 39.887C16.4877 39.887 16.4766 39.887 16.4544 39.8886C16.4274 39.8886 16.3941 39.8886 16.3513 39.8902C16.2545 39.8902 16.1197 39.8934 15.9468 39.895C15.5867 39.8981 15.0712 39.9013 14.4271 39.9061C13.1232 39.9108 11.3054 39.9156 9.22734 39.9219H9.19086V39.8855C9.19086 39.5764 9.19086 39.261 9.19086 38.9408C9.19086 38.7807 9.19086 38.6191 9.19086 38.4558C9.19086 38.375 9.19086 38.2926 9.19086 38.2117V38.0881V38.0263V37.9677V37.9645C9.26541 37.89 9.21148 37.9439 9.22893 37.9264C12.1953 37.9328 14.8316 37.9375 16.4893 37.9407H16.5115V37.9629C16.5067 38.5699 16.502 39.0502 16.4988 39.3846C16.4972 39.5447 16.4941 39.6683 16.4941 39.7571C16.4941 39.7951 16.4925 39.8268 16.4925 39.8522C16.4925 39.8728 16.4925 39.8839 16.4909 39.8823L16.4861 39.887Z" fill="#E0E0E0"/>
<path d="M17.4712 37.9676C17.4712 37.9676 17.4696 37.955 17.468 37.9312C17.468 37.9043 17.4664 37.871 17.4649 37.8298C17.4633 37.7347 17.4617 37.6063 17.4585 37.4446C17.4553 37.1086 17.4506 36.6331 17.4442 36.0483L17.4712 36.0752C16.3402 36.0784 14.8031 36.0815 13.109 36.0863C13.0756 36.1196 13.1534 36.0419 13.1454 36.0499V36.1132V36.1766V36.3019C13.1454 36.3859 13.1454 36.4683 13.1454 36.5507C13.1454 36.7155 13.1454 36.8788 13.1454 37.0389C13.1454 37.3606 13.1454 37.6713 13.1454 37.9692L13.1105 37.9344C14.37 37.9407 15.4551 37.947 16.2307 37.9518C16.6146 37.9566 16.9208 37.9597 17.1397 37.9613C17.2412 37.9629 17.3237 37.9645 17.3855 37.9661C17.4411 37.9661 17.4712 37.9692 17.4728 37.9708C17.4728 37.9708 17.4474 37.974 17.3935 37.9756C17.3332 37.9756 17.2555 37.9787 17.1555 37.9803C16.9382 37.9819 16.6337 37.9867 16.2545 37.9898C15.4709 37.9946 14.3796 37.9993 13.1105 38.0073H13.0756V37.9724C13.0756 37.6744 13.0756 37.3622 13.0756 37.042C13.0756 36.882 13.0756 36.7187 13.0756 36.5539C13.0756 36.4714 13.0756 36.389 13.0756 36.305V36.1798V36.1164V36.0578V36.0546C13.0677 36.0625 13.1454 35.9833 13.1137 36.0166C14.8079 36.0213 16.3465 36.0245 17.476 36.0277H17.5029V36.0546C17.4966 36.6458 17.4918 37.126 17.4887 37.4668C17.4855 37.6269 17.4839 37.7521 17.4823 37.8456C17.4807 37.9312 17.4791 37.9756 17.476 37.974L17.4712 37.9676Z" fill="#E0E0E0"/>
<path d="M84.2295 58.7401C84.2295 58.7401 84.2295 58.7274 84.2279 58.7052C84.2279 58.6798 84.2279 58.6465 84.2263 58.6069C84.2263 58.5166 84.2231 58.3914 84.2215 58.2297C84.2184 57.8985 84.2136 57.4214 84.2088 56.8207L84.2311 56.8429C82.5734 56.846 79.937 56.8508 76.9707 56.8571C76.9866 56.8413 76.9326 56.8936 77.0072 56.8207V56.8825V56.9443V57.0679C77.0072 57.1503 77.0072 57.2312 77.0072 57.312C77.0072 57.4753 77.0072 57.6369 77.0072 57.797C77.0072 58.1172 77.0072 58.4326 77.0072 58.7416L76.9707 58.7052C79.0392 58.7115 80.8475 58.7179 82.1451 58.721C82.7907 58.7258 83.3094 58.729 83.6727 58.7321C83.8488 58.7337 83.9868 58.7353 84.0851 58.7369C84.1295 58.7369 84.1644 58.7385 84.193 58.7385C84.2168 58.7385 84.2311 58.7385 84.2311 58.7401C84.2311 58.7401 84.22 58.7401 84.1977 58.7416C84.1708 58.7416 84.1375 58.7416 84.0946 58.7432C83.9979 58.7432 83.863 58.7464 83.6901 58.748C83.3301 58.7512 82.8145 58.7543 82.1705 58.7575C80.8666 58.7623 79.0487 58.767 76.9707 58.7733H76.9342V58.7369C76.9342 58.4278 76.9342 58.1124 76.9342 57.7923C76.9342 57.6322 76.9342 57.4705 76.9342 57.3073C76.9342 57.2264 76.9342 57.144 76.9342 57.0632V56.9396V56.8777V56.8191V56.8159C77.0088 56.7414 76.9548 56.7953 76.9723 56.7779C79.9386 56.7842 82.575 56.789 84.2326 56.7922H84.2549V56.8143C84.2501 57.4214 84.2453 57.9016 84.2422 58.236C84.2406 58.3961 84.2374 58.5198 84.2374 58.6085C84.2374 58.6465 84.2358 58.6782 84.2358 58.7036C84.2358 58.7242 84.2358 58.7353 84.2342 58.7337L84.2295 58.7401Z" fill="#E0E0E0"/>
<path d="M110.233 51.8962C110.233 51.8962 110.233 51.8836 110.232 51.8614C110.232 51.836 110.232 51.8027 110.23 51.7631C110.23 51.6728 110.227 51.5476 110.225 51.3859C110.222 51.0546 110.217 50.5776 110.213 49.9769L110.235 49.9991C108.577 50.0022 105.941 50.007 102.974 50.0133C102.99 49.9975 102.936 50.0498 103.011 49.9769V50.0387V50.1005V50.2241C103.011 50.3065 103.011 50.3874 103.011 50.4682C103.011 50.6315 103.011 50.7931 103.011 50.9532C103.011 51.2734 103.011 51.5888 103.011 51.8978L102.974 51.8614C105.043 51.8677 106.851 51.8741 108.149 51.8772C108.794 51.882 109.313 51.8852 109.676 51.8883C109.853 51.8899 109.991 51.8915 110.089 51.8931C110.133 51.8931 110.168 51.8947 110.197 51.8947C110.221 51.8947 110.235 51.8947 110.235 51.8962C110.235 51.8962 110.224 51.8963 110.202 51.8978C110.175 51.8978 110.141 51.8978 110.098 51.8994C110.002 51.8994 109.867 51.9026 109.694 51.9042C109.334 51.9073 108.818 51.9105 108.174 51.9137C106.87 51.9184 105.052 51.9232 102.974 51.9295H102.938V51.8931C102.938 51.584 102.938 51.2686 102.938 50.9484C102.938 50.7884 102.938 50.6267 102.938 50.4635C102.938 50.3826 102.938 50.3002 102.938 50.2194V50.0957V50.0339V49.9753V49.9721C103.013 49.8976 102.959 49.9515 102.976 49.9341C105.942 49.9404 108.579 49.9452 110.236 49.9483H110.259V49.9705C110.254 50.5776 110.249 51.0578 110.246 51.3922C110.244 51.5523 110.241 51.6759 110.241 51.7647C110.241 51.8027 110.24 51.8344 110.24 51.8598C110.24 51.8804 110.24 51.8915 110.238 51.8899L110.233 51.8962Z" fill="#E0E0E0"/>
<path d="M110.419 70.624C110.419 70.6462 85.9712 70.6652 55.8193 70.6652C25.6675 70.6652 1.21509 70.6462 1.21509 70.624C1.21509 70.6018 25.658 70.5828 55.8193 70.5828C85.9807 70.5828 110.419 70.6018 110.419 70.624Z" fill="#263238"/>
<path d="M90.335 69.8046C89.975 69.6905 89.5831 69.7364 89.2151 69.8252C89.258 69.3608 89.0343 68.8806 88.6504 68.6143C88.2681 68.348 87.7399 68.3036 87.318 68.5033C87.3132 68.1039 87.0657 67.7172 86.7041 67.5444C86.344 67.3717 85.8871 67.4224 85.5715 67.6681L85.2495 70.6652C87.1784 70.586 89.1089 70.567 91.0393 70.6066C91.014 70.2294 90.6951 69.9203 90.335 69.8046Z" fill="#A23E2E"/>
<path d="M108.32 71.155C107.435 69.7428 106.026 68.7189 104.51 68.0247C102.994 67.3305 101.361 66.9359 99.7401 66.546L91.5596 66.7568C94.6212 68.2339 98.1681 69.3307 101.567 69.4274C101.571 69.0439 101.572 68.6603 101.575 68.2767C101.755 69.0328 102.362 69.6303 103.054 69.9853C103.745 70.3403 104.521 70.4893 105.286 70.6336C105.178 70.1755 105.072 69.7159 104.964 69.2578C105.782 70.2896 107.012 70.9854 108.317 71.155H108.32Z" fill="#455A64"/>
<g opacity="0.3">
<path d="M108.32 71.155C107.435 69.7428 106.026 68.7189 104.51 68.0247C102.994 67.3305 101.361 66.9359 99.7401 66.546L91.5596 66.7568C94.6212 68.2339 98.1681 69.3307 101.567 69.4274C101.571 69.0439 101.572 68.6603 101.575 68.2767C101.755 69.0328 102.362 69.6303 103.054 69.9853C103.745 70.3403 104.521 70.4893 105.286 70.6336C105.178 70.1755 105.072 69.7159 104.964 69.2578C105.782 70.2896 107.012 70.9854 108.317 71.155H108.32Z" fill="black"/>
</g>
<path d="M89.6307 66.6584C89.6307 66.6584 93.7868 62.5693 98.0491 62.265L98.1728 63.7691C98.1728 63.7691 99.1151 62.0478 99.7274 62.1271C100.34 62.2079 102.624 62.0637 102.624 62.0637L102.392 63.4679C102.392 63.4679 102.824 62.3949 103.631 62.1984C104.439 62.0018 108.258 62.1223 108.258 62.1223C108.258 62.1223 106.632 63.9434 104.867 64.6059C103.101 65.2684 101.106 66.7963 95.5666 66.8486C90.0273 66.9009 89.6307 66.6584 89.6307 66.6584Z" fill="#455A64"/>
<path d="M89.3642 68.581C89.3642 68.581 92.3845 72.396 95.8918 73.0126L96.1218 71.7763C96.1218 71.7763 96.7547 73.2836 97.2702 73.2693C97.7858 73.255 99.6655 73.5689 99.6655 73.5689L99.5925 72.3865C99.5925 72.3865 99.859 73.3137 100.511 73.5435C101.163 73.7749 104.34 74 104.34 74C104.34 74 103.147 72.3532 101.742 71.6527C100.336 70.9521 98.8105 69.5177 94.2246 69.0026C89.6387 68.4875 89.3642 68.5826 89.3642 68.5826V68.581Z" fill="#455A64"/>
<path d="M104.453 63.4584C104.453 63.4584 104.439 63.4648 104.407 63.4759C104.374 63.487 104.329 63.5012 104.272 63.5187C104.15 63.5567 103.975 63.6106 103.752 63.6803C103.526 63.7501 103.249 63.8341 102.927 63.926C102.605 64.0195 102.237 64.1273 101.829 64.2366C101.015 64.4633 100.04 64.7121 98.9533 64.9752C97.8667 65.2336 96.6659 65.4999 95.4016 65.7534C94.1358 66.0039 92.9254 66.2163 91.823 66.3954C90.7189 66.5681 89.7227 66.7123 88.8836 66.8138C88.4648 66.8693 88.0841 66.9105 87.751 66.9485C87.4179 66.9881 87.1292 67.0167 86.8944 67.0388C86.6628 67.061 86.4804 67.0769 86.3519 67.0896C86.2932 67.0943 86.2456 67.0975 86.2107 67.1007C86.179 67.1022 86.1631 67.1038 86.1631 67.1022C86.1631 67.1022 86.179 67.0991 86.2107 67.0943C86.2456 67.0896 86.2916 67.0832 86.3519 67.0769C86.4788 67.0626 86.6612 67.0404 86.8928 67.0135C87.1276 66.9881 87.4147 66.9548 87.7478 66.9121C88.0809 66.8708 88.4601 66.8265 88.8788 66.7678C89.7164 66.66 90.711 66.5111 91.815 66.3351C92.9175 66.1529 94.1262 65.9389 95.3905 65.6885C96.6548 65.4349 97.8524 65.1702 98.9406 64.9166C100.027 64.6567 101.003 64.4126 101.818 64.1923C102.227 64.0861 102.594 63.9815 102.917 63.8911C103.241 63.8024 103.519 63.7231 103.745 63.6566C103.969 63.5932 104.145 63.5424 104.269 63.5076C104.326 63.4917 104.372 63.479 104.405 63.4711C104.435 63.4632 104.453 63.46 104.453 63.46V63.4584Z" fill="#263238"/>
<path d="M86.8564 66.3652C86.8564 66.3652 90.4477 62.6406 92.7002 61.3917L93.1079 62.1619C92.9651 61.5914 93.165 60.9764 93.506 60.4977C93.8471 60.0175 94.3182 59.6482 94.7814 59.2837L95.0463 60.3218C95.2366 59.3423 95.822 58.4468 96.6405 57.8762C96.5374 59.1347 95.9473 60.3139 95.17 61.3092C94.5403 62.116 93.7899 62.8165 93.0206 63.4933C92.6447 63.823 92.2402 64.1178 91.8103 64.3714C90.6729 65.0402 88.2792 66.2511 86.8579 66.3652H86.8564Z" fill="#455A64"/>
<path d="M101.958 72.5704C101.958 72.5704 101.943 72.5672 101.916 72.5577C101.886 72.5466 101.848 72.5323 101.799 72.5149C101.693 72.4737 101.544 72.4166 101.353 72.3421C100.966 72.19 100.405 71.9744 99.7083 71.7161C99.012 71.4562 98.1792 71.1598 97.248 70.8459C96.3169 70.5337 95.289 70.2056 94.2024 69.8823C93.1142 69.5621 92.072 69.28 91.1202 69.0359C90.1685 68.795 89.3071 68.5906 88.5822 68.4305C87.8573 68.2688 87.2688 68.1452 86.8611 68.0628C86.6612 68.0216 86.5042 67.9883 86.3932 67.9661C86.3424 67.955 86.3027 67.9455 86.271 67.9391C86.244 67.9328 86.2298 67.9296 86.2298 67.928C86.2298 67.928 86.244 67.928 86.2726 67.9328C86.3043 67.9375 86.344 67.9455 86.3947 67.9534C86.5058 67.974 86.6644 68.0025 86.8659 68.039C87.2751 68.1135 87.8652 68.2308 88.5917 68.3861C89.3182 68.5398 90.1812 68.7395 91.1345 68.9773C92.0879 69.2182 93.1316 69.4987 94.2198 69.8189C95.3064 70.1406 96.3359 70.4719 97.2671 70.7873C98.1966 71.1059 99.0294 71.407 99.7242 71.6717C100.419 71.9364 100.977 72.1583 101.361 72.3168C101.55 72.396 101.698 72.4578 101.802 72.5006C101.85 72.5212 101.888 72.5371 101.916 72.5498C101.942 72.5609 101.954 72.5672 101.954 72.5688L101.958 72.5704Z" fill="#263238"/>
<path d="M85.2225 66.79C85.2225 66.79 85.2463 66.7805 85.2923 66.7678C85.3462 66.7552 85.4128 66.7377 85.4953 66.7187C85.5842 66.6981 85.692 66.6727 85.8158 66.6395C85.9395 66.6062 86.0823 66.5729 86.2377 66.5253C86.5502 66.4382 86.9166 66.3209 87.3195 66.1751C87.7209 66.0261 88.1555 65.8486 88.6028 65.6378C89.0486 65.4254 89.4626 65.2003 89.8306 64.9848C90.1986 64.766 90.5222 64.5568 90.7871 64.3698C90.922 64.2794 91.0378 64.1907 91.1425 64.1162C91.2472 64.0417 91.336 63.9736 91.4074 63.9181C91.4756 63.8674 91.5295 63.8262 91.5739 63.7929C91.612 63.7643 91.6342 63.7501 91.6358 63.7532C91.6358 63.7548 91.6183 63.7723 91.5834 63.804C91.5422 63.8388 91.4883 63.8848 91.4248 63.9387C91.355 63.9973 91.2694 64.0671 91.1662 64.1447C91.0631 64.2224 90.9489 64.3143 90.8157 64.4078C90.554 64.5996 90.2304 64.8136 89.8639 65.0371C89.4943 65.2574 89.0803 65.484 88.633 65.698C88.1841 65.9088 87.7462 66.0863 87.3417 66.2321C86.9372 66.3748 86.5661 66.4889 86.252 66.5697C86.0965 66.6141 85.9522 66.6442 85.8269 66.6743C85.7015 66.7044 85.5921 66.7266 85.5033 66.7425C85.4192 66.7583 85.3526 66.771 85.297 66.7805C85.2495 66.7884 85.2257 66.7916 85.2241 66.79H85.2225Z" fill="#263238"/>
<path d="M85.8924 63.7503L84.3699 63.8748L84.9811 71.334L86.5036 71.2095L85.8924 63.7503Z" fill="#FF725E"/>
<path d="M84.4246 64.5885L79.3691 65.8153L79.7387 70.3213L84.9227 70.6557L84.4246 64.5885Z" fill="#FF725E"/>
<path d="M84.9401 70.8808C84.9227 70.8808 84.791 69.4717 84.6498 67.7315C84.5071 65.9912 84.4071 64.579 84.4246 64.5774C84.442 64.5774 84.5737 65.9848 84.7149 67.7267C84.8576 69.467 84.9576 70.8792 84.9401 70.8808Z" fill="#263238"/>
<path d="M88.0603 72.4214C88.0603 72.4214 88.1571 71.7256 88.5901 71.7145C89.0232 71.705 89.48 72.3041 89.48 72.3041C89.48 72.3041 88.5251 72.7907 88.0603 72.4198V72.4214Z" fill="#A23E2E"/>
<path d="M89.8401 71.6701C89.8576 71.594 89.8338 71.5306 89.8766 71.4656C89.9195 71.4007 89.9861 71.3468 90.0638 71.3404C90.1415 71.3341 90.224 71.3864 90.2367 71.4625C90.251 71.5465 90.1764 71.6257 90.0955 71.6511C90.0146 71.678 89.9258 71.6685 89.8401 71.6685" fill="#A23E2E"/>
<path d="M25.8564 4.3111H5.60925V30.4391H25.8564V4.3111Z" fill="#455A64"/>
<path d="M25.8563 4.31106C25.8563 4.31106 25.8388 4.33642 25.8007 4.3808C25.7563 4.43152 25.6992 4.49491 25.6262 4.57733C25.4644 4.75485 25.236 5.00527 24.9426 5.32543L24.9346 5.33494H24.9219C23.1612 5.35237 19.7031 5.36505 15.7327 5.36505C11.7622 5.36505 8.30256 5.35237 6.5418 5.33494H6.52911L6.52118 5.32543C6.22772 5.00527 5.99929 4.75485 5.83749 4.57733C5.76611 4.4965 5.709 4.43152 5.663 4.3808C5.62493 4.33642 5.6059 4.31264 5.60748 4.31106C5.60907 4.30947 5.63128 4.33008 5.67411 4.37129C5.72169 4.41884 5.78197 4.48065 5.85811 4.55673C6.02467 4.72949 6.26103 4.97357 6.56242 5.28739L6.5418 5.27788C8.30256 5.26045 11.7606 5.24777 15.7327 5.24777C19.7047 5.24777 23.1612 5.26045 24.9219 5.27788L24.9013 5.28739C25.2027 4.97516 25.4375 4.73107 25.6056 4.55673C25.6818 4.47906 25.742 4.41884 25.7896 4.37129C25.8325 4.33008 25.8547 4.30947 25.8563 4.31106Z" fill="#263238"/>
<path d="M5.60907 30.4407C5.60907 30.4407 5.62652 30.4153 5.66459 30.3709C5.709 30.3202 5.76611 30.2568 5.83908 30.1744C6.00088 29.9969 6.2293 29.7464 6.52276 29.4263L6.53069 29.4168H6.54338C8.30415 29.3993 11.7622 29.3867 15.7327 29.3867C19.7031 29.3867 23.1628 29.3993 24.9235 29.4168H24.9362L24.9441 29.4263C25.2376 29.7464 25.466 29.9969 25.6278 30.1744C25.6992 30.2552 25.7563 30.3202 25.8023 30.3709C25.8404 30.4153 25.8594 30.4391 25.8578 30.4407C25.8563 30.4422 25.834 30.4216 25.7912 30.3804C25.7436 30.3329 25.6833 30.2711 25.6072 30.195C25.4406 30.0222 25.2043 29.7781 24.9029 29.4643L24.9235 29.4738C23.1628 29.4913 19.7047 29.5039 15.7327 29.5039C11.7606 29.5039 8.30415 29.4913 6.54338 29.4738L6.56401 29.4643C6.26261 29.7766 6.02785 30.0206 5.8597 30.195C5.78356 30.2726 5.72328 30.3329 5.67569 30.3804C5.63286 30.4216 5.61066 30.4422 5.60907 30.4407Z" fill="#263238"/>
<path d="M24.9235 5.3064H6.5434V29.4453H24.9235V5.3064Z" fill="white"/>
<path d="M9.41928 22.3859C9.96654 21.866 10.7724 21.7186 11.5274 21.7377C12.2825 21.7567 13.0296 21.9168 13.7847 21.9073C14.9919 21.8914 16.1958 21.446 17.3855 21.6521C17.7662 21.7186 18.1517 21.8502 18.5292 21.7694C18.8592 21.6996 19.1368 21.473 19.4604 21.3779C20.2979 21.129 21.2418 21.7836 22.046 21.4413V26.8285H9.41928V22.3875V22.3859Z" fill="#FF725E"/>
<path d="M9.6731 22.6031C9.64138 22.6031 9.61441 19.411 9.61441 15.4755C9.61441 11.5401 9.64138 8.34637 9.6731 8.34637C9.70483 8.34637 9.73179 11.5369 9.73179 15.4755C9.73179 19.4141 9.70483 22.6031 9.6731 22.6031Z" fill="#263238"/>
<path d="M10.2489 22.6031C10.2172 22.6031 10.1902 19.411 10.1902 15.4755C10.1902 11.5401 10.2172 8.34637 10.2489 8.34637C10.2806 8.34637 10.3076 11.5369 10.3076 15.4755C10.3076 19.4141 10.2806 22.6031 10.2489 22.6031Z" fill="#263238"/>
<path d="M10.8232 22.6031C10.7914 22.6031 10.7645 19.411 10.7645 15.4755C10.7645 11.5401 10.7914 8.34637 10.8232 8.34637C10.8549 8.34637 10.8818 11.5369 10.8818 15.4755C10.8818 19.4141 10.8549 22.6031 10.8232 22.6031Z" fill="#263238"/>
<path d="M11.3974 22.6031C11.3656 22.6031 11.3387 19.411 11.3387 15.4755C11.3387 11.5401 11.3656 8.34637 11.3974 8.34637C11.4291 8.34637 11.4561 11.5369 11.4561 15.4755C11.4561 19.4141 11.4291 22.6031 11.3974 22.6031Z" fill="#263238"/>
<path d="M11.9732 22.6031C11.9415 22.6031 11.9145 19.411 11.9145 15.4755C11.9145 11.5401 11.9415 8.34637 11.9732 8.34637C12.0049 8.34637 12.0319 11.5369 12.0319 15.4755C12.0319 19.4141 12.0049 22.6031 11.9732 22.6031Z" fill="#263238"/>
<path d="M12.5474 22.6031C12.5157 22.6031 12.4887 19.411 12.4887 15.4755C12.4887 11.5401 12.5157 8.34637 12.5474 8.34637C12.5792 8.34637 12.6061 11.5369 12.6061 15.4755C12.6061 19.4141 12.5792 22.6031 12.5474 22.6031Z" fill="#263238"/>
<path d="M13.1232 22.6031C13.0915 22.6031 13.0645 19.411 13.0645 15.4755C13.0645 11.5401 13.0915 8.34637 13.1232 8.34637C13.155 8.34637 13.1819 11.5369 13.1819 15.4755C13.1819 19.4141 13.155 22.6031 13.1232 22.6031Z" fill="#263238"/>
<path d="M13.6975 22.6031C13.6658 22.6031 13.6388 19.411 13.6388 15.4755C13.6388 11.5401 13.6658 8.34637 13.6975 8.34637C13.7292 8.34637 13.7562 11.5369 13.7562 15.4755C13.7562 19.4141 13.7292 22.6031 13.6975 22.6031Z" fill="#263238"/>
<path d="M14.2733 22.6031C14.2416 22.6031 14.2146 19.411 14.2146 15.4755C14.2146 11.5401 14.2416 8.34637 14.2733 8.34637C14.305 8.34637 14.332 11.5369 14.332 15.4755C14.332 19.4141 14.305 22.6031 14.2733 22.6031Z" fill="#263238"/>
<path d="M14.8475 22.6031C14.8158 22.6031 14.7888 19.411 14.7888 15.4755C14.7888 11.5401 14.8158 8.34637 14.8475 8.34637C14.8792 8.34637 14.9062 11.5369 14.9062 15.4755C14.9062 19.4141 14.8792 22.6031 14.8475 22.6031Z" fill="#263238"/>
<path d="M15.4233 22.6031C15.3916 22.6031 15.3647 19.411 15.3647 15.4755C15.3647 11.5401 15.3916 8.34637 15.4233 8.34637C15.4551 8.34637 15.482 11.5369 15.482 15.4755C15.482 19.4141 15.4551 22.6031 15.4233 22.6031Z" fill="#263238"/>
<path d="M15.9976 22.6031C15.9658 22.6031 15.9389 19.411 15.9389 15.4755C15.9389 11.5401 15.9658 8.34637 15.9976 8.34637C16.0293 8.34637 16.0563 11.5369 16.0563 15.4755C16.0563 19.4141 16.0293 22.6031 15.9976 22.6031Z" fill="#263238"/>
<path d="M16.5718 22.6031C16.5401 22.6031 16.5131 19.411 16.5131 15.4755C16.5131 11.5401 16.5401 8.34637 16.5718 8.34637C16.6035 8.34637 16.6305 11.5369 16.6305 15.4755C16.6305 19.4141 16.6035 22.6031 16.5718 22.6031Z" fill="#263238"/>
<path d="M17.1476 22.6031C17.1159 22.6031 17.0889 19.411 17.0889 15.4755C17.0889 11.5401 17.1159 8.34637 17.1476 8.34637C17.1793 8.34637 17.2063 11.5369 17.2063 15.4755C17.2063 19.4141 17.1793 22.6031 17.1476 22.6031Z" fill="#263238"/>
<path d="M17.7218 22.6031C17.6901 22.6031 17.6631 19.411 17.6631 15.4755C17.6631 11.5401 17.6901 8.34637 17.7218 8.34637C17.7536 8.34637 17.7805 11.5369 17.7805 15.4755C17.7805 19.4141 17.7536 22.6031 17.7218 22.6031Z" fill="#263238"/>
<path d="M18.2977 22.6031C18.2659 22.6031 18.239 19.411 18.239 15.4755C18.239 11.5401 18.2659 8.34637 18.2977 8.34637C18.3294 8.34637 18.3564 11.5369 18.3564 15.4755C18.3564 19.4141 18.3294 22.6031 18.2977 22.6031Z" fill="#263238"/>
<path d="M18.8719 22.6031C18.8402 22.6031 18.8132 19.411 18.8132 15.4755C18.8132 11.5401 18.8402 8.34637 18.8719 8.34637C18.9036 8.34637 18.9306 11.5369 18.9306 15.4755C18.9306 19.4141 18.9036 22.6031 18.8719 22.6031Z" fill="#263238"/>
<path d="M19.4477 22.6031C19.416 22.6031 19.389 19.411 19.389 15.4755C19.389 11.5401 19.416 8.34637 19.4477 8.34637C19.4794 8.34637 19.5064 11.5369 19.5064 15.4755C19.5064 19.4141 19.4794 22.6031 19.4477 22.6031Z" fill="#263238"/>
<path d="M20.0219 22.6031C19.9902 22.6031 19.9633 19.411 19.9633 15.4755C19.9633 11.5401 19.9902 8.34637 20.0219 8.34637C20.0537 8.34637 20.0806 11.5369 20.0806 15.4755C20.0806 19.4141 20.0537 22.6031 20.0219 22.6031Z" fill="#263238"/>
<path d="M20.5962 22.6031C20.5644 22.6031 20.5375 19.411 20.5375 15.4755C20.5375 11.5401 20.5644 8.34637 20.5962 8.34637C20.6279 8.34637 20.6549 11.5369 20.6549 15.4755C20.6549 19.4141 20.6279 22.6031 20.5962 22.6031Z" fill="#263238"/>
<path d="M21.172 22.6031C21.1403 22.6031 21.1133 19.411 21.1133 15.4755C21.1133 11.5401 21.1403 8.34637 21.172 8.34637C21.2037 8.34637 21.2307 11.5369 21.2307 15.4755C21.2307 19.4141 21.2037 22.6031 21.172 22.6031Z" fill="#263238"/>
<path d="M21.7462 22.6031C21.7145 22.6031 21.6875 19.411 21.6875 15.4755C21.6875 11.5401 21.7145 8.34637 21.7462 8.34637C21.7779 8.34637 21.8049 11.5369 21.8049 15.4755C21.8049 19.4141 21.7779 22.6031 21.7462 22.6031Z" fill="#263238"/>
<path d="M93.9866 5.20502H54.4678V37.6142H93.9866V5.20502Z" fill="#455A64"/>
<path d="M73.4999 6.7757H56.254V36.3272H73.4999V6.7757Z" fill="#263238"/>
<path d="M92.2687 6.7757H75.0228V36.3272H92.2687V6.7757Z" fill="#263238"/>
<path d="M96.7785 37.6348H52.3359V40.3339H96.7785V37.6348Z" fill="#455A64"/>
<path d="M93.9866 37.6126C93.9866 37.6126 93.9866 37.5587 93.985 37.4557C93.985 37.3511 93.985 37.1989 93.9835 36.9961C93.9835 36.5919 93.9803 35.9944 93.9787 35.2177C93.9755 33.6645 93.9724 31.398 93.9692 28.5356C93.9644 22.8155 93.9581 14.7179 93.9501 5.20344L93.9882 5.24148C87.6907 5.24148 80.7682 5.24306 73.5047 5.24465H73.5015L73.5428 5.20344C73.5396 17.4821 73.5364 28.7828 73.5332 37.6126L73.4999 37.5793C79.7594 37.5873 84.8767 37.592 88.4299 37.5968C90.2081 37.5999 91.5961 37.6031 92.54 37.6047C93.0111 37.6063 93.3712 37.6079 93.6154 37.6079C93.8581 37.6079 93.985 37.611 93.985 37.611C93.985 37.611 93.8629 37.6126 93.6218 37.6142C93.3791 37.6142 93.0206 37.6158 92.5526 37.6174C91.6104 37.619 90.2256 37.6221 88.4505 37.6253C84.8909 37.63 79.7673 37.6348 73.4999 37.6427H73.4666V37.6094C73.4634 28.7797 73.4619 17.4789 73.4571 5.20027V5.15906H73.4983H73.5015C80.765 5.15906 87.6875 5.16064 93.985 5.16223H94.0231V5.20027C94.0152 14.7243 94.0088 22.8313 94.0041 28.5578C93.9993 31.417 93.9961 33.6803 93.9946 35.232C93.993 36.0055 93.9914 36.5998 93.9898 37.0024C93.9898 37.2021 93.9882 37.3543 93.9882 37.4573C93.9882 37.5587 93.9866 37.6094 93.9866 37.6094V37.6126Z" fill="#263238"/>
<path d="M80.8729 20.289C80.8729 20.289 80.892 20.2589 80.9348 20.2066C80.984 20.148 81.0474 20.0719 81.1251 19.9784C81.2996 19.7739 81.5392 19.4918 81.8326 19.1478C82.4306 18.4457 83.2507 17.4725 84.1391 16.3821C85.0274 15.2917 85.8157 14.2915 86.382 13.564C86.6612 13.2058 86.8881 12.9142 87.053 12.7034C87.1292 12.6083 87.1895 12.5307 87.2371 12.4704C87.2799 12.4181 87.3037 12.3912 87.3053 12.3928C87.3068 12.3944 87.2878 12.4245 87.2497 12.4799C87.2053 12.5418 87.1482 12.6226 87.0768 12.7224C86.9261 12.9317 86.7041 13.2312 86.4265 13.5989C85.8713 14.3359 85.0908 15.3424 84.2009 16.4328C83.3126 17.5233 82.4846 18.4917 81.8755 19.1843C81.5709 19.5298 81.3218 19.8088 81.1473 19.999C81.0649 20.0877 80.9967 20.1606 80.9459 20.2161C80.8983 20.2652 80.8729 20.2906 80.8713 20.2874L80.8729 20.289Z" fill="#E0E0E0"/>
<path d="M80.8095 22.527C80.8095 22.527 80.8285 22.4985 80.8698 22.4477C80.9189 22.3923 80.9792 22.3209 81.0569 22.2338C81.2267 22.0404 81.4614 21.7757 81.7485 21.4492C82.3307 20.7867 83.127 19.8627 83.9788 18.8214C84.8307 17.7785 85.5778 16.8148 86.1124 16.1127C86.3741 15.7672 86.5883 15.485 86.7437 15.279C86.8151 15.1871 86.8722 15.1126 86.9166 15.0539C86.9563 15.0032 86.9785 14.9763 86.9817 14.9778C86.9848 14.9794 86.9658 15.008 86.9309 15.0634C86.8897 15.1237 86.8357 15.2013 86.7707 15.298C86.6295 15.5009 86.4217 15.7909 86.16 16.1475C85.6381 16.8592 84.8973 17.8292 84.0439 18.8737C83.1905 19.9166 82.3878 20.8358 81.793 21.4888C81.4963 21.8153 81.252 22.0769 81.0823 22.256C81.0014 22.34 80.9364 22.4065 80.884 22.4604C80.838 22.5064 80.8127 22.5302 80.8111 22.527H80.8095Z" fill="#E0E0E0"/>
<path d="M83.6441 22.611C83.6362 22.6015 83.7932 22.4366 84.0423 22.164C84.2913 21.8914 84.6292 21.5094 84.9829 21.072C85.3367 20.633 85.6381 20.2225 85.8522 19.9213C86.0664 19.6202 86.1949 19.4316 86.206 19.4379C86.2107 19.4411 86.1838 19.4918 86.133 19.5821C86.0806 19.6725 86.0029 19.7993 85.9014 19.9546C85.6999 20.2652 85.4033 20.6837 85.048 21.1243C84.6927 21.5649 84.3453 21.9421 84.0851 22.2052C83.955 22.3368 83.8472 22.4414 83.7695 22.5111C83.6933 22.5809 83.6489 22.6173 83.6441 22.6141V22.611Z" fill="#E0E0E0"/>
<path d="M82.0452 15.718C82.0277 15.7021 82.272 15.401 82.5909 15.0428C82.9097 14.6846 83.181 14.4072 83.1984 14.4215C83.2158 14.4373 82.9716 14.7385 82.6527 15.0967C82.3355 15.4549 82.0626 15.7322 82.0468 15.718H82.0452Z" fill="#E0E0E0"/>
<path d="M74.2613 21.4096C74.1138 21.4096 73.9933 21.2891 73.9933 21.1417V17.1872C73.9933 17.0398 74.1138 16.9194 74.2613 16.9194C74.4089 16.9194 74.5294 17.0398 74.5294 17.1872V21.1417C74.5294 21.2891 74.4089 21.4096 74.2613 21.4096Z" fill="#263238"/>
<path d="M75.0228 5.12891C75.045 5.12891 75.064 5.53624 75.064 6.03867C75.064 6.5411 75.045 6.94844 75.0228 6.94844C75.0005 6.94844 74.9815 6.5411 74.9815 6.03867C74.9815 5.53624 75.0005 5.12891 75.0228 5.12891Z" fill="#263238"/>
<path d="M92.2703 5.12891C92.2925 5.12891 92.3115 5.53624 92.3115 6.03867C92.3115 6.5411 92.2925 6.94844 92.2703 6.94844C92.2481 6.94844 92.229 6.5411 92.229 6.03867C92.229 5.53624 92.2481 5.12891 92.2703 5.12891Z" fill="#263238"/>
<path d="M75.0228 36.2274C75.045 36.2274 75.064 36.5428 75.064 36.9311C75.064 37.3194 75.045 37.6348 75.0228 37.6348C75.0005 37.6348 74.9815 37.3194 74.9815 36.9311C74.9815 36.5428 75.0005 36.2274 75.0228 36.2274Z" fill="#263238"/>
<path d="M92.2703 36.2274C92.2925 36.2274 92.3115 36.5428 92.3115 36.9311C92.3115 37.3194 92.2925 37.6348 92.2703 37.6348C92.2481 37.6348 92.229 37.3194 92.229 36.9311C92.229 36.5428 92.2481 36.2274 92.2703 36.2274Z" fill="#263238"/>
<path d="M56.254 5.20502C56.2762 5.20502 56.2952 5.60601 56.2952 6.10052C56.2952 6.59502 56.2762 6.99602 56.254 6.99602C56.2318 6.99602 56.2127 6.59502 56.2127 6.10052C56.2127 5.60601 56.2318 5.20502 56.254 5.20502Z" fill="#263238"/>
<path d="M56.254 35.7313C56.2762 35.7313 56.2952 36.1323 56.2952 36.6268C56.2952 37.1213 56.2762 37.5223 56.254 37.5223C56.2318 37.5223 56.2127 37.1213 56.2127 36.6268C56.2127 36.1323 56.2318 35.7313 56.254 35.7313Z" fill="#263238"/>
<path d="M96.7801 37.6348C96.7801 37.657 86.831 37.676 74.5596 37.676C62.2881 37.676 52.3375 37.657 52.3375 37.6348C52.3375 37.6126 62.285 37.5936 74.5596 37.5936C86.8341 37.5936 96.7801 37.6126 96.7801 37.6348Z" fill="#263238"/>
<path d="M81.7961 34.3127L83.2032 37.6126H82.2974L81.6724 35.8502L81.7961 34.3127Z" fill="#FF725E"/>
<path d="M77.4767 31.3251L76.9342 37.6126H81.5312L82.0357 31.3251H77.4767Z" fill="#FF725E"/>
<path d="M77.9256 31.8244L77.4497 37.0912L80.9015 37.1356L81.3678 31.7943L77.9256 31.8244Z" fill="#FAFAFA"/>
<path d="M78.6585 32.5534L78.3872 36.1782H80.2289L80.5525 32.5534H78.6585Z" fill="#263238"/>
<path opacity="0.3" d="M81.6724 35.8501L81.8913 36.4666L82.0579 34.9292L81.8183 34.365L81.6724 35.8501Z" fill="black"/>
<path d="M65.6812 11.5289H58.892V29.2836H65.6812V11.5289Z" fill="#455A64"/>
<g opacity="0.3">
<path d="M62.2866 11.5289H58.892V29.2836H62.2866V11.5289Z" fill="black"/>
</g>
<path d="M62.0629 9.41937H59.666V11.5305H62.0629V9.41937Z" fill="#455A64"/>
<g opacity="0.3">
<path d="M62.0629 9.41937H59.666V11.5305H62.0629V9.41937Z" fill="black"/>
</g>
<path d="M62.0629 9.41937H61.4919V11.5305H62.0629V9.41937Z" fill="#455A64"/>
<path d="M65.8795 11.4069H58.3257V11.5305H65.8795V11.4069Z" fill="#455A64"/>
<path d="M60.805 12.4498H60.2308V13.6607H60.805V12.4498Z" fill="white"/>
<path d="M62.285 14.1362C62.285 14.1489 61.5252 14.16 60.5877 14.16C59.6502 14.16 58.8904 14.1489 58.8904 14.1362C58.8904 14.1235 59.6502 14.1124 60.5877 14.1124C61.5252 14.1124 62.285 14.1235 62.285 14.1362Z" fill="#263238"/>
<path d="M64.2297 12.4498H63.6555V13.6607H64.2297V12.4498Z" fill="#F5F5F5"/>
<path d="M65.7097 14.1362C65.7097 14.1489 64.9499 14.16 64.0124 14.16C63.075 14.16 62.3151 14.1489 62.3151 14.1362C62.3151 14.1235 63.075 14.1124 64.0124 14.1124C64.9499 14.1124 65.7097 14.1235 65.7097 14.1362Z" fill="#263238"/>
<path d="M64.2297 14.8526H63.6555V16.0635H64.2297V14.8526Z" fill="#F5F5F5"/>
<path d="M65.7097 16.539C65.7097 16.5517 64.9499 16.5627 64.0124 16.5627C63.075 16.5627 62.3151 16.5517 62.3151 16.539C62.3151 16.5263 63.075 16.5152 64.0124 16.5152C64.9499 16.5152 65.7097 16.5263 65.7097 16.539Z" fill="#263238"/>
<path d="M64.2297 17.3299H63.6555V18.5408H64.2297V17.3299Z" fill="#F5F5F5"/>
<path d="M65.7097 19.0147C65.7097 19.0274 64.9499 19.0385 64.0124 19.0385C63.075 19.0385 62.3151 19.0274 62.3151 19.0147C62.3151 19.002 63.075 18.9909 64.0124 18.9909C64.9499 18.9909 65.7097 19.002 65.7097 19.0147Z" fill="#263238"/>
<path d="M64.2297 19.8056H63.6555V21.0165H64.2297V19.8056Z" fill="#F5F5F5"/>
<path d="M65.7097 21.492C65.7097 21.5047 64.9499 21.5157 64.0124 21.5157C63.075 21.5157 62.3151 21.5047 62.3151 21.492C62.3151 21.4793 63.075 21.4682 64.0124 21.4682C64.9499 21.4682 65.7097 21.4793 65.7097 21.492Z" fill="#263238"/>
<path d="M64.2297 22.2115H63.6555V23.4225H64.2297V22.2115Z" fill="#F5F5F5"/>
<path d="M65.7097 23.8963C65.7097 23.909 64.9499 23.9201 64.0124 23.9201C63.075 23.9201 62.3151 23.909 62.3151 23.8963C62.3151 23.8837 63.075 23.8726 64.0124 23.8726C64.9499 23.8726 65.7097 23.8837 65.7097 23.8963Z" fill="#EBEBEB"/>
<path d="M64.2297 24.6254H63.6555V25.8363H64.2297V24.6254Z" fill="#F5F5F5"/>
<path d="M64.2297 27.0726H63.6555V28.2835H64.2297V27.0726Z" fill="#F5F5F5"/>
<path d="M65.7097 26.3118C65.7097 26.3245 64.9499 26.3356 64.0124 26.3356C63.075 26.3356 62.3151 26.3245 62.3151 26.3118C62.3151 26.2991 63.075 26.288 64.0124 26.288C64.9499 26.288 65.7097 26.2991 65.7097 26.3118Z" fill="#EBEBEB"/>
<path d="M60.805 14.8906H60.2308V16.1015H60.805V14.8906Z" fill="white"/>
<path d="M62.285 16.5755C62.285 16.5882 61.5252 16.5992 60.5877 16.5992C59.6502 16.5992 58.8904 16.5882 58.8904 16.5755C58.8904 16.5628 59.6502 16.5517 60.5877 16.5517C61.5252 16.5517 62.285 16.5628 62.285 16.5755Z" fill="#263238"/>
<path d="M60.805 17.3299H60.2308V18.5408H60.805V17.3299Z" fill="white"/>
<path d="M62.285 19.0163C62.285 19.0289 61.5252 19.04 60.5877 19.04C59.6502 19.04 58.8904 19.0289 58.8904 19.0163C58.8904 19.0036 59.6502 18.9925 60.5877 18.9925C61.5252 18.9925 62.285 19.0036 62.285 19.0163Z" fill="#263238"/>
<path d="M60.805 19.7707H60.2308V20.9816H60.805V19.7707Z" fill="white"/>
<path d="M62.285 21.4571C62.285 21.4698 61.5252 21.4809 60.5877 21.4809C59.6502 21.4809 58.8904 21.4698 58.8904 21.4571C58.8904 21.4444 59.6502 21.4333 60.5877 21.4333C61.5252 21.4333 62.285 21.4444 62.285 21.4571Z" fill="#263238"/>
<path d="M60.805 22.2115H60.2308V23.4225H60.805V22.2115Z" fill="white"/>
<path d="M62.285 23.8963C62.285 23.909 61.5252 23.9201 60.5877 23.9201C59.6502 23.9201 58.8904 23.909 58.8904 23.8963C58.8904 23.8837 59.6502 23.8726 60.5877 23.8726C61.5252 23.8726 62.285 23.8837 62.285 23.8963Z" fill="#E0E0E0"/>
<path d="M60.805 24.6508H60.2308V25.8617H60.805V24.6508Z" fill="white"/>
<path d="M62.285 26.3372C62.285 26.3499 61.5252 26.361 60.5877 26.361C59.6502 26.361 58.8904 26.3499 58.8904 26.3372C58.8904 26.3245 59.6502 26.3134 60.5877 26.3134C61.5252 26.3134 62.285 26.3245 62.285 26.3372Z" fill="#E0E0E0"/>
<path d="M60.805 27.0916H60.2308V28.3025H60.805V27.0916Z" fill="white"/>
<path d="M63.0813 23.543H56.4158V36.1814H63.0813V23.543Z" fill="#455A64"/>
<g opacity="0.3">
<path d="M59.9563 23.543H56.4158V36.1814H59.9563V23.543Z" fill="black"/>
</g>
<path d="M58.4129 24.7317H57.8133V26.1867H58.4129V24.7317Z" fill="#F5F5F5"/>
<path d="M58.4129 30.4249H57.8133V31.8799H58.4129V30.4249Z" fill="#F5F5F5"/>
<path d="M59.9547 26.7572C59.9547 26.7699 59.1616 26.7794 58.1845 26.7794C57.2073 26.7794 56.4142 26.7699 56.4142 26.7572C56.4142 26.7446 57.2057 26.735 58.1845 26.735C59.1632 26.735 59.9547 26.7446 59.9547 26.7572Z" fill="#263238"/>
<path d="M58.4129 27.6005H57.8133V29.0555H58.4129V27.6005Z" fill="#F5F5F5"/>
<path d="M59.9547 29.626C59.9547 29.6387 59.1616 29.6482 58.1845 29.6482C57.2073 29.6482 56.4142 29.6387 56.4142 29.626C56.4142 29.6133 57.2057 29.6038 58.1845 29.6038C59.1632 29.6038 59.9547 29.6133 59.9547 29.626Z" fill="#263238"/>
<path d="M61.2174 24.7317H60.6178V26.1867H61.2174V24.7317Z" fill="#E0E0E0"/>
<path d="M62.5182 24.7317H61.9185V26.1867H62.5182V24.7317Z" fill="#E0E0E0"/>
<path d="M61.2174 27.4927H60.6178V28.9477H61.2174V27.4927Z" fill="#E0E0E0"/>
<path d="M62.5182 27.4927H61.9185V28.9477H62.5182V27.4927Z" fill="#E0E0E0"/>
<path d="M61.2174 30.2521H60.6178V31.7071H61.2174V30.2521Z" fill="#E0E0E0"/>
<path d="M62.5182 30.2521H61.9185V31.7071H62.5182V30.2521Z" fill="#E0E0E0"/>
<path d="M63.5811 23.2371H56.4159V23.5541H63.5811V23.2371Z" fill="#455A64"/>
<path d="M63.1257 23.5826C63.1257 23.5952 61.6362 23.6047 59.7993 23.6047C57.9624 23.6047 56.4729 23.5952 56.4729 23.5826C56.4729 23.5699 57.9624 23.5604 59.7993 23.5604C61.6362 23.5604 63.1257 23.5699 63.1257 23.5826Z" fill="#263238"/>
<path d="M67.3848 18.3792H64.0552V21.3097H67.3848V18.3792Z" fill="#455A64"/>
<g opacity="0.3">
<path d="M67.3848 18.3792H64.0552V21.3097H67.3848V18.3792Z" fill="black"/>
</g>
<path d="M72.4466 36.1972H63.0194L62.9782 21.3098H72.4054L72.4466 36.1972Z" fill="#455A64"/>
<g opacity="0.3">
<path d="M67.6926 21.3098H62.9782V36.1972H67.6926V21.3098Z" fill="black"/>
</g>
<path d="M67.3833 18.3792H66.5901V21.3097H67.3833V18.3792Z" fill="#455A64"/>
<path d="M72.6814 21.1385H62.7244V21.3097H72.6814V21.1385Z" fill="#455A64"/>
<path d="M65.6368 22.5888H64.8389V24.2704H65.6368V22.5888Z" fill="white"/>
<path d="M67.6926 24.9298C67.6926 24.9472 66.6377 24.9615 65.3354 24.9615C64.0331 24.9615 62.9782 24.9472 62.9782 24.9298C62.9782 24.9123 64.0331 24.8981 65.3354 24.8981C66.6377 24.8981 67.6926 24.9123 67.6926 24.9298Z" fill="#263238"/>
<path d="M70.3924 22.5888H69.5945V24.2704H70.3924V22.5888Z" fill="#F5F5F5"/>
<path d="M72.4466 24.9298C72.4466 24.9472 71.3918 24.9615 70.0894 24.9615C68.7871 24.9615 67.7322 24.9472 67.7322 24.9298C67.7322 24.9123 68.7871 24.8981 70.0894 24.8981C71.3918 24.8981 72.4466 24.9123 72.4466 24.9298Z" fill="#263238"/>
<path d="M70.3924 25.9267H69.5945V27.6083H70.3924V25.9267Z" fill="#F5F5F5"/>
<path d="M72.4466 28.2677C72.4466 28.2851 71.3918 28.2994 70.0894 28.2994C68.7871 28.2994 67.7322 28.2851 67.7322 28.2677C67.7322 28.2502 68.7871 28.236 70.0894 28.236C71.3918 28.236 72.4466 28.2502 72.4466 28.2677Z" fill="#263238"/>
<path d="M70.3924 29.3645H69.5945V31.0461H70.3924V29.3645Z" fill="#F5F5F5"/>
<path d="M72.4466 31.7055C72.4466 31.7229 71.3918 31.7372 70.0894 31.7372C68.7871 31.7372 67.7322 31.7229 67.7322 31.7055C67.7322 31.688 68.7871 31.6738 70.0894 31.6738C71.3918 31.6738 72.4466 31.688 72.4466 31.7055Z" fill="#263238"/>
<path d="M70.3924 32.8038H69.5945V34.4855H70.3924V32.8038Z" fill="#F5F5F5"/>
<path d="M72.4466 35.1448C72.4466 35.1622 71.3918 35.1765 70.0894 35.1765C68.7871 35.1765 67.7322 35.1622 67.7322 35.1448C67.7322 35.1274 68.7871 35.1131 70.0894 35.1131C71.3918 35.1131 72.4466 35.1274 72.4466 35.1448Z" fill="#263238"/>
<path d="M65.6368 25.9774H64.8389V27.6591H65.6368V25.9774Z" fill="white"/>
<path d="M67.6926 28.3184C67.6926 28.3358 66.6377 28.3501 65.3354 28.3501C64.0331 28.3501 62.9782 28.3358 62.9782 28.3184C62.9782 28.3009 64.0331 28.2867 65.3354 28.2867C66.6377 28.2867 67.6926 28.3009 67.6926 28.3184Z" fill="#263238"/>
<path d="M65.6368 29.3661H64.8389V31.0477H65.6368V29.3661Z" fill="white"/>
<path d="M67.6926 31.7071C67.6926 31.7245 66.6377 31.7388 65.3354 31.7388C64.0331 31.7388 62.9782 31.7245 62.9782 31.7071C62.9782 31.6896 64.0331 31.6754 65.3354 31.6754C66.6377 31.6754 67.6926 31.6896 67.6926 31.7071Z" fill="#263238"/>
<path d="M65.6368 32.7547H64.8389V34.4363H65.6368V32.7547Z" fill="white"/>
<path d="M67.6926 35.0957C67.6926 35.1131 66.6377 35.1274 65.3354 35.1274C64.0331 35.1274 62.9782 35.1131 62.9782 35.0957C62.9782 35.0782 64.0331 35.064 65.3354 35.064C66.6377 35.064 67.6926 35.0782 67.6926 35.0957Z" fill="#263238"/>
<path d="M102.01 0.890747H46.0574V1.87976H102.01V0.890747Z" fill="#455A64"/>
<path d="M46.7236 1.38523C46.7236 1.91619 46.2938 2.34571 45.7624 2.34571C45.231 2.34571 44.8011 1.91619 44.8011 1.38523C44.8011 0.854267 45.231 0.424744 45.7624 0.424744C46.2938 0.424744 46.7236 0.854267 46.7236 1.38523Z" fill="#455A64"/>
<path d="M103.203 1.25528C103.203 1.78624 102.773 2.21577 102.242 2.21577C101.71 2.21577 101.28 1.78624 101.28 1.25528C101.28 0.724323 101.71 0.2948 102.242 0.2948C102.773 0.2948 103.203 0.724323 103.203 1.25528Z" fill="#455A64"/>
<path d="M48.6668 3.16201C48.4781 3.16201 48.3258 3.00986 48.3258 2.82125V0.508795C48.3258 0.320186 48.4781 0.16803 48.6668 0.16803C48.8556 0.16803 49.0079 0.320186 49.0079 0.508795V2.82125C49.0079 3.00986 48.8556 3.16201 48.6668 3.16201Z" fill="#A23E2E"/>
<path d="M49.939 3.16201C49.7502 3.16201 49.598 3.00986 49.598 2.82125V0.508795C49.598 0.320186 49.7502 0.16803 49.939 0.16803C50.1278 0.16803 50.2801 0.320186 50.2801 0.508795V2.82125C50.2801 3.00986 50.1278 3.16201 49.939 3.16201Z" fill="#A23E2E"/>
<path d="M51.3143 3.16201C51.1255 3.16201 50.9733 3.00986 50.9733 2.82125V0.508795C50.9733 0.320186 51.1255 0.16803 51.3143 0.16803C51.5031 0.16803 51.6554 0.320186 51.6554 0.508795V2.82125C51.6554 3.00986 51.5031 3.16201 51.3143 3.16201Z" fill="#A23E2E"/>
<path d="M52.6706 3.16201C52.4818 3.16201 52.3295 3.00986 52.3295 2.82125V0.508795C52.3295 0.320186 52.4818 0.16803 52.6706 0.16803C52.8593 0.16803 53.0116 0.320186 53.0116 0.508795V2.82125C53.0116 3.00986 52.8593 3.16201 52.6706 3.16201Z" fill="#A23E2E"/>
<path d="M47.3661 2.62634V45.0223C47.3661 45.0223 48.5558 43.4136 49.6123 44.8226C49.6123 44.8226 50.2293 45.9368 51.3254 45.0508C51.5316 44.8844 51.7823 44.55 52.0123 44.4169C52.4596 44.1585 53.0434 44.0507 53.6239 45.0223C53.7699 45.2664 53.8238 2.62634 53.8238 2.62634H47.3645H47.3661Z" fill="#E0E0E0"/>
<path d="M47.3661 2.62632C47.3661 2.62632 47.5057 2.62315 47.7833 2.62156C48.0624 2.62156 48.4765 2.61839 49.0206 2.61681C50.1151 2.61364 51.7315 2.61047 53.8254 2.60571H53.846V2.62632C53.8412 6.7583 53.8349 12.8651 53.8254 20.2589C53.8143 23.9566 53.8032 27.9745 53.7905 32.2285C53.7794 34.3555 53.7683 36.5412 53.7572 38.7744C53.7477 39.8918 53.7397 41.0203 53.7302 42.1599C53.7223 42.7304 53.7159 43.3026 53.708 43.8764C53.7016 44.1632 53.6953 44.4517 53.6874 44.7418C53.6842 44.8147 53.6826 44.886 53.6763 44.9605C53.6763 44.9795 53.6731 44.9969 53.6699 45.0191C53.6604 45.0302 53.6874 45.0191 53.6414 45.0619C53.5351 45.0255 53.6081 45.0461 53.5827 45.035L53.5684 45.0128L53.5113 44.9224C53.4336 44.8036 53.3447 44.691 53.2448 44.5912C53.1195 44.4644 52.9704 44.3614 52.8022 44.3138C52.6357 44.2615 52.4548 44.2805 52.2899 44.336C52.1233 44.3978 51.9663 44.4802 51.8394 44.6054C51.7077 44.7259 51.5887 44.8622 51.4571 44.9906C51.392 45.0572 51.3175 45.1126 51.2413 45.1649C51.1684 45.222 51.0875 45.2664 51.005 45.3092C50.84 45.3884 50.656 45.4486 50.4657 45.4344C50.2769 45.4265 50.096 45.3551 49.9454 45.2489C49.7931 45.1412 49.6709 45.0033 49.5742 44.8464L49.5773 44.8511C49.5012 44.7687 49.4346 44.6768 49.3521 44.6007C49.2664 44.531 49.1855 44.4517 49.084 44.4073C48.8921 44.3027 48.6668 44.2615 48.4527 44.3091C48.2385 44.3534 48.0402 44.4612 47.8657 44.5912C47.6897 44.7227 47.531 44.8797 47.3978 45.0492L47.3232 45.1443V45.0255C47.3312 33.0194 47.3375 22.4161 47.3407 14.8115C47.3455 11.0155 47.3502 7.96762 47.3534 5.86914C47.3566 4.82307 47.3581 4.01157 47.3581 3.46159C47.3581 3.18898 47.3597 2.98135 47.3613 2.8387C47.3613 2.69923 47.3645 2.62949 47.3645 2.62949C47.3645 2.62949 47.3661 2.7024 47.3677 2.84504C47.3677 2.98769 47.3677 3.1969 47.3708 3.47268C47.3708 4.02425 47.374 4.83733 47.3756 5.88816C47.3788 7.98981 47.3819 11.0408 47.3883 14.84C47.393 22.4367 47.3994 33.0289 47.4057 45.0239L47.3328 45.0001C47.4724 44.821 47.6342 44.6625 47.8182 44.5246C48.0006 44.3883 48.2084 44.2758 48.4384 44.2266C48.6684 44.1759 48.919 44.2203 49.1237 44.3328C49.2331 44.382 49.3188 44.4644 49.4092 44.5373C49.4949 44.6165 49.5646 44.7116 49.644 44.7972L49.6471 44.802C49.8232 45.0889 50.123 45.3345 50.4704 45.3488C50.8178 45.3662 51.1398 45.1586 51.4 44.9288C51.5285 44.8052 51.6474 44.6673 51.7838 44.5421C51.8521 44.4802 51.9234 44.4184 52.0091 44.3725C52.09 44.3265 52.1757 44.2869 52.2629 44.2552C52.4406 44.1949 52.6404 44.1743 52.826 44.2314C53.0116 44.2853 53.1718 44.3978 53.3035 44.5294C53.4082 44.6356 53.5002 44.7513 53.5795 44.8749L53.6382 44.9668L53.6525 44.9906C53.6398 45.0033 53.6937 44.9795 53.6239 45.0207C53.597 45.0049 53.5763 45.0049 53.5874 45.0033C53.589 44.989 53.5906 44.9716 53.5922 44.9541L53.6017 44.7402C53.6081 44.4517 53.6144 44.1648 53.6223 43.8764C53.6303 43.301 53.6366 42.7289 53.6445 42.1599C53.6541 41.0203 53.6636 39.8918 53.6731 38.7744C53.6858 36.5412 53.6969 34.3555 53.708 32.2285C53.7239 27.9745 53.7381 23.9566 53.7524 20.2605C53.773 12.8683 53.7905 6.76147 53.8032 2.6279L53.8238 2.64851C51.7347 2.64375 50.123 2.639 49.0317 2.63741C48.486 2.63583 48.0704 2.63424 47.7896 2.63266C47.5104 2.63266 47.3645 2.6279 47.3645 2.6279L47.3661 2.62632Z" fill="#263238"/>
<path d="M49.4171 3.85944C49.4393 3.85944 49.4584 12.9507 49.4584 24.1627C49.4584 35.3747 49.4393 44.4676 49.4171 44.4676C49.3949 44.4676 49.3759 35.3779 49.3759 24.1627C49.3759 12.9476 49.3949 3.85944 49.4171 3.85944Z" fill="#263238"/>
<path d="M51.7743 3.85944C51.7965 3.85944 51.8156 12.9507 51.8156 24.1627C51.8156 35.3747 51.7965 44.4676 51.7743 44.4676C51.7521 44.4676 51.7331 35.3779 51.7331 24.1627C51.7331 12.9476 51.7521 3.85944 51.7743 3.85944Z" fill="#263238"/>
<path d="M96.0314 2.99398C95.8426 2.99398 95.6903 2.84183 95.6903 2.65322V0.340766C95.6903 0.152156 95.8426 0 96.0314 0C96.2201 0 96.3724 0.152156 96.3724 0.340766V2.65322C96.3724 2.84183 96.2201 2.99398 96.0314 2.99398Z" fill="#A23E2E"/>
<path d="M97.302 2.99398C97.1132 2.99398 96.9609 2.84183 96.9609 2.65322V0.340766C96.9609 0.152156 97.1132 0 97.302 0C97.4907 0 97.643 0.152156 97.643 0.340766V2.65322C97.643 2.84183 97.4907 2.99398 97.302 2.99398Z" fill="#A23E2E"/>
<path d="M98.6788 2.99398C98.4901 2.99398 98.3378 2.84183 98.3378 2.65322V0.340766C98.3378 0.152156 98.4901 0 98.6788 0C98.8676 0 99.0199 0.152156 99.0199 0.340766V2.65322C99.0199 2.84183 98.8676 2.99398 98.6788 2.99398Z" fill="#A23E2E"/>
<path d="M100.034 2.99398C99.8447 2.99398 99.6925 2.84183 99.6925 2.65322V0.340766C99.6925 0.152156 99.8447 0 100.034 0C100.222 0 100.375 0.152156 100.375 0.340766V2.65322C100.375 2.84183 100.222 2.99398 100.034 2.99398Z" fill="#A23E2E"/>
<path d="M94.7306 2.45831V44.8543C94.7306 44.8543 95.9203 43.2456 96.9768 44.6546C96.9768 44.6546 97.5938 45.7688 98.6899 44.8828C98.8962 44.7164 99.1468 44.382 99.3768 44.2488C99.8241 43.9905 100.408 43.8827 100.988 44.8543C101.134 45.0984 101.188 2.45831 101.188 2.45831H94.729H94.7306Z" fill="#E0E0E0"/>
<path d="M94.7306 2.45829C94.7306 2.45829 94.8702 2.45512 95.1478 2.45353C95.427 2.45353 95.841 2.45036 96.3851 2.44878C97.4796 2.44561 99.096 2.44244 101.19 2.43768H101.211V2.45829C101.206 6.59027 101.199 12.6971 101.19 20.0909C101.179 23.7886 101.168 27.8065 101.155 32.0605C101.144 34.1875 101.133 36.3732 101.122 38.6064C101.112 39.7238 101.104 40.8523 101.095 41.9918C101.087 42.5624 101.08 43.1346 101.073 43.7083C101.066 43.9952 101.06 44.2837 101.052 44.5737C101.049 44.6466 101.047 44.718 101.041 44.7924C101.041 44.8115 101.038 44.8289 101.034 44.8511C101.025 44.8622 101.052 44.8511 101.006 44.8939C100.9 44.8574 100.973 44.878 100.947 44.8669L100.933 44.8448L100.876 44.7544C100.798 44.6355 100.709 44.523 100.609 44.4232C100.484 44.2964 100.335 44.1933 100.167 44.1458C100 44.0935 99.8194 44.1125 99.6544 44.168C99.4878 44.2298 99.3308 44.3122 99.2039 44.4374C99.0722 44.5579 98.9533 44.6942 98.8216 44.8226C98.7566 44.8891 98.682 44.9446 98.6059 44.9969C98.5329 45.054 98.452 45.0983 98.3695 45.1411C98.2045 45.2204 98.0205 45.2806 97.8302 45.2664C97.6414 45.2584 97.4606 45.1871 97.3099 45.0809C97.1576 44.9731 97.0355 44.8352 96.9387 44.6783L96.9419 44.6831C96.8657 44.6007 96.7991 44.5087 96.7166 44.4327C96.631 44.3629 96.5501 44.2837 96.4485 44.2393C96.2566 44.1347 96.0313 44.0935 95.8172 44.141C95.6031 44.1854 95.4048 44.2932 95.2303 44.4232C95.0542 44.5547 94.8956 44.7116 94.7623 44.8812L94.6878 44.9763V44.8574C94.6957 32.8514 94.7021 22.248 94.7052 14.6434C94.71 10.8475 94.7147 7.79959 94.7179 5.70111C94.7211 4.65345 94.7227 3.84354 94.7227 3.29356C94.7227 3.02095 94.7243 2.81332 94.7258 2.67067C94.7258 2.5312 94.729 2.46146 94.729 2.46146C94.729 2.46146 94.7306 2.53437 94.7322 2.67701C94.7322 2.81966 94.7322 3.02887 94.7354 3.30465C94.7354 3.85622 94.7385 4.6693 94.7401 5.72013C94.7433 7.82178 94.7465 10.8728 94.7512 14.672C94.756 22.2686 94.7623 32.8609 94.7687 44.8559L94.6957 44.8321C94.8353 44.653 94.9971 44.4945 95.1811 44.3566C95.3635 44.2203 95.5713 44.1077 95.8013 44.0586C96.0314 44.0079 96.282 44.0523 96.4866 44.1648C96.5961 44.2139 96.6817 44.2964 96.7721 44.3693C96.8578 44.4485 96.9276 44.5436 97.0069 44.6292L97.0101 44.634C97.1862 44.9208 97.486 45.1665 97.8334 45.1808C98.1807 45.1982 98.5028 44.9906 98.7629 44.7608C98.8914 44.6371 99.0104 44.4992 99.1468 44.374C99.215 44.3122 99.2864 44.2504 99.372 44.2044C99.4529 44.1585 99.5386 44.1188 99.6258 44.0871C99.8035 44.0269 100.003 44.0063 100.189 44.0634C100.375 44.1173 100.535 44.2298 100.666 44.3613C100.771 44.4675 100.863 44.5832 100.942 44.7069L101.001 44.7988L101.015 44.8226C101.003 44.8352 101.057 44.8115 100.987 44.8527C100.96 44.8368 100.939 44.8368 100.95 44.8352C100.952 44.821 100.954 44.8035 100.955 44.7861L100.965 44.5721C100.971 44.2837 100.977 43.9952 100.985 43.7083C100.993 43.133 101 42.5608 101.007 41.9918C101.017 40.8523 101.027 39.7238 101.036 38.6064C101.049 36.3732 101.06 34.1875 101.071 32.0605C101.087 27.8065 101.101 23.7886 101.115 20.0925C101.136 12.7003 101.153 6.59344 101.166 2.45987L101.187 2.48048C99.0976 2.47572 97.486 2.47097 96.3946 2.46938C95.8489 2.4678 95.4333 2.46621 95.1526 2.46463C94.8734 2.46463 94.7274 2.45987 94.7274 2.45987L94.7306 2.45829Z" fill="#263238"/>
<path d="M96.7817 3.69141C96.8039 3.69141 96.8229 12.7827 96.8229 23.9947C96.8229 35.2067 96.8039 44.2996 96.7817 44.2996C96.7595 44.2996 96.7404 35.2098 96.7404 23.9947C96.7404 12.7795 96.7595 3.69141 96.7817 3.69141Z" fill="#263238"/>
<path d="M99.1389 3.69141C99.1611 3.69141 99.1801 12.7827 99.1801 23.9947C99.1801 35.2067 99.1611 44.2996 99.1389 44.2996C99.1166 44.2996 99.0976 35.2098 99.0976 23.9947C99.0976 12.7795 99.1166 3.69141 99.1389 3.69141Z" fill="#263238"/>
<path d="M63.1828 66.1227L66.6345 68.3385C66.6345 68.3385 65.4813 72.5228 66.0793 72.9951L70.6779 66.5269L65.4417 62.8546L63.1828 66.1243V66.1227Z" fill="#455A64"/>
<path d="M67.737 66.1734C67.8607 66.0704 68.0653 66.0815 68.1732 66.2004C68.2811 66.3193 68.2716 66.5269 68.1494 66.6331C68.0273 66.7377 67.7814 66.7329 67.6878 66.6014C67.5942 66.4714 67.618 66.2273 67.7624 66.1544" fill="#E0E0E0"/>
<path d="M70.6779 66.5253L70.2607 66.2321L65.9239 72.5989C65.9239 72.5989 65.908 72.8953 66.092 73.049L70.6779 66.5237V66.5253Z" fill="#263238"/>
<path d="M66.6155 68.413C66.6488 68.4336 66.7741 68.283 66.9883 68.1974C67.1992 68.1055 67.3959 68.1213 67.4023 68.0817C67.4166 68.0484 67.1913 67.9629 66.9343 68.0706C66.6773 68.1768 66.5806 68.3987 66.6155 68.4114V68.413Z" fill="#263238"/>
<path d="M66.422 69.3006C66.4474 69.3291 66.5996 69.2277 66.8106 69.2134C67.0216 69.1928 67.1881 69.2673 67.2088 69.234C67.2341 69.2071 67.0612 69.0549 66.7995 69.0771C66.5362 69.0977 66.3918 69.2784 66.422 69.3006Z" fill="#263238"/>
<path d="M66.9756 70.2658C67.0025 70.242 66.8725 70.0851 66.6393 70.0455C66.4061 70.0043 66.2316 70.1073 66.2491 70.139C66.2633 70.1754 66.4251 70.1437 66.6171 70.1786C66.809 70.2103 66.9502 70.2943 66.9756 70.2642V70.2658Z" fill="#263238"/>
<path d="M65.8795 67.8155C65.9175 67.8218 65.9762 67.6443 66.1142 67.4715C66.2491 67.2956 66.4077 67.1973 66.3918 67.1609C66.3807 67.126 66.1666 67.1815 66.0064 67.3875C65.8446 67.592 65.8414 67.8139 65.8779 67.8155H65.8795Z" fill="#263238"/>
<path d="M65.0721 67.4303C65.0848 67.4398 65.1926 67.3273 65.2989 67.0991C65.3512 66.9865 65.4004 66.8439 65.4321 66.6806C65.448 66.5998 65.4591 66.5126 65.4639 66.4223C65.4639 66.3779 65.4702 66.3288 65.4559 66.2685C65.4464 66.2099 65.3766 66.1306 65.2957 66.1354C65.2212 66.1354 65.1577 66.1782 65.1244 66.2257C65.0895 66.2733 65.0721 66.3193 65.0562 66.3605C65.0229 66.4461 64.9991 66.5316 64.9848 66.6141C64.9547 66.7789 64.9563 66.931 64.9737 67.0563C65.0086 67.3067 65.0927 67.443 65.107 67.4351C65.1276 67.4271 65.0784 67.2845 65.0705 67.0467C65.0657 66.9295 65.0752 66.7884 65.1086 66.6378C65.126 66.5633 65.1498 66.4857 65.1815 66.408C65.2117 66.3256 65.2529 66.2654 65.2957 66.2701C65.3116 66.2717 65.3179 66.2749 65.3275 66.3034C65.3354 66.3319 65.3338 66.3731 65.3338 66.4159C65.3322 66.4999 65.3243 66.5824 65.3132 66.6584C65.291 66.8122 65.2529 66.9501 65.2132 67.0626C65.1355 67.2877 65.0578 67.4176 65.0752 67.4287L65.0721 67.4303Z" fill="#263238"/>
<path d="M43.5114 64.5774L44.3252 68.5953C44.3252 68.5953 40.5165 70.6827 40.5959 71.4403L48.4431 70.2326L47.4327 63.9197L43.5114 64.5774Z" fill="#455A64"/>
<path d="M46.6459 67.8789C46.8061 67.8948 46.9394 68.0501 46.9299 68.2102C46.9203 68.3702 46.7633 68.5081 46.6031 68.4939C46.4429 68.4796 46.2763 68.2989 46.3033 68.1404C46.3318 67.9819 46.5238 67.8298 46.676 67.8821" fill="#E0E0E0"/>
<path d="M48.4416 70.2325L48.3607 69.7301L40.7672 71.0551C40.7672 71.0551 40.5435 71.2501 40.561 71.4894L48.4416 70.2325Z" fill="#263238"/>
<path d="M44.257 68.6333C44.2649 68.6713 44.46 68.6571 44.671 68.7506C44.8836 68.8378 45.0089 68.9883 45.0422 68.9677C45.0771 68.9551 44.9803 68.7332 44.7234 68.6254C44.468 68.516 44.2411 68.6 44.2554 68.6333H44.257Z" fill="#263238"/>
<path d="M43.4845 69.1136C43.4813 69.1532 43.6606 69.1912 43.8176 69.3323C43.9794 69.4686 44.0428 69.6398 44.0809 69.6319C44.119 69.6319 44.1079 69.402 43.908 69.2293C43.7097 69.0549 43.4797 69.0771 43.4845 69.1136Z" fill="#263238"/>
<path d="M43.1767 70.1834C43.2132 70.1866 43.2354 69.9837 43.1006 69.7888C42.9673 69.5922 42.7722 69.5399 42.7611 69.5748C42.7453 69.6097 42.8801 69.7048 42.988 69.8664C43.099 70.0249 43.1371 70.1866 43.1767 70.1834Z" fill="#263238"/>
<path d="M44.1729 67.6903C44.1951 67.722 44.3633 67.6395 44.5838 67.6189C44.8043 67.5936 44.9867 67.638 45.001 67.6015C45.0184 67.5698 44.8296 67.4541 44.5695 67.4826C44.3093 67.5096 44.1491 67.6617 44.1729 67.6887V67.6903Z" fill="#263238"/>
<path d="M43.8874 66.8424C43.889 66.8582 44.046 66.8566 44.284 66.7742C44.4013 66.733 44.5378 66.6696 44.6774 66.5792C44.7471 66.5333 44.8169 66.481 44.8852 66.4208C44.9185 66.3906 44.9565 66.3605 44.9898 66.3082C45.0263 66.2607 45.0327 66.1545 44.974 66.1006C44.9232 66.0467 44.8471 66.0324 44.79 66.0404C44.7313 66.0483 44.6869 66.0673 44.644 66.0847C44.56 66.1212 44.4822 66.164 44.4124 66.2099C44.2729 66.3035 44.165 66.4112 44.0873 66.5095C43.9318 66.7092 43.8937 66.8645 43.908 66.8693C43.927 66.8788 43.9968 66.7441 44.1602 66.5729C44.2411 66.4873 44.349 66.3954 44.4807 66.3161C44.5473 66.2765 44.6187 66.2401 44.6964 66.2084C44.7773 66.1719 44.8471 66.1608 44.8756 66.1941C44.8852 66.2068 44.8883 66.2131 44.8756 66.2401C44.8614 66.2654 44.8312 66.294 44.7995 66.3225C44.7376 66.3795 44.6726 66.4303 44.6107 66.4762C44.4838 66.5682 44.3601 66.6363 44.2522 66.6854C44.0365 66.7853 43.889 66.8217 43.8921 66.8424H43.8874Z" fill="#263238"/>
<path d="M52.4152 22.9597C52.1138 22.603 51.7157 22.2876 51.2509 22.248C50.6719 22.1989 50.1516 22.5793 49.7011 22.947C48.0561 24.2863 46.4826 25.7143 44.993 27.2248L53.1259 26.7525C53.5653 25.4813 53.2845 23.9883 52.4168 22.9612L52.4152 22.9597Z" fill="#455A64"/>
<path d="M49.8423 22.9866C49.8423 22.9866 49.8613 22.9628 49.9041 22.9248C49.9454 22.8852 50.012 22.8329 50.0992 22.7679C50.2769 22.6474 50.5497 22.4667 50.9416 22.3954C51.0383 22.3811 51.1462 22.3716 51.2572 22.4113C51.3127 22.4287 51.3683 22.4826 51.3841 22.5428C51.4016 22.5999 51.4079 22.6601 51.4047 22.7203C51.3873 22.966 51.2398 23.1815 51.0923 23.3876C50.7988 23.8108 50.4181 24.2355 49.9739 24.6286C49.0777 25.4132 48.1323 25.9362 47.4518 26.3039C47.1091 26.4862 46.8299 26.6272 46.6348 26.7223C46.5444 26.7651 46.4699 26.8016 46.4096 26.8301C46.3572 26.8539 46.3303 26.865 46.3287 26.8634C46.3287 26.8602 46.3525 26.8444 46.4016 26.8159C46.4603 26.7842 46.5317 26.7429 46.619 26.6938C46.8188 26.5844 47.0917 26.4355 47.4232 26.2532C48.0942 25.8728 49.0317 25.3434 49.9184 24.5668C50.3594 24.1769 50.7353 23.7601 51.0288 23.3432C51.1779 23.1403 51.3175 22.9327 51.3349 22.7156C51.3381 22.6617 51.3349 22.6094 51.3191 22.5618C51.3064 22.5159 51.2778 22.4889 51.2318 22.4699C51.143 22.4366 51.0399 22.4398 50.9479 22.4525C50.572 22.5127 50.2959 22.6823 50.1151 22.7932C49.9359 22.9121 49.8439 22.9898 49.8391 22.9834L49.8423 22.9866Z" fill="#263238"/>
<g opacity="0.3">
<path d="M51.3476 22.5333C49.5203 23.5762 47.6548 25.1437 46.4175 26.8444L47.4089 26.3134C47.9578 25.8887 48.3052 25.7825 48.5209 25.6335C49.2934 25.101 49.7836 24.7665 50.2785 24.2799C50.775 23.7949 51.4222 23.153 51.3476 22.5317V22.5333Z" fill="black"/>
</g>
<path d="M45.4102 22.668C44.9867 21.5823 44.3839 21.2194 43.8303 20.6805C43.7462 20.5996 43.1466 20.2256 43.0467 20.2858C42.9753 20.3286 42.8675 21.1671 42.8611 21.2495C42.7945 22.0451 43.6479 22.5301 44.0476 23.2212C44.4474 23.9122 44.9042 24.4875 45.4436 25.0756L46.2002 26.5749C46.3937 25.7967 45.691 23.386 45.4102 22.6664V22.668Z" fill="#263238"/>
<path d="M47.1631 28.6401L44.2475 22.3859C43.4734 20.6123 41.7935 19.5837 40.0407 20.4079L39.8837 20.4935C38.2974 21.3541 37.6391 23.2862 38.3704 24.9345C39.0509 26.4688 39.8218 28.1536 40.2596 28.9365C41.167 30.5579 42.9388 29.9255 42.9388 29.9255C42.942 29.924 43.7383 31.4471 43.9778 31.9368L46.4604 30.7355L47.033 30.3852L47.1647 28.6401H47.1631Z" fill="#F3775E"/>
<path d="M42.9357 29.9239C42.9357 29.9239 43.9985 29.4263 44.7202 28.1425C44.7202 28.1425 44.8757 29.6466 43.1657 30.3836L42.9357 29.9239Z" fill="#A23E2E"/>
<path d="M39.4776 25.9774C39.5394 26.1026 39.6981 26.1534 39.8297 26.09C39.9614 26.0266 40.0185 25.8744 39.9566 25.7492C39.8948 25.624 39.7361 25.5733 39.6045 25.6351C39.4728 25.6985 39.4157 25.8506 39.4776 25.9758V25.9774Z" fill="#263238"/>
<path d="M39.1064 25.4655C39.1524 25.4797 39.2571 25.2531 39.5093 25.1184C39.7584 24.9789 40.0122 25.009 40.0233 24.963C40.0296 24.9424 39.9693 24.9028 39.8583 24.8886C39.7473 24.8727 39.5823 24.8886 39.4268 24.9757C39.2714 25.0613 39.1714 25.1897 39.127 25.2895C39.0826 25.391 39.0858 25.4591 39.108 25.4655H39.1064Z" fill="#263238"/>
<path d="M41.8681 24.963C41.93 25.0882 42.0886 25.139 42.2203 25.0756C42.3519 25.0122 42.409 24.86 42.3472 24.7348C42.2853 24.6096 42.1267 24.5589 41.995 24.6207C41.8634 24.6841 41.8062 24.8362 41.8681 24.9614V24.963Z" fill="#263238"/>
<path d="M41.5984 24.188C41.6444 24.2023 41.7491 23.9756 42.0014 23.8409C42.2504 23.7014 42.5042 23.7315 42.5153 23.6856C42.5216 23.665 42.463 23.6254 42.3503 23.6111C42.2393 23.5952 42.0743 23.6111 41.9189 23.6983C41.7634 23.7838 41.6635 23.9122 41.6191 24.0121C41.5746 24.1135 41.5778 24.1817 41.6 24.188H41.5984Z" fill="#263238"/>
<path d="M41.7459 26.6035C41.7396 26.5892 41.5683 26.6463 41.2986 26.7509C41.2304 26.7794 41.1638 26.8 41.1289 26.762C41.0892 26.7239 41.0781 26.6399 41.0686 26.5496C41.0448 26.3626 41.0194 26.166 40.9925 25.9584C40.8783 25.1215 40.7593 24.4463 40.7244 24.4527C40.6911 24.4574 40.7561 25.1406 40.8703 25.9774C40.9005 26.1835 40.9274 26.3784 40.956 26.567C40.9718 26.6526 40.975 26.7588 41.0591 26.8365C41.1019 26.8745 41.1685 26.884 41.2145 26.8729C41.2621 26.8634 41.2986 26.8444 41.3319 26.8285C41.5937 26.7049 41.7523 26.6193 41.7459 26.6051V26.6035Z" fill="#263238"/>
<path d="M41.1384 23.5017C41.2114 23.5398 41.3954 23.3195 41.6682 23.1213C41.9379 22.9185 42.2028 22.8059 42.1869 22.7251C42.179 22.6871 42.0949 22.6665 41.9633 22.6855C41.8332 22.7045 41.6571 22.7695 41.4953 22.8899C41.3335 23.0104 41.2193 23.1594 41.1638 23.2782C41.1067 23.3987 41.1035 23.4843 41.1368 23.5033L41.1384 23.5017Z" fill="#263238"/>
<path d="M38.6337 24.6492C38.7098 24.6936 38.9113 24.5589 39.1778 24.4733C39.4411 24.3782 39.6838 24.3607 39.7155 24.2799C39.7282 24.2419 39.6727 24.1911 39.5569 24.1626C39.4411 24.1341 39.2634 24.1388 39.081 24.2007C38.8986 24.2625 38.7574 24.3687 38.6844 24.4606C38.6099 24.5541 38.5988 24.627 38.6337 24.6492Z" fill="#263238"/>
<path d="M38.1768 22.6823C37.9421 22.6712 38.2022 21.8011 38.5544 21.3731C39.0874 20.7249 40.0407 20.0196 40.7609 19.888C41.6286 19.7295 42.3963 19.7707 43.2069 20.1178C44.2697 20.5727 44.6933 21.1433 45.1231 22.0721C45.2358 22.3162 45.0105 22.8519 44.982 23.1197C44.9471 23.4494 44.7186 23.7585 44.9026 24.0992C44.9693 24.2245 44.9962 24.3703 44.955 24.505C44.8551 24.8299 44.4981 24.7459 44.2777 24.5953C43.8065 24.272 43.5178 23.7521 43.2434 23.2513C43.0483 22.8947 42.8516 22.5317 42.7818 22.1323C42.7437 21.9152 42.7453 21.6917 42.6961 21.4761C42.647 21.2606 42.5328 21.045 42.3361 20.9468C42.3043 20.9309 42.2552 20.9151 42.198 20.8992C41.7364 20.7756 41.2415 20.9119 40.9068 21.2542C40.3754 21.7963 39.4459 22.6744 39.0525 22.5983C38.4862 22.4873 38.2863 22.332 38.2863 22.332L38.1768 22.6823Z" fill="#263238"/>
<path d="M42.6279 26.3673C42.5883 26.3848 42.7152 26.6463 42.5803 26.9427C42.4471 27.2391 42.152 27.3453 42.1679 27.3817C42.1727 27.3991 42.2552 27.4023 42.3741 27.3484C42.4915 27.2961 42.6438 27.1772 42.7247 26.9966C42.8056 26.8159 42.7913 26.6352 42.7485 26.5227C42.7057 26.4085 42.6438 26.3578 42.6263 26.3673H42.6279Z" fill="#263238"/>
<path d="M43.8303 20.9816C43.8303 20.9816 41.6127 20.7439 40.5229 20.5854C39.4332 20.4269 38.2577 21.8787 38.2577 21.8787C38.226 21.9564 37.6407 23.0357 37.8913 24.1452C38.1403 25.2547 39.5299 28.702 40.2088 29.4041C40.8878 30.1062 41.6809 30.493 42.3741 30.2425L42.9372 30.084L43.9762 31.9337L46.7348 27.7161L43.8319 20.9785L43.8303 20.9816ZM40.0708 26.2421C39.871 26.3198 39.66 26.4006 39.4458 26.3673C39.2444 26.3356 39.0715 26.2072 38.9509 26.0519C38.8304 25.8966 38.7526 25.7143 38.6781 25.5352C38.6019 25.3514 38.5242 25.1675 38.4909 24.9726C38.4576 24.7776 38.4719 24.5716 38.5718 24.3988C38.6797 24.2118 38.8748 24.085 39.0699 23.9788C39.4014 23.7981 39.7536 23.6555 40.1073 23.5191C40.7561 23.2671 40.9227 23.153 41.5841 22.9359C41.7364 22.8883 42.1964 22.6855 42.3567 22.6744C42.5232 22.6617 42.7009 22.6902 42.8357 22.7837C42.9959 22.8947 43.0784 23.0785 43.1498 23.2529C43.2957 23.6079 43.4337 23.9946 43.329 24.3608C43.2608 24.5985 43.0943 24.8014 42.896 24.9583C42.6977 25.1152 42.4661 25.2309 42.2345 25.3403C41.5286 25.6731 40.7989 25.9584 40.0708 26.2437V26.2421ZM43.5067 26.9585C43.4639 27.0948 43.3608 27.2026 43.2608 27.3056C42.969 27.6036 42.6628 27.9063 42.2742 28.0616C42.1377 28.1171 41.9871 28.152 41.8443 28.1187C41.6428 28.0711 41.5001 27.9 41.37 27.7383C41.2938 27.6416 41.2129 27.5354 41.2161 27.4118C41.2209 27.2755 41.3256 27.1661 41.4271 27.0742C41.83 26.7049 42.2647 26.3673 42.7215 26.0678C42.8706 26.017 43.0372 26.0503 43.153 26.1597C43.2592 26.2595 43.3703 26.3705 43.4242 26.4608C43.513 26.6098 43.559 26.7937 43.5067 26.9601V26.9585Z" fill="#263238"/>
<path d="M43.0483 32.6897C43.0483 32.6897 42.3202 34.6218 42.2805 35.5822C42.2409 36.5427 41.6809 37.462 41.6809 37.462L40.8687 38.6539C40.8687 38.6539 37.877 37.3574 36.3399 36.5728C36.3399 36.5728 35.6547 35.9737 35.6547 35.988C35.6547 36.034 34.1239 37.993 34.1239 37.993L34.925 38.722C34.925 38.722 39.9772 43.7638 41.2066 43.6671C42.8405 43.5387 44.4426 41.3388 45.0819 40.2991C45.7227 39.2593 47.0695 36.4302 47.0695 36.4302L44.0413 32.6881H43.0483V32.6897Z" fill="#455A64"/>
<path d="M33.3546 33.1541H35.0376L35.6531 34.0575C35.6531 34.0575 35.5182 35.3382 35.4595 35.8184L35.6531 35.988L34.1223 37.993C34.1223 37.993 32.6852 36.8962 32.3409 36.3177C31.9967 35.7392 31.9063 35.5949 31.9793 35.3049C32.0522 35.0149 32.4314 34.8199 32.4314 34.8199C32.4314 34.8199 32.3949 34.2921 32.866 34.2572C32.866 34.2572 32.7216 33.6248 33.3181 33.6613C33.3181 33.6613 33.2816 33.4632 33.3546 33.1557V33.1541Z" fill="#263238"/>
<path d="M43.6764 35.0323C43.6764 35.0323 43.724 35.0798 43.7986 35.1749C43.8827 35.2827 43.9874 35.4174 44.1111 35.5759C44.376 35.9151 44.7472 36.3763 45.1786 36.8693C45.6101 37.3622 46.0194 37.7917 46.3192 38.0992C46.4604 38.2434 46.5793 38.3639 46.6761 38.4621C46.7602 38.5477 46.8046 38.5984 46.8014 38.6016C46.7982 38.6048 46.7459 38.5636 46.6539 38.4859C46.5619 38.4067 46.4334 38.2894 46.2779 38.1404C45.9654 37.844 45.5482 37.4192 45.1152 36.9247C44.6821 36.4302 44.3157 35.9611 44.0635 35.6124C43.9366 35.438 43.8367 35.2954 43.7716 35.194C43.705 35.0941 43.6717 35.037 43.6764 35.0323Z" fill="#263238"/>
<path d="M41.5112 40.8554C41.4842 40.8554 41.5207 40.3101 41.3177 39.6825C41.1225 39.0517 40.7783 38.6269 40.8005 38.6127C40.8085 38.6063 40.9036 38.7046 41.0258 38.8853C41.1495 39.066 41.2939 39.337 41.3954 39.6571C41.4969 39.9773 41.5334 40.2816 41.5381 40.5019C41.5429 40.7222 41.5207 40.8554 41.5112 40.8554Z" fill="#263238"/>
<path d="M55.0119 46.5232C55.0119 46.8164 53.4368 55.903 53.3321 57.5894C53.229 59.2758 54.0316 61.024 55.4497 61.7863C56.963 62.5994 65.9683 68.4003 65.9683 68.4003L68.684 64.9547C68.684 64.9547 63.8157 61.3283 62.6292 60.3662C61.3031 59.2916 58.7857 57.5767 58.7857 57.5767C58.7857 57.5767 61.6362 49.709 62.2152 47.9053C62.8338 45.9811 63.5699 42.7589 61.6727 40.0582L54.5408 43.7194L53.9967 45.3503L55.0135 46.5264L55.0119 46.5232Z" fill="#263238"/>
<path d="M57.193 58.2075C57.1772 58.1948 57.4453 57.9032 57.8894 57.7193C58.3304 57.5307 58.7286 57.5418 58.7254 57.5624C58.7286 57.5878 58.3463 57.6131 57.9212 57.7954C57.4944 57.9729 57.2105 58.2281 57.193 58.2075Z" fill="#455A64"/>
<path d="M52.7848 44.2107C52.7309 44.1664 42.1187 50.3287 41.6793 52.2354C41.2383 54.1421 43.4686 68.0738 43.4686 68.0738L48.283 67.1213C48.283 67.1213 47.1504 55.7556 47.2027 55.3894C47.2551 55.0233 47.6231 54.6556 47.6231 54.6556L54.3013 51.3557L55.6956 46.7356L54.4488 44.4628L52.7864 44.2107H52.7848Z" fill="#263238"/>
<path d="M45.5942 55.0772C45.5847 55.0598 45.9385 54.9124 46.4001 54.9488C46.8617 54.9805 47.1916 55.1771 47.1789 55.1929C47.1694 55.2167 46.8363 55.0598 46.3937 55.0312C45.9527 54.9964 45.6006 55.1026 45.5942 55.0772Z" fill="#455A64"/>
<path d="M46.5238 53.9012C46.5365 53.8821 46.7919 54.0391 47.0917 54.2514C47.3931 54.4638 47.6247 54.6508 47.612 54.6699C47.5993 54.6889 47.3439 54.532 47.0441 54.3196C46.7443 54.1072 46.5111 53.9202 46.5238 53.9012Z" fill="#455A64"/>
<path d="M55.031 47.0589C55.0532 47.0621 54.893 48.1192 54.6709 49.4189C54.4504 50.7186 54.2521 51.7694 54.2299 51.7646C54.2077 51.7615 54.3679 50.7043 54.59 49.4046C54.8105 48.105 55.0088 47.0542 55.031 47.0589Z" fill="#455A64"/>
<path d="M67.8496 27.5037C67.1533 26.2849 66.3633 25.0565 65.1736 24.31C63.4652 23.2354 61.2095 23.3686 59.3488 24.1531C58.1369 24.6651 57.0566 25.4163 56.0303 26.2468C55.4799 26.6922 54.9469 27.1582 54.4171 27.6226L60.5226 36.8946C62.9893 36.0498 65.2719 34.6772 67.1755 32.8957C67.8877 32.2285 68.5793 31.4423 68.7253 30.4787C68.8823 29.4374 68.3731 28.4198 67.8496 27.5037Z" fill="#263238"/>
<path d="M46.5682 27.9269C46.5682 27.9269 48.1069 25.4354 51.3968 26.4418C54.6868 27.4482 58.3479 33.4394 59.5677 35.0291C60.2197 35.8786 60.3656 38.4304 61.5839 39.8188C62.4896 40.8538 63.0369 42.1249 63.0369 42.1249C63.0369 42.1249 60.997 42.7827 59.2457 44.5848C57.4945 46.3869 51.9155 46.8941 50.9606 45.2505L51.9266 44.3042L50.4403 41.7604C50.4403 41.7604 44.7234 35.4285 45.1533 34.8167C45.3087 34.5948 43.9667 32.3759 43.9667 32.3759L46.5666 27.9221L46.5682 27.9269Z" fill="#263238"/>
<path d="M46.8284 38.6063C46.8284 38.6063 49.3093 42.8128 50.4419 43.2582C51.5745 43.7035 51.9266 44.309 51.9266 44.309C51.9266 44.309 61.6267 39.9535 61.5823 39.822C61.5394 39.692 61.4823 39.1309 61.5823 38.0484C61.6822 36.9643 58.8206 32.9639 57.5627 31.4788C56.3047 29.9937 54.4631 25.7381 50.0532 26.147C45.6434 26.5559 43.4432 31.8227 43.4432 31.8227L43.0181 32.7705L46.8284 38.6095V38.6063Z" fill="#455A64"/>
<path d="M58.6667 24.5953C58.6667 24.5953 48.0117 25.2721 46.178 27.0219C44.7027 28.4309 45.369 29.9049 45.7116 30.5865C46.0542 31.268 46.4952 32.6881 46.4952 32.6881L49.728 32.444C49.728 32.444 47.2979 29.431 47.6247 27.8144C47.9514 26.1993 56.6426 26.0012 56.6426 26.0012L58.6667 24.5953Z" fill="#263238"/>
<path d="M50.1897 35.8976C50.1897 35.8976 52.9894 37.3304 54.9659 37.3906C56.9424 37.4525 61.1365 35.4221 61.1365 35.4221L60.7527 34.4458C60.7527 34.4458 56.2778 36.3081 54.6471 36.2273C53.0164 36.1465 50.1913 35.8992 50.1913 35.8992L50.1897 35.8976Z" fill="#263238"/>
<path d="M45.1691 27.7066C45.1691 27.7066 44.5425 28.1219 44.5425 28.4357C44.5425 28.7495 44.3109 29.4897 44.3109 29.4897C44.3109 29.4897 44.046 29.7781 44.0936 30.1395C44.0936 30.1395 43.8049 30.428 43.9255 30.8369C43.9255 30.8369 43.7161 31.4043 43.8969 31.799C44.0778 32.1936 45.5213 33.3269 45.5213 33.3269L46.6475 30.7735C46.6475 30.7735 46.8902 30.1142 46.7808 29.7781C46.6713 29.4421 46.2081 28.5451 46.2081 28.5451C46.2081 28.5451 45.8036 28.4167 45.8528 28.7448C45.9004 29.0728 45.9733 29.6355 45.9733 29.6355L45.4023 29.3233L45.3277 28.6021C45.3277 28.6021 45.6371 28.0252 45.7084 27.7605C45.7814 27.4958 45.5641 27.5434 45.5641 27.5434L45.1707 27.7082L45.1691 27.7066Z" fill="#263238"/>
<path d="M45.1691 27.7066C45.1691 27.7066 45.2008 27.6876 45.2659 27.659C45.3372 27.6273 45.434 27.5845 45.5562 27.5307C45.5942 27.5243 45.6371 27.5227 45.6767 27.5465C45.718 27.5703 45.7354 27.6242 45.7338 27.6701C45.7291 27.7652 45.691 27.8572 45.6545 27.9554C45.5752 28.152 45.4705 28.3707 45.3436 28.6132L45.3468 28.5989C45.3706 28.8161 45.3975 29.0586 45.4261 29.3201L45.4118 29.2979C45.5926 29.3961 45.7846 29.4992 45.9845 29.6085L45.9369 29.6402C45.9067 29.4278 45.8766 29.2044 45.8433 28.9714C45.8353 28.9127 45.8274 28.8541 45.8195 28.7939C45.8115 28.7384 45.7973 28.6623 45.8306 28.5926C45.8655 28.5197 45.9495 28.488 46.0146 28.4864C46.0844 28.4816 46.1494 28.4927 46.2145 28.5117L46.2287 28.5165L46.2367 28.5308C46.3636 28.7764 46.4905 29.0316 46.6158 29.301C46.6776 29.4358 46.7411 29.5721 46.795 29.7163C46.8569 29.8669 46.849 30.0349 46.8299 30.1902C46.8093 30.3487 46.7712 30.504 46.7252 30.6578C46.6824 30.8147 46.6031 30.9589 46.5412 31.1095C46.4096 31.4075 46.2763 31.7118 46.1399 32.0208C45.94 32.4741 45.7433 32.9179 45.5546 33.3474L45.5339 33.3966L45.4927 33.3633C45.0279 32.9908 44.5901 32.6247 44.2031 32.2411C44.1095 32.1429 44.0143 32.0478 43.935 31.9384C43.8509 31.8291 43.8065 31.6943 43.7922 31.5659C43.7653 31.3044 43.8144 31.0572 43.8906 30.8289V30.8495C43.8097 30.5785 43.9017 30.3012 44.0682 30.1205L44.0587 30.1458C44.0286 29.878 44.1428 29.645 44.2856 29.4738L44.2792 29.4833C44.3744 29.1743 44.4505 28.8921 44.4949 28.6433C44.5045 28.5815 44.514 28.5212 44.5156 28.4626C44.5156 28.4357 44.5219 28.4024 44.5251 28.3723C44.5346 28.3437 44.5409 28.3152 44.5552 28.2914C44.6044 28.19 44.6726 28.1139 44.7329 28.0489C44.8582 27.9206 44.9692 27.8381 45.0438 27.7842C45.0819 27.7573 45.1104 27.7383 45.131 27.7256C45.1517 27.7129 45.1628 27.7066 45.1628 27.7082C45.1628 27.7082 45.1548 27.7177 45.1358 27.7319C45.1136 27.7494 45.0866 27.77 45.0533 27.7969C44.9819 27.8556 44.8741 27.9412 44.7535 28.0695C44.6948 28.1345 44.6314 28.2106 44.5869 28.3073C44.5743 28.3311 44.5695 28.3564 44.5616 28.3818C44.56 28.4087 44.5552 28.4325 44.5552 28.4642C44.5552 28.5244 44.5457 28.5862 44.5362 28.6496C44.4949 28.9032 44.4236 29.1869 44.3316 29.4992V29.5039L44.3252 29.5087C44.1935 29.6688 44.0873 29.8938 44.119 30.1363V30.1506L44.1095 30.1617C43.9604 30.3265 43.8763 30.5833 43.9508 30.8274L43.954 30.8369L43.9508 30.848C43.8795 31.0635 43.8335 31.3092 43.8604 31.5533C43.8763 31.8053 44.0666 31.9923 44.2538 32.1841C44.6361 32.5597 45.0755 32.9258 45.5387 33.2951L45.4768 33.311C45.6656 32.8815 45.8607 32.4377 46.0606 31.9844C46.197 31.6769 46.3303 31.3726 46.4619 31.0746C46.5238 30.924 46.6031 30.783 46.6443 30.6308C46.6903 30.4803 46.7268 30.3281 46.7474 30.1759C46.7665 30.0238 46.7728 29.8732 46.7173 29.7385C46.6665 29.599 46.6031 29.4611 46.5428 29.328C46.4191 29.0601 46.2922 28.805 46.1685 28.5593L46.1907 28.5767C46.0828 28.545 45.9353 28.5355 45.8924 28.6195C45.8718 28.6639 45.8782 28.7178 45.8877 28.778C45.8956 28.8382 45.9035 28.8969 45.9115 28.9555C45.9416 29.1901 45.9718 29.4136 46.0003 29.626L46.0082 29.6894L45.9527 29.6592C45.7529 29.5483 45.5625 29.4437 45.3817 29.3438L45.3674 29.3359V29.3201C45.3404 29.0586 45.3166 28.8161 45.296 28.5973V28.5894L45.2992 28.5831C45.4277 28.3437 45.5355 28.1266 45.618 27.9332C45.6577 27.8365 45.6957 27.7446 45.7005 27.6622C45.7021 27.621 45.6894 27.583 45.6609 27.5639C45.6323 27.5449 45.5926 27.5433 45.5609 27.5481H45.5625C45.4372 27.5972 45.3404 27.6353 45.2675 27.6638C45.2008 27.6891 45.1643 27.7018 45.1643 27.7002L45.1691 27.7066Z" fill="#455A64"/>
<path d="M49.2204 29.9414L52.9878 32.4329L48.156 31.3409L46.7807 30.4707L45.5212 33.3252C45.5212 33.3252 48.2258 35.6694 51.4618 36.2003C54.6978 36.7297 55.7464 37.2559 56.8615 36.1956C57.9766 35.1353 57.6578 33.5978 56.6489 31.6896C55.6417 29.7813 52.2581 25.318 49.0951 26.2769C47.3867 26.7952 47.2772 28.2692 47.8816 29.5863" fill="#455A64"/>
<path d="M47.88 29.5879C47.88 29.5879 47.8626 29.5531 47.8309 29.4817C47.815 29.4453 47.796 29.4009 47.7722 29.3486C47.7531 29.2947 47.7293 29.2313 47.704 29.16C47.612 28.8763 47.4803 28.4309 47.5564 27.8524C47.5993 27.5671 47.7103 27.2517 47.9356 26.9775C48.1576 26.7017 48.486 26.4798 48.8699 26.3324C49.2522 26.1819 49.6947 26.1026 50.1595 26.1232C50.6259 26.1422 51.1113 26.2627 51.5856 26.4687C52.5373 26.8761 53.4447 27.5845 54.2886 28.4483C54.7121 28.881 55.1182 29.3581 55.51 29.8701C55.8971 30.3852 56.2746 30.932 56.6061 31.5279C56.9297 32.1254 57.2327 32.7594 57.4326 33.4457C57.5309 33.7881 57.6007 34.1478 57.6023 34.5156C57.6055 34.8817 57.5357 35.2589 57.3612 35.5949C57.1899 35.9309 56.9281 36.2178 56.622 36.4444C56.3158 36.6743 55.9351 36.8106 55.5497 36.8375C55.1626 36.8676 54.7756 36.8201 54.3917 36.763C54.0078 36.7044 53.6255 36.6315 53.2401 36.5586C52.8705 36.4904 52.504 36.4223 52.1392 36.3541C51.7743 36.2891 51.4111 36.2321 51.0494 36.156C50.3292 36.0022 49.6408 35.7693 48.9873 35.4871C48.3337 35.205 47.7151 34.8753 47.1329 34.5156C46.5507 34.1542 46.0003 33.7706 45.4975 33.3506L45.4753 33.3332L45.4864 33.3062C45.9273 32.3093 46.3477 31.3567 46.7474 30.4517L46.7649 30.4137L46.7998 30.4359C47.2741 30.737 47.7309 31.0271 48.1735 31.3076L48.1624 31.3029C50.0247 31.7276 51.6506 32.0969 52.9926 32.4028L52.9736 32.4472C51.7854 31.6547 50.8464 31.0302 50.2023 30.6007C49.8835 30.3867 49.6376 30.2219 49.4695 30.1078C49.3886 30.0523 49.3267 30.0095 49.2823 29.9794C49.2411 29.9509 49.2204 29.9334 49.2204 29.9334C49.2204 29.9334 49.2426 29.9461 49.2871 29.9731C49.3315 30.0016 49.3949 30.0428 49.4774 30.0951C49.6471 30.2061 49.8946 30.3677 50.2166 30.5769C50.8638 31.0017 51.8077 31.6214 53.0005 32.4044L53.1132 32.4789L52.9815 32.4488C51.6379 32.1476 50.012 31.7831 48.1465 31.3662H48.1402L48.1354 31.3615C47.6929 31.0825 47.2344 30.7925 46.7601 30.4929L46.8109 30.4771C46.4127 31.3821 45.994 32.3362 45.5546 33.3332L45.545 33.2888C46.0431 33.7041 46.5936 34.086 47.1726 34.4442C47.7531 34.8008 48.367 35.1289 49.0174 35.4095C49.6662 35.6884 50.3515 35.9198 51.0653 36.072C51.4206 36.1481 51.787 36.2051 52.1519 36.2701C52.5167 36.3383 52.8847 36.4064 53.2543 36.4746C53.6398 36.5475 54.0221 36.6204 54.4028 36.679C54.7835 36.7361 55.1658 36.782 55.5417 36.7535C56.3 36.7123 56.9519 36.1893 57.2882 35.5569C57.4564 35.2351 57.5246 34.8722 57.5214 34.514C57.5214 34.1558 57.4532 33.8023 57.3548 33.4647C57.1597 32.7864 56.8583 32.1556 56.5379 31.5612C55.8717 30.3836 55.0738 29.3581 54.2394 28.4911C53.4019 27.6289 52.504 26.9236 51.5634 26.5179C51.0954 26.3118 50.6179 26.1914 50.1579 26.1708C49.6995 26.147 49.2649 26.2247 48.8873 26.3705C48.5098 26.5131 48.1878 26.7287 47.9673 26.9965C47.7452 27.2628 47.6342 27.5719 47.5898 27.8524C47.5104 28.4214 47.6342 28.8652 47.7214 29.1505C47.7452 29.2218 47.7658 29.2852 47.7849 29.3391C47.8055 29.3914 47.8245 29.4358 47.8388 29.4722C47.8673 29.5435 47.88 29.5816 47.88 29.5816V29.5879Z" fill="#263238"/>
<path d="M44.7424 30.2932C44.7329 30.3123 44.5394 30.1886 44.4299 29.9382C44.3189 29.6894 44.3601 29.4627 44.3807 29.4691C44.4045 29.4691 44.4045 29.6783 44.506 29.9049C44.6044 30.1332 44.7583 30.2742 44.7424 30.2932Z" fill="#455A64"/>
<path d="M44.3379 30.6245C44.3236 30.6419 44.2046 30.5547 44.1301 30.3931C44.0555 30.233 44.0666 30.0856 44.0888 30.0856C44.1126 30.084 44.138 30.214 44.2062 30.3582C44.2729 30.504 44.3553 30.607 44.3395 30.6245H44.3379Z" fill="#455A64"/>
<path d="M44.2681 31.2205C44.2554 31.2379 44.1126 31.1555 43.9984 30.9922C43.8826 30.829 43.8541 30.6657 43.8747 30.661C43.8969 30.653 43.9588 30.7941 44.0651 30.9447C44.1713 31.0968 44.2824 31.2014 44.2681 31.2205Z" fill="#455A64"/>
<path d="M55.7971 33.1335C55.7876 33.1445 55.6576 33.0399 55.4275 32.902C55.1975 32.7642 54.8612 32.6041 54.4663 32.5026C54.0697 32.4028 53.6985 32.3822 53.4304 32.3933C53.1623 32.4028 52.9974 32.4329 52.9942 32.4186C52.9942 32.4123 53.0339 32.4012 53.1068 32.3838C53.1814 32.3648 53.2892 32.3473 53.4257 32.3346C53.6969 32.3093 54.0792 32.3204 54.4853 32.4234C54.8914 32.528 55.2324 32.7008 55.4577 32.8529C55.5703 32.929 55.6591 32.9971 55.7147 33.0479C55.7718 33.0986 55.8003 33.1287 55.7971 33.1335Z" fill="#263238"/>
<path d="M47.1456 33.9735C47.1345 33.9672 47.2043 33.8293 47.3106 33.6058C47.4168 33.3807 47.558 33.0685 47.6897 32.7135C47.8214 32.3585 47.9213 32.0304 47.9879 31.791C48.0545 31.5517 48.0926 31.4027 48.1037 31.4043C48.1132 31.4059 48.0974 31.5596 48.0434 31.8053C47.9911 32.0494 47.9007 32.3838 47.7658 32.742C47.6326 33.1002 47.4819 33.4124 47.3613 33.6312C47.2408 33.8499 47.1535 33.9783 47.144 33.9735H47.1456Z" fill="#263238"/>
<path d="M51.3857 37.8091C51.3857 37.8091 51.3445 37.8598 51.2572 37.9406C51.17 38.0215 51.0415 38.134 50.8718 38.2655C50.5355 38.5302 50.0374 38.8647 49.4267 39.1547L49.4378 39.0881C49.5218 39.1721 49.6059 39.2625 49.6868 39.3608C50.1738 39.9599 50.3768 40.6541 50.4228 41.1486C50.4466 41.3974 50.4371 41.6003 50.426 41.7398C50.4102 41.8777 50.3943 41.9537 50.3895 41.9537C50.3721 41.9537 50.426 41.6463 50.3641 41.1565C50.3039 40.6715 50.0977 39.9995 49.6218 39.4146C49.544 39.3195 49.4616 39.2308 49.3807 39.1484L49.3394 39.1072L49.3918 39.0834C49.9977 38.7997 50.4958 38.4748 50.8384 38.2243C51.0098 38.0991 51.1446 37.9929 51.2366 37.92C51.3286 37.8471 51.3809 37.8075 51.3841 37.8107L51.3857 37.8091Z" fill="#263238"/>
<path d="M55.445 42.6606C55.445 42.6606 55.4196 42.6464 55.3752 42.6115C55.3244 42.5703 55.261 42.5196 55.1848 42.4593C55.0199 42.3262 54.7898 42.1249 54.5138 41.865C54.2378 41.6066 53.9222 41.2833 53.5875 40.9108C53.2559 40.5352 52.9054 40.1104 52.5643 39.6429C52.2264 39.1737 51.9282 38.7093 51.6744 38.2782C51.4238 37.8439 51.2144 37.4445 51.0542 37.1022C50.8924 36.7598 50.7718 36.4793 50.6957 36.2812C50.6608 36.1892 50.6322 36.1148 50.61 36.0529C50.591 36.0006 50.5831 35.9721 50.5846 35.9721C50.5878 35.9721 50.6005 35.9975 50.6243 36.0466C50.6513 36.1052 50.6846 36.1782 50.7242 36.2685C50.8083 36.4619 50.9368 36.7392 51.1049 37.0768C51.2715 37.416 51.4856 37.8107 51.7379 38.2402C51.9948 38.6681 52.2915 39.1278 52.6278 39.5953C52.9672 40.0597 53.313 40.4845 53.6398 40.8617C53.9697 41.2342 54.2791 41.5607 54.5503 41.8238C54.82 42.0885 55.0436 42.2961 55.2007 42.4356C55.2737 42.5021 55.3323 42.556 55.3799 42.6004C55.4212 42.6384 55.4402 42.6606 55.4386 42.6622L55.445 42.6606Z" fill="#E0E0E0"/>
<path d="M60.97 38.722C60.97 38.722 60.9382 38.7442 60.8732 38.7775C60.8002 38.814 60.7051 38.8615 60.5877 38.9218C60.3291 39.0485 59.9706 39.2229 59.5312 39.4384C58.6318 39.8791 57.404 40.4813 56.0478 41.1454C54.6963 41.8206 53.4732 42.4308 52.577 42.8778C52.1392 43.0965 51.7823 43.2756 51.5253 43.404C51.4063 43.4611 51.3112 43.5086 51.2382 43.5435C51.1716 43.5752 51.1367 43.5894 51.1351 43.5879C51.1351 43.5847 51.1668 43.5657 51.2302 43.5292C51.3016 43.4896 51.3952 43.4389 51.511 43.3755C51.7648 43.2408 52.1186 43.0553 52.55 42.8255C53.4304 42.3659 54.6518 41.743 56.0113 41.071C57.3691 40.3989 58.6064 39.8062 59.5058 39.3861C59.95 39.1817 60.3132 39.0137 60.5734 38.8932C60.6939 38.8393 60.7907 38.7965 60.8653 38.7633C60.9319 38.7347 60.9684 38.7205 60.97 38.7236V38.722Z" fill="#263238"/>
<path d="M53.5145 36.5728C53.5192 36.5839 53.3971 36.6505 53.2004 36.7583C53.0037 36.866 52.7325 37.015 52.439 37.1894C52.1455 37.3637 51.8854 37.5301 51.6966 37.6506C51.5079 37.7726 51.3905 37.8471 51.3841 37.8376C51.3778 37.8281 51.4825 37.7378 51.6633 37.603C51.8441 37.4683 52.1011 37.294 52.3978 37.118C52.6928 36.9421 52.9704 36.8011 53.175 36.706C53.3797 36.6124 53.5097 36.5633 53.5145 36.5728Z" fill="#263238"/>
<path d="M58.5826 37.3669C58.5826 37.3669 58.5477 37.3922 58.4764 37.4239C58.4066 37.4572 58.2987 37.4937 58.1639 37.5254C58.029 37.5602 57.864 37.5809 57.68 37.5872C57.496 37.5904 57.293 37.5745 57.0836 37.5317C56.8758 37.4858 56.6839 37.416 56.5173 37.3368C56.3523 37.2544 56.2112 37.1672 56.1017 37.08C55.9922 36.9944 55.9098 36.9183 55.859 36.8581C55.8082 36.7995 55.7813 36.7662 55.786 36.763C55.7971 36.7519 55.9129 36.8771 56.1366 37.0325C56.2476 37.1117 56.3872 37.191 56.5506 37.267C56.714 37.3399 56.9012 37.4049 57.1026 37.4493C57.3041 37.4921 57.5008 37.5079 57.68 37.5095C57.8593 37.5079 58.0195 37.4921 58.1528 37.4667C58.4192 37.4176 58.5779 37.351 58.5826 37.3653V37.3669Z" fill="#263238"/>
<path d="M63.0306 42.0013C63.0306 42.0013 62.9861 42.0171 62.8989 42.0393C62.8116 42.0615 62.6847 42.0964 62.5229 42.1455C62.1993 42.2438 61.7314 42.4039 61.1921 42.6797C60.6511 42.9539 60.042 43.3485 59.4472 43.8874C58.846 44.4136 58.2321 45.0714 57.4183 45.5421C57.0122 45.7751 56.5871 45.9478 56.1668 46.0778C55.7432 46.1998 55.3229 46.2743 54.9199 46.3092C54.1125 46.3742 53.3797 46.2743 52.7912 46.1143C52.2011 45.9526 51.7522 45.737 51.4571 45.5674C51.308 45.485 51.2017 45.4042 51.1256 45.3566C51.051 45.3059 51.013 45.279 51.0145 45.2774C51.0161 45.2758 51.0574 45.298 51.1351 45.344C51.2128 45.3868 51.3223 45.4628 51.473 45.5405C51.7712 45.7006 52.2201 45.9066 52.807 46.0588C53.3924 46.2094 54.1173 46.3029 54.9152 46.2331C55.3133 46.1967 55.7274 46.1206 56.1445 46.0001C56.5586 45.8702 56.9773 45.699 57.3787 45.4708C58.1797 45.008 58.792 44.3565 59.3996 43.8303C60.0008 43.2914 60.621 42.8968 61.1683 42.6274C61.7155 42.3563 62.1882 42.2042 62.5166 42.1154C62.6816 42.071 62.8101 42.0409 62.8989 42.0235C62.9861 42.0061 63.0337 41.9981 63.0337 42.0013H63.0306Z" fill="#455A64"/>
<path d="M31.9364 37.0451C32.5138 37.6981 32.7343 38.4478 32.4266 38.7188C32.1188 38.9899 31.4018 38.6808 30.8229 38.0278C30.2454 37.3748 30.025 36.6251 30.3327 36.3541C30.6404 36.0831 31.3574 36.3921 31.9364 37.0451Z" fill="#455A64"/>
<path d="M36.0242 32.6865C35.8672 32.5344 35.6166 32.5375 35.45 32.677L32.1077 35.6155L30.4818 36.2733C31.2845 36.3589 32.4726 37.1672 32.5392 38.5826L33.3688 36.809L36.2733 33.6708C36.4652 33.4029 36.2892 32.9417 36.0258 32.6865H36.0242Z" fill="#263238"/>
<path d="M30.9767 36.4825L32.3536 37.7901L18.1882 70.2864L0.460022 56.0155L30.9767 36.4825Z" fill="#FF725E"/>
<g opacity="0.8">
<path d="M31.0497 36.4349L32.3536 37.7901L18.1882 70.2864L0.460022 56.0155L31.0497 36.4349Z" fill="white"/>
</g>
<path d="M13.2961 55.7096C13.3675 55.9426 13.6134 56.0725 13.8434 55.9996C14.0734 55.9267 14.2019 55.6795 14.1305 55.4465C14.0591 55.2135 13.8132 55.0835 13.5832 55.1564C13.3532 55.2294 13.2247 55.4766 13.2961 55.7096Z" fill="#FF725E"/>
<g opacity="0.6">
<path d="M13.2961 55.7096C13.3675 55.9426 13.6134 56.0725 13.8434 55.9996C14.0734 55.9267 14.2019 55.6795 14.1305 55.4465C14.0591 55.2135 13.8132 55.0835 13.5832 55.1564C13.3532 55.2294 13.2247 55.4766 13.2961 55.7096Z" fill="white"/>
</g>
<path d="M19.5381 53.5017C19.5746 53.619 19.6967 53.684 19.811 53.6475C19.9252 53.6111 19.9902 53.4875 19.9537 53.3702C19.9172 53.2529 19.7951 53.1879 19.6809 53.2244C19.5667 53.2608 19.5016 53.3844 19.5381 53.5017Z" fill="#FF725E"/>
<g opacity="0.6">
<path d="M19.5381 53.5017C19.5746 53.619 19.6967 53.684 19.811 53.6475C19.9252 53.6111 19.9902 53.4875 19.9537 53.3702C19.9172 53.2529 19.7951 53.1879 19.6809 53.2244C19.5667 53.2608 19.5016 53.3844 19.5381 53.5017Z" fill="white"/>
</g>
<path d="M11.648 52.9549C11.6845 53.0722 11.8066 53.1372 11.9208 53.1007C12.0351 53.0643 12.1001 52.9407 12.0636 52.8234C12.0271 52.7061 11.905 52.6411 11.7908 52.6776C11.6766 52.714 11.6115 52.8376 11.648 52.9549Z" fill="#FF725E"/>
<g opacity="0.3">
<path d="M11.648 52.9549C11.6845 53.0722 11.8066 53.1372 11.9208 53.1007C12.0351 53.0643 12.1001 52.9407 12.0636 52.8234C12.0271 52.7061 11.905 52.6411 11.7908 52.6776C11.6766 52.714 11.6115 52.8376 11.648 52.9549Z" fill="white"/>
</g>
<path d="M18.0821 70.4463C19.2911 68.9342 16.2832 64.5252 11.3639 60.5986C6.44453 56.672 1.47653 54.7146 0.267549 56.2268C-0.941434 57.7389 2.06641 62.1479 6.98576 66.0745C11.9051 70.0011 16.8731 71.9584 18.0821 70.4463Z" fill="#FF725E"/>
<g opacity="0.7">
<path d="M18.0821 70.4463C19.2911 68.9342 16.2832 64.5252 11.3639 60.5986C6.44453 56.672 1.47653 54.7146 0.267549 56.2268C-0.941434 57.7389 2.06641 62.1479 6.98576 66.0745C11.9051 70.0011 16.8731 71.9584 18.0821 70.4463Z" fill="white"/>
</g>
<path d="M32.4979 38.2386C32.4979 38.2386 31.2718 38.1752 30.7388 36.324C30.7388 36.324 32.0665 36.5411 32.4979 38.2386Z" fill="#FAFAFA"/>
<path d="M27.7709 39.7127C27.7851 39.7348 24.1224 42.1487 19.5905 45.1047C15.0569 48.0622 11.372 50.4412 11.3577 50.419C11.3434 50.3968 15.0061 47.983 19.5397 45.0254C24.0717 42.0695 27.7582 39.6905 27.7725 39.7111L27.7709 39.7127Z" fill="white"/>
<path d="M9.11631 51.8835C9.13059 51.9057 8.45167 52.3859 7.59984 52.9581C6.74801 53.5303 6.04529 53.9756 6.03101 53.955C6.01674 53.9328 6.69566 53.4526 7.54749 52.8804C8.39932 52.3083 9.10045 51.8629 9.11631 51.8835Z" fill="white"/>
<path d="M32.5328 34.8468C32.5328 34.8468 32.5725 34.8516 32.6375 34.8817C32.701 34.9118 32.7914 34.9609 32.8882 35.0433C32.9865 35.1242 33.0896 35.2383 33.1753 35.3841C33.2165 35.4586 33.2578 35.5363 33.2832 35.6282C33.3101 35.7185 33.307 35.8406 33.2308 35.9262C33.0817 36.0973 32.8358 36.0799 32.6899 35.9943C32.536 35.9103 32.4377 35.793 32.3504 35.7058C32.1855 35.522 32.049 35.4538 32.0522 35.4443C32.0554 35.4317 32.2124 35.4871 32.3917 35.6646C32.4837 35.7486 32.5852 35.8564 32.7248 35.9277C32.7946 35.9626 32.8723 35.9864 32.9516 35.9785C33.0309 35.9721 33.115 35.9388 33.1658 35.8754C33.2197 35.8136 33.2245 35.7296 33.2023 35.6504C33.1816 35.5711 33.1436 35.4935 33.1071 35.4237C33.0294 35.2842 32.9358 35.1717 32.8469 35.0893C32.6693 34.9229 32.5233 34.8627 32.5297 34.85L32.5328 34.8468Z" fill="#455A64"/>
<path d="M33.0183 35.2795C33.0183 35.2795 33.0563 35.2811 33.1182 35.2969C33.1801 35.3128 33.2705 35.3382 33.3815 35.3461C33.4894 35.3524 33.6306 35.3334 33.7305 35.2351C33.8288 35.1384 33.8748 34.9689 33.8368 34.8119C33.7955 34.6535 33.6781 34.5298 33.556 34.4522C33.4323 34.3729 33.3022 34.3365 33.1912 34.3143C32.9675 34.2746 32.8216 34.2778 32.8216 34.2636C32.8216 34.2556 32.9643 34.2303 33.2007 34.2556C33.3165 34.2715 33.4592 34.3032 33.5973 34.3872C33.7321 34.468 33.8685 34.6043 33.9177 34.7913C33.9637 34.9768 33.9082 35.1733 33.7844 35.2906C33.6559 35.4079 33.4941 35.4174 33.3768 35.4047C33.2562 35.3889 33.1674 35.3524 33.1071 35.3286C33.0468 35.3033 33.0151 35.2858 33.0167 35.2795H33.0183Z" fill="#455A64"/>
<path d="M33.9351 34.5568C33.9351 34.5568 33.9431 34.5996 33.9653 34.6741C33.9891 34.7438 34.0256 34.8611 34.1318 34.934C34.1842 34.9689 34.2571 34.9752 34.3254 34.953C34.3936 34.9292 34.4554 34.869 34.4951 34.7945C34.5728 34.644 34.5649 34.4252 34.557 34.2224C34.5474 34.1209 34.5125 34.029 34.4427 33.9735C34.3729 33.918 34.2778 33.8927 34.1889 33.8642C34.0129 33.8087 33.8511 33.7691 33.7131 33.7405C33.4386 33.6851 33.2641 33.6708 33.2657 33.6581C33.2657 33.6486 33.4418 33.6423 33.7242 33.6835C33.8638 33.7041 34.0303 33.7389 34.2111 33.7912C34.3 33.8198 34.3999 33.8404 34.4919 33.9101C34.5855 33.9814 34.6283 34.1035 34.6379 34.2128C34.649 34.3254 34.6426 34.43 34.6379 34.533C34.6299 34.636 34.6109 34.7406 34.5617 34.8294C34.5125 34.9166 34.438 34.9879 34.3476 35.0164C34.2571 35.0418 34.1636 35.0275 34.1001 34.98C33.9748 34.8817 33.951 34.7549 33.9351 34.6788C33.9224 34.5996 33.932 34.5536 33.9351 34.5536V34.5568Z" fill="#455A64"/>
<path d="M34.2635 36.2923C34.2635 36.2923 34.1778 36.2479 34.1128 36.1132C34.0462 35.9817 34.0144 35.7677 34.07 35.549C34.1271 35.3302 34.2365 35.1591 34.319 35.0434C34.4031 34.9277 34.4634 34.8627 34.4729 34.869C34.4824 34.8754 34.4396 34.953 34.3682 35.0751C34.3 35.1971 34.2016 35.3667 34.1509 35.568C34.1001 35.7693 34.1207 35.9626 34.1683 36.0894C34.2143 36.2178 34.2762 36.2828 34.2667 36.2923H34.2635Z" fill="#455A64"/>
<path d="M34.108 36.0181C34.108 36.0181 34.0478 36.1084 33.9304 36.2447C33.813 36.381 33.6417 36.5728 33.4418 36.7931L33.4481 36.7836C33.3815 36.9247 33.3085 37.0768 33.234 37.2338C33.0516 37.611 32.8834 37.9517 32.7565 38.1958C32.6296 38.4399 32.5471 38.5889 32.5376 38.5841C32.5281 38.5794 32.5916 38.4209 32.7042 38.1705C32.8168 37.92 32.977 37.5761 33.1594 37.1973C33.2356 37.0404 33.3101 36.8898 33.3783 36.7488L33.3815 36.744L33.3847 36.7392C33.5893 36.5237 33.767 36.3398 33.8955 36.2115C34.024 36.0831 34.1017 36.0117 34.108 36.0181Z" fill="#455A64"/>
<path d="M35.5262 35.2446C35.5182 35.2446 35.523 35.121 35.5389 34.9118C35.5547 34.7026 35.5817 34.4046 35.6166 34.0559L35.6229 34.0813C35.4849 33.88 35.3342 33.6597 35.1756 33.4298C35.1169 33.3443 35.0598 33.2603 35.0059 33.1794L35.0392 33.1969C34.5617 33.1969 34.1413 33.1905 33.84 33.1826C33.5386 33.1747 33.3561 33.1652 33.3561 33.1557C33.3561 33.1461 33.5386 33.1366 33.84 33.1287C34.1413 33.1208 34.5617 33.116 35.0392 33.1144H35.0614L35.0741 33.1319C35.1296 33.2127 35.1867 33.2967 35.2438 33.3823C35.4008 33.6153 35.55 33.8356 35.6864 34.0385L35.6943 34.0496V34.0638C35.6515 34.4125 35.615 34.7089 35.5864 34.9165C35.5579 35.1258 35.5357 35.2462 35.5277 35.2446H35.5262Z" fill="#455A64"/>
</g>
<defs>
<clipPath id="clip0_1_576">
<rect width="110.419" height="74" fill="white"/>
</clipPath>
</defs>
</svg>
