<svg width="66" height="66" viewBox="0 0 66 66" fill="none" xmlns="http://www.w3.org/2000/svg">
<circle cx="33" cy="33" r="33" fill="#DDFFF8"/>
<circle cx="33" cy="33" r="28" fill="#BBFFF1"/>
<path d="M38.625 33.5716V45.6562C38.625 47.3648 37.2855 48.75 35.6051 48.75H22.5234C20.8395 48.75 19.5 47.3648 19.5 45.6562V27.0938C19.5048 26.2747 19.8323 25.4906 20.4114 24.9114C20.9906 24.3323 21.7747 24.0048 22.5938 24H29.2116C29.4406 24.0003 29.6673 24.0463 29.8785 24.1351C30.0896 24.224 30.2809 24.354 30.4413 24.5175L38.1159 32.3222C38.4425 32.6561 38.6252 33.1046 38.625 33.5716Z" stroke="#1CD2D1" stroke-width="2" stroke-linejoin="round"/>
<path d="M29.0625 24V31.5938C29.0687 32.114 29.2781 32.6111 29.646 32.979C30.0139 33.3469 30.511 33.5563 31.0312 33.5625H38.625" stroke="#1CD2D1" stroke-width="2" stroke-linecap="round" stroke-linejoin="round"/>
<path d="M27.375 24V20.3438C27.3798 19.5247 27.7073 18.7406 28.2864 18.1614C28.8656 17.5823 29.6497 17.2548 30.4688 17.25H37.0781C37.3084 17.2503 37.5364 17.2962 37.7489 17.385C37.9614 17.4738 38.1543 17.6038 38.3163 17.7675L45.9909 25.5722C46.3172 25.9025 46.5001 26.3482 46.5 26.8125V38.9062C46.5 40.6148 45.1605 42 43.4801 42H39.1875" stroke="#1CD2D1" stroke-width="2" stroke-linejoin="round"/>
<path d="M36.9375 17.25V24.8438C36.9437 25.364 37.1531 25.8611 37.521 26.229C37.8889 26.5969 38.386 26.8063 38.9062 26.8125H46.5" stroke="#1CD2D1" stroke-width="2" stroke-linecap="round" stroke-linejoin="round"/>
</svg>
