<svg width="136" height="75" viewBox="0 0 136 75" fill="none" xmlns="http://www.w3.org/2000/svg">
<g clip-path="url(#clip0_1_421)">
<path d="M34.7011 74.2743C34.7011 74.2743 12.4455 54.2049 24.979 27.0781C30.992 14.0634 47.0064 11.0091 51.8604 13.6726C58.2608 17.1843 66.7505 7.69744 85.1003 1.18357C98.8918 -3.71212 130.11 6.27002 119.944 36.9741C113.777 55.5987 137.516 50.6992 133.834 74.502L34.7016 74.2743H34.7011Z" fill="#FBECDB"/>
<path d="M42.5741 50.199H24.9073V74.2592H42.5741V50.199Z" fill="#F9DDBF"/>
<path d="M56.2981 50.199H42.5741V74.2602H56.2981V50.199Z" fill="#FFF3E9"/>
<path d="M47.0651 39.9356L41.2765 51.821H23.6907L32.8591 39.979L47.0651 39.9356Z" fill="#ED9F4A"/>
<path d="M47.759 39.9356L41.9704 51.821H24.3846L33.5529 39.979L47.759 39.9356Z" fill="#F9DDBF"/>
<path d="M33.7111 45.8783H33.3416C32.0869 45.8783 31.0697 46.8928 31.0697 48.1441V53.9019H35.909V48.0709C35.909 46.8603 34.925 45.8788 33.7111 45.8788V45.8783Z" fill="#EFCDAF"/>
<path d="M58.2103 52.4805H42.247L32.8123 39.9356L38.1238 39.9367L48.5001 39.9383L58.2103 52.4805Z" fill="#ED9F4A"/>
<path d="M58.2103 52.4805H55.2853L38.1238 39.9367L48.5001 39.9383L58.2103 52.4805Z" fill="#E58638"/>
<path d="M31.6359 55.1407L27.5149 63.6028H14.9945L21.5221 55.1716L31.6359 55.1407Z" fill="#ED9F4A"/>
<path d="M32.0114 55.1407L27.8899 63.6028H15.3699L21.897 55.1716L32.0114 55.1407Z" fill="#F9DDBF"/>
<path d="M27.8627 63.6028V72.6653H23.7178C23.5793 72.6447 23.5086 72.6312 23.5086 72.6312C23.5086 72.6312 21.3933 72.6311 18.891 71.7749C17.7434 71.382 16.5143 70.8092 15.3705 69.9741V63.6033H27.8632L27.8627 63.6028Z" fill="#F9DDBF"/>
<path d="M38.4417 63.6028V70.9691C37.6859 71.1886 36.9556 71.3842 36.2508 71.5576C33.8268 72.1532 31.7109 72.4881 29.9357 72.6653H27.8627V63.6028H38.4417Z" fill="#FFF3E9"/>
<path d="M39.604 64.103H28.2398L21.522 55.1716L24.9073 55.1722L32.6911 55.1738L39.604 64.103Z" fill="#ED9F4A"/>
<path d="M24.1536 65.4811V72.6648H23.7173C23.5787 72.6442 23.5081 72.6307 23.5081 72.6307C23.5081 72.6307 21.3927 72.6307 18.8905 71.7744V65.5678C18.8905 64.7902 19.2241 64.09 19.7566 63.6028C20.2326 63.1661 20.8678 62.9 21.5655 62.9C22.2632 62.9 22.8772 63.1671 23.3402 63.6028C23.8412 64.0732 24.1536 64.7409 24.1536 65.4817V65.4811Z" fill="#EFCDAF"/>
<path d="M21.522 60.4586C21.8483 60.4586 22.1127 60.1949 22.1127 59.8695C22.1127 59.5442 21.8483 59.2805 21.522 59.2805C21.1958 59.2805 20.9314 59.5442 20.9314 59.8695C20.9314 60.1949 21.1958 60.4586 21.522 60.4586Z" fill="#EFCDAF"/>
<path d="M39.604 64.103H37.4473L24.9073 55.1722L32.6912 55.1738L39.604 64.103Z" fill="#E58638"/>
<path d="M96.3411 74.2603C87.2733 71.5794 76.2813 69.1147 67.2515 71.2716C58.2217 73.4284 54.7527 76.3385 44.8361 69.6431C43.9363 69.0356 43.106 68.5853 42.3284 68.2634C44.0792 67.9469 46.419 67.3941 45.3817 66.8349C44.3004 66.2518 42.4915 67.2484 41.4455 67.9453C41.1836 67.8656 40.9276 67.8006 40.6771 67.7496C43.0663 66.0437 47.3031 62.8166 45.3322 62.7082C43.388 62.6014 41.0374 65.8394 39.8898 67.631C39.6931 67.612 39.4991 67.6006 39.3078 67.5974C39.2062 66.6663 38.8324 65.0178 37.4603 64.9149C36.0579 64.8097 37.7141 66.6279 38.7058 67.6131C33.3671 67.9675 29.7531 74.0121 18.5427 70.1969C16.8207 69.6111 15.0428 69.6464 13.3676 70.0078C12.3134 67.6852 9.18304 61.3685 6.5944 62.0259C4.00847 62.6822 10.4132 68.1523 12.8443 70.1319C12.5547 70.2067 12.2694 70.2902 11.988 70.3817C10.5165 69.2995 7.75614 67.5502 6.17926 68.3181C4.6377 69.0687 8.50165 70.1433 11.0169 70.7313C7.66268 72.0584 5.16315 74.2532 5.16315 74.2532L96.3395 74.2597L96.3411 74.2603Z" fill="#A8D29F"/>
<path d="M129.588 74.2629H119.041C118.471 73.786 119.428 72.6979 120.429 72.6242C120.864 72.5917 121.412 72.6811 122.038 72.8138C122.184 70.8906 123.013 62.2508 126.136 62.597C129.647 62.9867 126.136 66.4029 125.143 68.4254C124.408 69.9232 123.631 72.0725 123.277 73.0875C123.563 73.1493 123.857 73.2105 124.159 73.2658C124.623 71.84 126.356 67.0446 128.559 67.3237C131.146 67.6504 130.105 69.5732 128.273 70.7144C126.927 71.5533 125.275 72.7466 124.49 73.3227C125.155 73.4311 125.85 73.5032 126.554 73.4869C128.366 73.4441 129.248 73.9779 129.587 74.2629H129.588Z" fill="#A8D29F"/>
<path d="M74.085 15.1765C74.085 15.1765 76.5948 16.3605 77.1654 16.2115C77.7354 16.0625 79.9024 15.681 80.2067 15.8154C80.2067 15.8154 80.5517 16.3643 80.2914 16.7253C80.0312 17.0862 77.9234 18.0633 77.1616 18.0985C76.4003 18.1337 73.5096 17.6118 72.8961 17.1339L74.085 15.177V15.1765Z" fill="#E8945B"/>
<path d="M80.1306 15.8257C80.1306 15.8257 81.0984 15.4252 81.4151 15.8728C81.7319 16.3205 81.9118 16.774 81.8721 17.0033C81.833 17.2325 81.1793 17.3339 80.918 17.1556C80.6566 16.9773 80.0094 16.728 80.0094 16.728L80.1301 15.8257H80.1306Z" fill="#E8945B"/>
<path d="M84.7569 72.0129C84.7569 72.0129 84.2222 72.8751 84.2108 73.8755C84.2081 74.0982 84.3907 74.2792 84.6135 74.2792H87.9444C88.2671 74.2792 88.5051 73.9768 88.4252 73.6647C88.2704 73.0567 87.9384 72.137 87.2727 71.5794C86.2115 70.6896 84.7564 72.0129 84.7564 72.0129H84.7569Z" fill="#163560"/>
<path d="M79.4867 71.1306C79.4867 71.1306 79.2954 74.2104 78.6977 74.2548C78.6184 74.2608 75.6673 74.2608 75.6673 74.2608H71.861C71.861 74.2608 71.9251 73.3335 73.026 73.1423C74.1268 72.951 75.97 72.1793 76.6372 70.7275C77.3387 69.2003 79.4867 71.1306 79.4867 71.1306Z" fill="#163560"/>
<path d="M81.081 52.1033C80.9479 53.8142 80.9305 55.1652 81.1065 55.8052C81.8923 58.6698 79.691 71.6043 79.691 71.6043C78.068 72.3787 75.7635 71.5962 75.7635 71.5962C75.9037 69.8046 75.0495 53.7649 74.2546 43.9794C73.922 39.8711 73.6721 36.9968 73.6721 36.9968L83.3936 35.868C83.3936 35.868 81.5412 46.1601 81.081 52.1028V52.1033Z" fill="#2B478B"/>
<path d="M83.3936 35.8686C83.3936 35.8686 81.5412 46.1607 81.081 52.1034L74.254 43.98C73.9214 39.8717 73.6715 36.9974 73.6715 36.9974L83.393 35.8686H83.3936Z" fill="#233862"/>
<path d="M78.6249 38.0633C78.6249 38.0633 83.5463 66.6414 84.3928 72.1755C84.3928 72.1755 86.2354 72.6887 88.1177 71.8937C88.1177 71.8937 88.3611 58.614 87.7167 54.6135C87.0728 50.6131 88.0601 38.2465 87.0217 37.096C85.9833 35.9455 78.6249 38.0638 78.6249 38.0638V38.0633Z" fill="#2B478B"/>
<path d="M79.1319 13.6938C79.1319 13.6938 78.7542 16.2337 78.9194 16.9919C79.0846 17.7506 81.6145 18.163 82.673 17.536C83.7315 16.9095 83.4131 16.6765 83.4131 16.6765C83.4131 16.6765 83.2517 13.7691 83.1029 13.5615C82.9545 13.354 79.1313 13.6938 79.1313 13.6938H79.1319Z" fill="#FFB27D"/>
<path d="M87.2733 29.1927C87.608 26.0019 87.5221 23.6012 87.207 21.7944C86.2827 16.4934 83.387 16.3167 83.387 16.3508C83.387 17.064 81.8482 17.723 80.6071 17.6417C79.5611 17.5734 78.8824 16.78 78.8824 16.3508C78.8824 16.347 78.8629 16.3476 78.8276 16.3508C78.557 16.3535 77.3159 16.3758 76.1422 16.5784C75.2913 16.7248 74.4767 16.9659 74.0942 17.3631C73.897 17.568 73.1928 18.1419 72.2886 18.9222C69.9852 20.9089 66.3837 24.2341 66.5429 26.2154C66.5429 26.2154 70.9948 29.4756 73.816 27.432C73.6622 32.7379 72.6967 38.3576 72.9336 38.3538C72.9336 38.3538 74.5061 39.7119 79.284 39.7119C81.8966 39.7119 83.7853 39.4886 85.096 39.2306C86.882 38.8795 87.5928 38.4644 87.5928 38.4644C87.9905 38.4584 87.1575 30.2939 87.2733 29.1927Z" fill="#F99746"/>
<path d="M87.5928 38.4643C87.5928 38.4643 86.882 38.8794 85.096 39.2306C82.6274 38.1402 77.7278 35.3217 77.536 30.5892C77.2822 24.2937 84.9884 20.5452 84.9884 20.5452C84.9884 20.5452 86.0224 21.118 87.207 21.7938C87.5227 23.6 87.6085 26.0013 87.2733 29.1921C87.1575 30.2933 87.9905 38.4578 87.5928 38.4638V38.4643Z" fill="#ED7D2B"/>
<path d="M79.0917 13.9799C79.0917 13.9799 80.073 15.3596 81.1109 15.3716C82.1482 15.384 83.2077 14.001 83.2077 14.001L79.0917 13.9794V13.9799Z" fill="#E8945B"/>
<path d="M78.9971 13.9111C79.2688 14.1241 79.8758 14.4189 80.3724 14.6134C80.749 14.7613 81.1657 14.77 81.5488 14.6383C82.1215 14.4416 82.9882 14.1338 83.2083 14.0016C83.7277 13.6873 83.6946 13.0516 83.7212 12.1677C83.7533 11.1213 83.8587 10.2997 83.7419 9.69603C83.6028 8.97419 83.1436 8.56396 81.8596 8.45233C79.5019 8.24802 78.5195 8.83709 78.4782 9.62558C78.4673 9.83747 78.4575 10.0391 78.451 10.2304C78.3565 12.689 78.5515 13.561 78.9982 13.9116L78.9971 13.9111Z" fill="#FFB27D"/>
<path d="M78.463 9.91605C78.463 9.91605 78.8488 9.34812 79.5747 9.57085C80.3001 9.79358 80.3746 10.4119 81.6151 10.3127C82.8551 10.2136 83.1529 9.62829 83.3762 9.92093C83.5995 10.2136 83.7283 11.9428 83.7283 11.9428C83.7283 11.9428 86.2219 6.27219 81.1679 6.27219C81.1679 6.27219 75.9596 5.95842 78.463 11.7223V9.91497V9.91605Z" fill="#2C3A64"/>
<path d="M69.2799 15.2865L69.2866 15.2904C69.2805 15.2932 69.2799 15.2865 69.2799 15.2865Z" fill="#FFB27D"/>
<path d="M80.912 32.7254C80.912 32.7254 80.2507 33.2451 79.2835 33.2451C79.2835 33.2451 78.2967 32.1607 77.4653 31.1116C76.9269 30.432 76.4541 29.7676 76.3563 29.4224C76.1085 28.5445 71.4665 28.2974 70.8981 27.6791C70.3292 27.0607 73.2042 25.5092 73.2042 25.5092C73.2042 25.5092 77.9163 26.2278 78.6249 27.1512C78.9069 27.5187 79.3264 28.4768 79.7296 29.4967C80.3393 31.04 80.912 32.7254 80.912 32.7254Z" fill="#E8945B"/>
<path d="M74.3165 19.8413C74.3165 19.8413 75.2098 18.1121 75.651 18.1625C76.0922 18.2129 74.6371 21.7418 74.5045 23.457C74.3724 25.1722 74.3165 19.8413 74.3165 19.8413Z" fill="#ED7D2B"/>
<path d="M77.1111 31.7462C76.4916 33.2424 75.6891 34.6064 75.5858 34.7788C75.5787 34.7907 75.5749 34.7972 75.5749 34.7972H75.5603C75.4098 34.7956 74.116 34.7674 73.9899 34.2493C73.9899 34.2493 73.9481 32.4561 74.0198 31.0319C74.0519 30.3952 74.1067 29.8327 74.1975 29.5357C74.1975 29.5357 67.1803 29.4886 67.3037 27.5095C67.4265 25.5298 71.0953 24.4823 73.2042 25.5092C73.2042 25.5092 76.0004 26.5226 77.4724 27.8612C78.1951 28.5185 77.7506 30.2028 77.1105 31.7467L77.1111 31.7462Z" fill="#FFB27D"/>
<path d="M67.5129 24.7332C67.5129 24.7332 66.5788 26.1026 66.7978 27.3805C67.0168 28.6583 69.6826 29.3412 71.548 29.4224C71.548 29.4224 76.8828 28.2031 76.0558 26.0821C75.8684 25.6008 67.5134 24.7338 67.5134 24.7338L67.5129 24.7332Z" fill="#2B478B"/>
<path d="M69.45 7.90388C69.45 7.90388 68.6029 6.17407 66.556 7.2319C64.5091 8.28973 66.5016 12.2745 65.4279 13.2705C64.3537 14.2666 65.817 14.9185 65.5991 15.6327C65.3812 16.347 66.0039 17.1593 67.4362 17.0634C68.8686 16.968 70.377 17.045 71.0236 15.7953C71.6708 14.5456 71.5235 11.7959 71.2736 11.4096C71.0236 11.0232 69.45 7.90388 69.45 7.90388Z" fill="#AA443E"/>
<path d="M72.7668 17.3847L69.2864 15.2902C69.306 15.2826 69.3761 15.1775 69.6364 14.4269C69.7472 14.1067 69.8059 13.8292 69.8347 13.6092C69.8374 13.587 69.8407 13.5658 69.8423 13.5447C69.8782 13.2244 69.8521 13.0402 69.8521 13.0402L70.6145 13.3149L72.0245 13.8243C72.0082 14.1809 72.0582 14.4318 72.1343 14.6036C72.3185 15.022 72.6613 15.0247 72.6711 15.0247L72.7662 17.3842L72.7668 17.3847Z" fill="#FFB27D"/>
<path d="M72.1348 14.6036C70.772 14.719 70.0048 13.8325 69.8352 13.6087C69.8103 13.5761 69.7978 13.5577 69.7978 13.5577C69.7978 13.5577 69.8141 13.5528 69.8429 13.5442C69.9537 13.5117 70.2542 13.4212 70.615 13.3144L72.0251 13.8238C72.0088 14.1804 72.0587 14.4313 72.1348 14.6031V14.6036Z" fill="#ED985F"/>
<path d="M72.2028 14.1159C72.2028 14.1159 69.1751 14.4475 69.1131 12.4056C69.0512 10.3636 68.6034 9.42936 70.6981 9.24782C72.7929 9.06573 73.2879 9.81846 73.4112 10.5094C73.797 12.6673 73.0553 14.0243 72.2028 14.1159Z" fill="#FFB27D"/>
<path d="M70.8611 10.245C69.7896 9.97458 70.1993 11.8675 69.9287 11.738C69.626 11.5928 69.1055 11.5949 69.1875 11.9596C69.2696 12.3243 69.388 12.4549 69.45 12.6826C69.5119 12.9102 69.45 13.361 69.2006 13.2705C68.9517 13.1795 66.6348 10.5409 68.2703 8.48593C69.9064 6.43097 74.7843 7.6969 73.2482 9.84669C72.9781 10.2249 71.624 10.4379 70.8611 10.245Z" fill="#AA443E"/>
<path d="M74.7495 25.5076C74.7495 25.5076 73.8399 25.9888 72.4076 25.966C71.4953 25.9525 69.557 25.5569 68.3116 25.1082C67.6014 24.8535 67.1162 24.5809 67.1749 24.3522C67.2591 24.0227 67.8671 21.4919 68.429 19.1498C68.9425 17.0081 69.4179 15.0247 69.4179 15.0247C69.4179 15.0247 70.8356 16.0294 71.6621 15.675C72.4885 15.32 72.3826 14.9196 72.3826 14.9196C72.3826 14.9196 73.3563 14.8003 73.6204 14.8312C74.0421 14.8805 75.5309 15.4219 75.5309 15.4219C75.5309 15.4219 75.7265 15.9703 75.2076 16.8266C74.7778 17.5359 74.3594 17.673 74.3594 17.673C74.3594 17.673 75.576 21.499 74.7501 25.5065L74.7495 25.5076Z" fill="#739AF0"/>
<path d="M70.1934 22.0913C70.1934 22.0913 71.0676 21.9288 71.41 22.152C71.7523 22.3753 71.8534 22.7248 71.6067 22.8674C70.8351 23.315 70.0526 22.8202 70.0526 22.8202L70.1934 22.0913Z" fill="#FFB27D"/>
<path d="M68.3116 25.1082C67.6014 24.8535 67.1162 24.5809 67.1749 24.3522C67.2591 24.0227 67.8671 21.492 68.429 19.1498C68.5947 18.8463 68.7001 18.6648 68.7001 18.6648C68.7001 18.6648 69.7662 23.5258 68.3116 25.1082Z" fill="#4A82D3"/>
<path d="M69.4527 15.2979C69.4527 15.2979 66.7592 15.8663 65.6974 20.0424C65.5937 20.451 65.7007 20.8872 65.9843 21.1999C66.4728 21.7396 67.5493 22.5292 70.0531 22.8197C70.3265 22.8517 70.3634 22.1596 70.3634 22.1596C70.3362 22.2149 68.6626 21.0812 67.9503 20.4721C67.8215 20.3621 67.8269 20.1307 67.9198 19.9892C68.1606 19.6229 68.5643 18.9894 68.7001 18.6643C68.8985 18.1901 70.2058 15.513 69.4533 15.2979H69.4527Z" fill="#FFB27D"/>
<path d="M69.4179 15.0247C69.4179 15.0247 67.8345 15.1369 66.5435 16.8542C66.5435 16.8542 66.9804 18.4334 69.0316 18.855C69.0316 18.855 70.296 16.011 69.4185 15.0247H69.4179Z" fill="#739AF0"/>
<path d="M77.1111 31.7462C76.4916 33.2424 75.6891 34.6064 75.5858 34.7787C75.5771 34.7847 75.569 34.7907 75.5603 34.7972C75.4098 34.7955 74.116 34.7674 73.9899 34.2493C73.9899 34.2493 73.9481 32.4561 74.0198 31.0319C74.2257 31.2286 75.0202 31.8166 77.1111 31.7462Z" fill="#EBF2F9"/>
<path d="M80.912 32.7254C80.912 32.7254 80.2507 33.2451 79.2835 33.2451C79.2835 33.2451 78.2967 32.1607 77.4653 31.1116C78.401 30.7084 79.3889 29.8191 79.7301 29.4966C80.3398 31.04 80.9125 32.7254 80.9125 32.7254H80.912Z" fill="#EBF2F9"/>
<path d="M77.5719 36.7324C77.5425 36.8955 77.3811 37.0006 77.2187 36.9675C76.8307 36.8884 76.1297 36.7394 75.839 36.6337C75.4266 36.4842 74.636 36.0181 74.2236 35.8685C74.0817 35.8171 73.7411 35.6799 73.521 35.5905C73.4042 35.5428 73.3422 35.4155 73.3775 35.2946C73.4509 35.0437 73.5922 34.6167 73.7938 34.2596C73.8307 34.1935 73.8905 34.1436 73.966 34.1073C74.1801 34.2785 74.5175 34.4666 74.9685 34.4688C75.338 34.4704 75.645 34.3799 75.8727 34.2791C75.901 34.3365 76.4634 35.4675 76.8617 35.6122C77.2203 35.7423 77.6892 36.0837 77.5735 36.7324H77.5719Z" fill="#AA443E"/>
<path d="M83.4582 32.7384C83.5365 32.8847 83.4751 33.0668 83.3267 33.1416C82.9736 33.3193 82.3302 33.6347 82.0362 33.7317C81.6195 33.8688 80.7093 33.9919 80.2925 34.129C80.1491 34.1761 79.797 34.2791 79.5682 34.3447C79.447 34.3793 79.3193 34.3181 79.2715 34.201C79.1732 33.9588 79.0189 33.5361 78.9553 33.1313C78.9433 33.0565 78.9596 32.9801 78.996 32.9053C79.2704 32.9075 79.6519 32.8468 80.0073 32.5699C80.2985 32.3428 80.4833 32.0821 80.599 31.8621C80.6566 31.8898 81.8004 32.4306 82.203 32.2978C82.5649 32.1786 83.1458 32.1569 83.4577 32.7379L83.4582 32.7384Z" fill="#AA443E"/>
<path d="M77.781 30.4764C77.781 30.4764 77.5789 31.6437 76.8182 32.1808C76.8182 32.1808 73.728 31.757 70.8514 31.0308C68.7365 30.4976 66.7364 29.8012 66.1642 28.9905C64.8128 27.0781 66.8711 24.7495 66.8711 24.7495C66.8711 24.7495 70.8383 26.6586 75.1332 28.9981C76.0129 29.4771 76.9051 29.9741 77.7805 30.4764H77.781Z" fill="#F99746"/>
<path d="M73.1319 32.1808C73.1319 32.1808 72.2141 32.255 71.8669 32.6013C71.5197 32.9476 70.9937 33.955 71.3681 34.3544C71.743 34.7538 73.5286 33.8786 73.578 33.735C73.6275 33.5914 73.1314 32.1813 73.1314 32.1813L73.1319 32.1808Z" fill="#FFB27D"/>
<path d="M77.7811 30.4765C77.7811 30.4765 77.5789 31.6438 76.8182 32.1808C76.8182 32.1808 73.728 31.757 70.8514 31.0308C72.2038 29.8581 73.9709 29.2745 75.1337 28.9981C76.0135 29.4772 76.9057 29.9741 77.7811 30.4765Z" fill="#ED7D2B"/>
<path d="M88.2655 17.8887C87.6477 16.4256 83.5848 16.3698 83.5848 16.3698C81.5178 21.7792 81.0212 25.3271 80.4745 27.607C80.386 27.5983 80.3034 27.5983 80.2273 27.607C80.2273 27.607 77.3235 28.7369 73.0075 31.8627C73.0075 31.8627 72.5559 33.0972 73.3666 34.1073C73.3666 34.1073 80.8033 32.4702 82.8806 31.2563C82.8828 31.2563 82.8839 31.2568 82.8839 31.2568C82.9045 31.2438 82.9252 31.2303 82.9458 31.2172C82.9773 31.1977 83.0072 31.1788 83.036 31.1593C89.7907 26.7816 89.1485 19.9822 88.2649 17.8882L88.2655 17.8887Z" fill="#F99746"/>
<path d="M70.9812 43.844C70.9812 43.844 73.0667 44.5626 72.7733 46.9579C72.7733 46.9579 72.5809 47.9301 71.9805 47.4987C71.3801 47.0673 71.6615 47.147 70.8046 46.5574C69.9477 45.9678 69.3881 45.0384 69.4853 44.3003L70.9818 43.844H70.9812Z" fill="#FFB27D"/>
<path d="M71.0769 43.9979L69.8418 45.4925C69.7842 45.5624 69.6934 45.5943 69.6043 45.5775C68.4464 45.3657 64.4624 42.804 63.1572 41.7592C63.0153 41.6459 62.9061 41.5506 62.8344 41.4779C62.3475 40.9837 60.6696 38.5434 59.4785 36.3709C58.7928 35.1196 58.2684 33.9566 58.2271 33.3053C58.0788 30.9793 59.3057 27.7262 59.3057 27.7262C62.9349 28.9856 63.3169 31.8757 63.3169 31.8757L65.329 39.3439L71.028 43.592C71.1578 43.689 71.1801 43.8743 71.0774 43.9984L71.0769 43.9979Z" fill="#739AF0"/>
<path d="M63.1572 41.7592C63.0154 41.646 62.9061 41.5506 62.8344 41.478C62.3475 40.9837 60.6696 38.5435 59.4785 36.3709C59.3242 35.0579 59.4301 33.8261 59.973 32.965C59.973 32.965 63.0583 38.3793 63.1572 41.7598V41.7592Z" fill="#4A82D3"/>
<path d="M61.0663 63.275L60.4495 65.841L60.0675 67.4294L58.7966 72.7158C58.7966 72.7158 57.7087 73.0502 56.578 72.7158C56.578 72.7158 56.159 70.9665 56.1471 68.7847C56.1406 67.6434 56.2454 66.3835 56.5801 65.194C56.716 64.71 56.8904 64.238 57.1099 63.7899C58.9031 60.1368 61.0668 63.2756 61.0668 63.2756L61.0663 63.275Z" fill="#FFB27D"/>
<path d="M62.1198 74.2602H56.1465C56.1465 74.2602 56.052 73.359 56.315 72.4963C56.3535 72.3684 56.4008 72.2411 56.4568 72.1175C56.4568 72.1175 57.7902 72.4188 58.9406 72.1175C58.9406 72.1175 60.0219 73.036 60.6756 73.3173C61.3287 73.5991 62.0508 73.4457 62.1198 74.2597V74.2602Z" fill="#2B478B"/>
<path d="M60.4495 65.841L60.0675 67.4294C59.4182 67.8423 58.0168 68.5913 56.1465 68.7847C56.14 67.6434 56.2449 66.3835 56.5796 65.194C57.1289 64.916 57.6881 64.7707 58.1646 64.8531C59.3503 65.0596 60.055 65.4915 60.4495 65.841Z" fill="#E8945B"/>
<path d="M59.0172 74.2603H56.1465C56.1465 74.2603 56.052 73.3591 56.315 72.4963C57.0355 72.7202 58.5026 73.2816 59.0172 74.2603Z" fill="#1F396D"/>
<path d="M56.3047 63.275L55.6874 65.841L55.3054 67.4294L54.0344 72.7158C54.0344 72.7158 52.9466 73.0502 51.8158 72.7158C51.8158 72.7158 51.3969 70.9665 51.3849 68.7847C51.3784 67.6434 51.4833 66.3835 51.818 65.194C51.9538 64.71 52.1283 64.238 52.3478 63.7899C54.1409 60.1368 56.3047 63.2756 56.3047 63.2756V63.275Z" fill="#FFB27D"/>
<path d="M51.6952 72.1175C51.6952 72.1175 53.0286 72.4193 54.1789 72.1175C54.1789 72.1175 55.2603 73.036 55.9139 73.3178C56.5676 73.5996 57.2898 73.4463 57.3582 74.2602H51.3849C51.3849 74.2602 51.2605 73.0713 51.6952 72.1175Z" fill="#2B478B"/>
<path d="M55.6874 65.841L55.3054 67.4294C54.6561 67.8423 53.2547 68.5913 51.3849 68.7847C51.3784 67.6434 51.4833 66.3835 51.818 65.194C52.3674 64.916 52.9265 64.7707 53.4025 64.8531C54.5881 65.0596 55.2929 65.4915 55.6874 65.841Z" fill="#E8945B"/>
<path d="M62.3128 65.6714C62.1693 66.2008 61.6873 66.5683 61.1374 66.5683H51.5593C50.8383 66.5683 50.2699 65.9564 50.3253 65.24C50.4259 63.9389 50.785 61.814 50.9421 60.379C51.0073 59.7829 51.0372 59.306 50.9991 59.0567C50.0325 52.6767 49.2207 45.1619 49.3196 43.7258C49.3337 43.5237 49.3435 43.4191 49.3435 43.4191C49.3435 43.4191 50.0412 43.3606 51.1024 43.3194C54.1866 43.198 60.3441 43.2191 61.3667 45.2308C62.4089 47.2797 63.0382 60.8862 63.0382 60.8862C63.1903 62.1576 62.6524 64.419 62.3128 65.6714Z" fill="#C65447"/>
<path d="M50.9421 60.3785C51.0073 59.7823 51.0372 59.3055 50.9991 59.0562C50.0325 52.6762 49.2207 45.1614 49.3196 43.7253C49.3337 43.5232 49.3435 43.4186 49.3435 43.4186C49.3435 43.4186 50.0412 43.36 51.1024 43.3188C52.6977 44.2564 53.7367 45.8534 53.7367 45.8534C53.7367 45.8534 53.415 57.7924 50.9426 60.379L50.9421 60.3785Z" fill="#B2443B"/>
<path d="M56.8893 17.1393C56.1242 16.9485 55.6797 17.5495 55.6797 18.2578C55.6797 18.9661 56.2552 19.54 56.9654 19.54C57.6756 19.54 58.251 18.7195 58.251 18.0118C58.251 17.304 57.5783 17.3116 56.8898 17.1398L56.8893 17.1393Z" fill="#B2443B"/>
<path d="M56.4943 24.4807C56.4943 24.4807 52.5086 20.9007 56.1166 18.3662C56.1166 18.3662 57.1936 18.0801 57.7408 18.1825C57.7408 18.1825 59.7024 17.6102 60.85 18.939C61.9976 20.2678 62.4964 21.2281 61.5129 22.4138C60.5288 23.5995 56.4948 24.4812 56.4948 24.4812L56.4943 24.4807Z" fill="#C65447"/>
<path d="M51.9207 46.1027C51.9207 46.1027 52.9047 48.072 51.0132 49.5769C51.0132 49.5769 50.1933 50.1362 50.0672 49.4095C49.9417 48.6822 50.0868 48.9358 49.8884 47.9159C49.6907 46.8966 49.9439 45.842 50.5318 45.383L51.9201 46.1027H51.9207Z" fill="#FFB27D"/>
<path d="M59.7594 24.4471C59.7594 24.4471 59.7105 24.983 59.6192 25.7076C59.5747 26.0615 59.5209 26.4608 59.4568 26.864C59.4111 27.1534 59.3606 27.4461 59.3057 27.7251L58.0717 31.8817L55.1739 27.2049C55.1739 27.2049 55.8547 26.6429 56.7779 23.5979C56.7866 23.5654 56.7931 23.548 56.7931 23.548L59.76 24.4471H59.7594Z" fill="#FFB27D"/>
<path d="M61.4482 44.9538C61.4857 45.421 61.3673 45.5061 61.3673 45.5061C61.3673 45.5061 59.5856 46.1504 55.1043 45.9277C54.6196 45.9033 54.1627 45.8789 53.7361 45.8534C50.8481 45.6838 49.3038 45.5061 49.3038 45.5061C49.3038 45.5061 46.9385 40.0614 51.3822 33.3524C51.8848 32.5943 52.4744 31.8194 53.1639 31.0347C53.8834 30.2158 54.0426 29.1206 54.3148 28.0801C54.3925 27.7815 54.167 27.7159 54.2795 27.4347C54.2795 27.4347 55.0902 27.2065 55.1733 27.2065C55.6336 27.6108 56.2405 28.3971 57.7479 28.5527C58.7667 28.6589 59.1655 28.0861 59.3106 27.743C59.6991 27.8829 60.1012 28.1251 60.431 28.2828C63.1615 29.5904 63.4126 32.1255 63.4126 32.1255C63.4126 32.1255 60.9032 40.3546 60.7473 41.3821C60.6777 41.8389 61.2532 42.5494 61.4477 44.9555L61.4482 44.9538Z" fill="#739AF0"/>
<path d="M59.6192 25.7081C59.5747 26.062 59.4247 27.031 59.3606 27.4341C56.2922 26.2408 56.6937 23.916 56.7774 23.5984C56.7861 23.5659 56.7926 23.5486 56.7926 23.5486C56.7926 23.5486 58.4162 24.698 59.6192 25.7081Z" fill="#E8945B"/>
<path d="M60.2767 26.1189C60.2767 26.1189 56.7328 26.2322 56.6959 24.0304C56.6589 21.828 56.1769 20.3594 58.4379 20.1941C60.6989 20.0288 61.1532 20.8618 61.3444 21.5939C61.5357 22.326 61.1977 26.0333 60.2767 26.1195V26.1189Z" fill="#FFB27D"/>
<path d="M60.5864 19.8641C60.5864 19.8641 60.3642 23.541 56.0433 23.1465C56.0433 23.1465 56.1351 18.0546 60.5864 19.8641Z" fill="#C65447"/>
<path d="M59.7594 20.2299C59.7594 20.2299 60.9701 21.7245 61.5194 22.2008C61.5194 22.2008 62.8665 20.2738 59.7594 20.2299Z" fill="#C65447"/>
<path d="M59.7594 20.2299C59.7594 20.2299 60.8473 22.0621 61.3961 22.5384C61.3961 22.5384 62.8659 20.2738 59.7594 20.2299Z" fill="#C65447"/>
<path d="M53.7361 45.8534C50.8481 45.6838 49.3038 45.506 49.3038 45.506C49.3038 45.506 46.9385 40.0614 51.3822 33.3524C52.282 35.4437 54.4039 41.0336 53.7361 45.8534Z" fill="#4A82D3"/>
<path d="M55.1739 27.2054C55.1739 27.2054 51.7452 27.9072 50.2177 29.6712C49.0473 31.0227 47.7671 37.6314 47.7671 38.7234C47.7671 39.8154 48.9696 45.3147 49.7206 46.3785C49.7727 46.4522 49.8597 46.4934 49.9499 46.4837L51.8805 46.2794C52.0413 46.2626 52.156 46.1146 52.131 45.9548L51.0459 38.9418L54.8538 32.2057C54.8538 32.2057 57.0991 29.5514 55.1733 27.2054H55.1739Z" fill="#739AF0"/>
<path d="M69.8825 72.3619C69.8825 72.3619 70.1732 72.9271 70.8166 73.0669C71.2219 73.1547 71.5692 73.3655 71.7849 73.6603C71.9675 73.9096 71.7909 74.2602 71.4811 74.2602H68.2149C67.9367 74.2602 67.7199 74.0207 67.7476 73.7449C67.7721 73.5037 67.7976 73.2225 67.8085 73.0068C67.8324 72.5364 68.3051 72.1576 68.3051 72.1576L69.8825 72.3614V72.3619Z" fill="#2C3A64"/>
<path d="M70.6221 64.1459C70.7584 66.623 70.4194 72.2535 70.4194 72.2535C70.4194 72.2535 70.1917 72.8816 68.7534 73.0312C67.9829 73.1114 67.2895 72.9119 67.2895 72.9119C66.9994 71.5788 66.7309 70.3058 66.4837 69.0957C64.7085 60.4082 64.0157 55.0422 64.0157 55.0422L71.0242 53.4175C71.0242 53.4175 70.7171 58.3218 70.6269 61.6666C70.5987 62.7103 70.5916 63.6028 70.6215 64.1459H70.6221Z" fill="#35488B"/>
<path d="M71.0252 53.418C71.0252 53.418 70.7182 58.3224 70.628 61.6671L66.4848 69.0963C64.7096 60.4088 64.0168 55.0427 64.0168 55.0427L71.0252 53.418Z" fill="#2C3A64"/>
<path d="M63.9787 42.1851C63.9787 42.1851 61.2668 40.9539 59.215 42.0312C57.1632 43.1086 58.4178 51.9977 61.3515 52.8593C61.3515 52.8593 66.8483 54.6124 63.9787 42.1851Z" fill="#35488B"/>
<path d="M71.8235 55.4903C71.8153 55.4784 71.8066 55.467 71.7969 55.4556C71.7322 55.3575 71.623 55.1126 71.5431 54.9229C72.0886 52.2594 71.7213 50.7193 71.7213 50.7193C71.786 49.9438 72.2506 44.5268 71.1812 42.0166C70.6655 40.8059 69.8016 40.8038 69.8016 40.8038C69.8016 40.8038 70.0043 42.7384 69.8706 43.7784C69.7478 44.7332 70.6607 53.6787 70.8112 55.1413C70.809 55.1413 70.8068 55.1413 70.8063 55.1419L70.8492 56.6283L71.2866 56.5254C71.3051 56.5205 71.3236 56.514 71.3415 56.5059C71.3948 56.4815 71.4415 56.4425 71.4752 56.3894L71.8284 55.8312C71.8963 55.7239 71.8903 55.59 71.824 55.4903H71.8235ZM70.991 55.2492L71.0095 55.2383L71.0003 55.2502C71.0003 55.2502 70.9954 55.2508 70.991 55.2492Z" fill="#E8945B"/>
<path d="M64.1961 72.3619C64.1961 72.3619 64.4868 72.9271 65.1302 73.0669C65.5355 73.1547 65.8827 73.3655 66.0984 73.6603C66.281 73.9096 66.1044 74.2602 65.7947 74.2602H62.5285C62.2503 74.2602 62.0335 74.0207 62.0612 73.7449C62.0856 73.5037 62.1112 73.2225 62.122 73.0068C62.1459 72.5364 62.6187 72.1576 62.6187 72.1576L64.1961 72.3614V72.3619Z" fill="#2C3A64"/>
<path d="M66.4685 30.8748C65.7697 30.8748 64.8921 31.175 64.4216 31.6313C63.9217 32.1163 63.4011 32.1407 63.0305 32.7129C62.6442 33.3096 62.4051 33.9296 62.5991 34.7684C62.811 35.6854 62.7681 36.5725 63.3452 37.2456C63.631 37.5788 64.0966 37.6162 64.4216 37.9224C65.0177 38.4844 65.6953 38.6621 66.4685 38.6621C67.9258 38.6621 68.8327 37.801 69.5788 36.728C70.1765 35.8685 70.058 35.2887 70.1982 34.5538C70.6394 32.2393 68.7039 30.8748 66.4685 30.8748Z" fill="#35488B"/>
<path d="M68.5203 40.2044L65.7344 41.6242L65.1763 39.6966C65.1763 39.6966 65.5312 39.0295 65.692 37.937C65.7594 37.4775 65.7925 36.9426 65.7496 36.3503L68.0193 37.5094C68.0193 37.5094 67.9649 37.7186 67.9291 38.0275C67.8905 38.3613 67.8731 38.8111 67.9682 39.2387C68.0502 39.6056 68.2149 39.9562 68.5203 40.2039V40.2044Z" fill="#FFB27D"/>
<path d="M62.0661 54.1719C62.0661 54.1719 61.5363 61.1735 61.6542 72.3326C61.6542 72.3326 62.2932 72.6676 63.0637 72.744C64.5025 72.887 64.853 72.318 64.853 72.318C64.853 72.318 66.3245 66.8717 66.6924 64.4179C67.0314 62.1554 69.2587 53.9919 69.2587 53.9919L62.0655 54.1719H62.0661Z" fill="#35488B"/>
<path d="M70.3618 40.399C70.114 40.283 69.3354 39.9698 68.1665 39.778C68.179 40.1774 68.0736 40.5534 67.371 40.645C66.4359 40.7664 65.5996 40.1302 65.1763 39.6978C65.1763 39.6978 64.5172 39.7682 63.7484 39.9357C63.3636 40.0197 62.9518 40.1286 62.5812 40.2651C62.1318 40.4299 61.7438 40.6353 61.5368 40.8884C60.8174 41.769 59.6339 44.4211 59.6339 44.4211C59.6339 44.4211 61.6042 45.1495 62.1014 45.5749L62.1128 45.6697L62.4214 48.2238L61.5031 53.3108C61.4955 53.3552 61.4906 53.4002 61.4906 53.4435C61.4906 53.7839 61.7237 54.0895 62.0666 54.1719C62.0666 54.1719 62.1454 54.1849 62.291 54.2049C63.2648 54.3415 67.2173 54.8113 70.3161 53.9724C71.0128 53.7839 71.4719 53.12 71.4143 52.402L70.909 46.0788C71.1785 46.0328 71.4898 45.984 71.743 45.9558C71.9533 45.9331 72.1223 45.9255 72.1924 45.9461C72.1924 45.9461 71.8425 41.0081 70.3623 40.399H70.3618Z" fill="#F99746"/>
<path d="M64.514 49.7823C64.4748 51.5571 63.3088 53.6429 62.2899 54.2049C62.1443 54.1848 62.0655 54.1718 62.0655 54.1718C61.7226 54.0895 61.4895 53.7838 61.4895 53.4435C61.4895 53.3996 61.4939 53.3552 61.502 53.3107L62.4203 48.2237L62.1117 45.6697C62.1264 45.6252 62.1345 45.6014 62.1345 45.6014C62.1345 45.6014 64.5824 46.6467 64.5134 49.7823H64.514Z" fill="#ED7D2B"/>
<path d="M71.742 45.9558C71.4828 45.9846 70.9068 46.0794 70.9068 46.0794L70.615 43.431C70.615 43.431 71.5898 45.2979 71.742 45.9564V45.9558Z" fill="#ED7D2B"/>
<path d="M61.6661 52.4025L61.9047 51.0813C65.9441 45.2524 66.2501 44.2065 64.4336 41.5896C63.913 40.8401 62.967 40.3713 62.5812 40.2656C62.9518 40.1285 63.3636 40.0202 63.7484 39.9362C64.132 40.1161 64.4846 40.2922 64.7579 40.5285C70.3026 45.3158 61.6667 52.403 61.6667 52.403L61.6661 52.4025Z" fill="#35488B"/>
<path d="M66.3837 44.9213C64.802 45.0302 64.583 46.6468 64.583 46.6468C64.583 46.6468 61.9286 46.8868 61.5363 47.0608C61.5363 47.0608 61.7514 46.4798 62.1345 45.6014C61.7884 45.2622 60.6511 44.7571 59.898 44.5251C59.3236 45.9867 59.103 47.4336 59.4253 48.828C59.4595 48.9754 59.5894 49.0805 59.7404 49.0876C60.5854 49.1266 63.3767 49.113 65.4209 47.425L65.4567 47.4152C65.9458 47.3859 66.4055 46.9015 66.5815 46.2642C66.7581 45.6269 66.7722 45.822 66.907 45.3733C67.0423 44.9245 66.3832 44.9207 66.3832 44.9207L66.3837 44.9213Z" fill="#FFB27D"/>
<path d="M67.9682 39.2393C66.6777 39.2052 65.692 37.9371 65.692 37.9371L67.9291 38.0276C67.8905 38.3614 67.8731 38.8112 67.9682 39.2388V39.2393Z" fill="#E8945B"/>
<path d="M68.091 38.4616C68.091 38.4616 65.2394 38.8085 65.1785 36.8044C65.1177 34.8004 66.3066 33.5025 67.0999 33.5177C68.6822 33.5475 68.943 34.1848 69.1261 34.8487C69.3098 35.5125 69.4038 38.3202 68.091 38.4616Z" fill="#FFB27D"/>
<path d="M67.3281 37.3068C67.3281 37.3068 67.3901 37.5566 68.015 37.5105C68.015 37.5105 68.5393 37.4721 68.5203 37.1968C68.5203 37.1968 68.009 37.0071 67.3287 37.3068H67.3281Z" fill="white"/>
<path d="M67.8052 33.5361C67.8052 33.5361 65.3682 33.5345 65.9279 35.2036C66.281 36.2555 65.1073 36.4186 65.1073 36.4186L64.5428 34.7327L64.8965 33.4196L67.8052 33.5361Z" fill="#35488B"/>
<path d="M100.92 32.4799C100.313 31.4741 99.9361 26.9843 99.4976 25.7818C99.2205 25.0215 98.4788 24.1132 98.557 24.0569C97.7681 23.593 95.6326 23.3697 95.6326 23.3697C95.6326 23.3714 95.6326 23.373 95.6326 23.3741C95.5494 23.3567 95.4663 23.3394 95.3864 23.3237C95.1305 23.2722 94.8887 23.1232 94.8599 22.8647C94.8588 22.8517 94.8577 22.8381 94.8561 22.8256C94.8235 22.5075 94.8164 22.1824 94.8202 21.9006C94.8202 21.8968 94.8202 21.8925 94.8202 21.8887C94.8273 21.428 94.8626 21.0861 94.8626 21.0861L94.8539 21.085L92.086 20.6412C92.0485 21.5028 91.9979 22.1445 91.9452 22.623C91.905 22.9893 91.6062 23.2738 91.2378 23.2966C91.1829 23.2993 91.1269 23.3031 91.0709 23.3069C91.0709 23.3069 89.2865 23.237 88.604 23.4451C88.5502 23.4613 88.4926 23.4857 88.4307 23.5166C88.472 23.5599 81.8591 30.1703 82.0297 30.9355C82.2003 31.7012 85.102 36.0479 86.1539 36.8494H87.207C87.207 36.8494 84.8732 31.5408 84.8428 31.1105C84.7982 30.4803 90.7118 26.9545 90.7118 26.3113C90.7118 26.0777 92.3604 26.0067 93.4384 26.0148C94.5801 26.0235 96.7302 25.429 96.7302 25.429C96.7302 25.429 97.6599 32.4534 98.8342 34.5371C99.7606 36.1802 103.852 40.3898 103.852 40.3898L104.715 39.6262C104.715 39.6262 102.391 34.9159 100.92 32.4799H100.92Z" fill="#FFB27D"/>
<path d="M92.5419 59.5146C93.0412 64.4211 92.4365 70.8461 92.4365 70.8461H90.7411C88.1813 64.1318 88.1047 59.9194 87.9585 58.3376C87.8792 57.4759 86.7125 54.0309 85.6649 50.7171C84.7895 47.9506 83.9989 45.2751 83.9935 44.2731C83.9821 41.9759 86.2767 38.2914 86.2767 38.2914C86.2767 38.2914 89.574 39.5601 91.6089 40.8135C92.2881 41.2319 92.8081 41.641 92.9858 41.9879C93.4575 42.9108 93.8074 49.4967 92.5517 53.5199C91.7958 55.9423 92.1832 57.1844 92.1832 57.1844C92.3403 57.8916 92.4566 58.6806 92.5413 59.5141L92.5419 59.5146Z" fill="#C65447"/>
<path d="M92.5522 53.5199C91.7963 55.9423 92.1838 57.1844 92.1838 57.1844C92.3408 57.8916 92.4571 58.6806 92.5418 59.5141L85.6654 50.7171C84.79 47.9506 83.9994 45.2751 83.994 44.2731C83.9826 41.9759 86.2773 38.2914 86.2773 38.2914C86.2773 38.2914 89.5745 39.5601 91.6094 40.8135C92.2886 41.2319 92.8086 41.641 92.9863 41.9879C93.458 42.9108 93.8079 49.4967 92.5522 53.5199Z" fill="#B2443B"/>
<path d="M90.7411 70.8461C90.7411 70.8461 90.6449 71.9489 90.5031 72.1755C90.3608 72.4025 89.7636 73.1683 89.0811 73.4235C88.3986 73.6787 86.4463 73.5465 86.2947 74.2543H93.176C93.176 74.2543 93.2705 73.1937 93.0054 72.4957C92.7402 71.7977 92.4365 70.8461 92.4365 70.8461H90.7411Z" fill="#2B478B"/>
<path d="M102.244 70.5974C102.244 70.5974 103.014 71.646 103.203 72.0622C103.393 72.4779 104.644 74.2391 104.492 74.2537C104.341 74.2684 101.004 74.2537 101.004 74.2537C101.004 74.2537 100.663 73.423 100.701 72.8561C100.739 72.2887 100.246 71.2125 100.341 70.5974C100.436 69.9823 102.244 70.5974 102.244 70.5974Z" fill="#2B478B"/>
<path d="M102.244 70.5974H100.341C100.341 70.5974 92.919 59.8967 92.6636 57.1762C92.3446 53.7741 89.9608 40.3437 89.9608 40.3437L97.5746 37.9799C97.5746 37.9799 98.2402 39.6864 98.7977 41.4075C99.0406 42.1581 99.2629 42.9108 99.4009 43.5264C99.7057 44.885 98.8477 50.0175 98.262 53.6668C97.9724 55.4643 97.7496 56.902 97.7642 57.3513C97.8088 58.7126 100.311 58.8887 102.244 70.598V70.5974Z" fill="#C65447"/>
<path d="M92.0479 21.3852C92.0436 21.454 92.0398 21.5207 92.0349 21.5852C92.0392 21.5207 92.0436 21.454 92.0479 21.3852Z" fill="#2B478B"/>
<path d="M92.0642 21.1023C92.0604 21.1755 92.0566 21.247 92.0523 21.3169C92.0566 21.247 92.0599 21.1755 92.0642 21.1023Z" fill="#2B478B"/>
<path d="M92.0865 20.6406C92.0843 20.6943 92.0816 20.7474 92.0789 20.7994C92.0811 20.7474 92.0832 20.6943 92.086 20.6406H92.0865Z" fill="#2B478B"/>
<path d="M98.6375 39.7682C98.8852 40.5122 95.3033 40.9469 91.3274 40.8943C90.2043 40.8797 89.1599 40.7431 88.2992 40.5209C86.4794 40.0516 85.478 39.1976 86.2773 38.292C86.5044 38.0346 89.0246 34.4379 89.0246 34.4379C89.1735 34.116 89.0121 33.0609 88.2427 30.5529C87.9275 29.5276 88.3383 28.8897 88.485 28.4827C88.485 28.4827 88.485 28.4827 88.485 28.4816C88.5355 28.3402 88.5546 28.2269 88.5008 28.1343C88.1568 27.5409 87.6596 26.9692 87.2097 26.5129C86.6316 25.9254 86.13 25.5314 86.13 25.5314C86.13 25.5314 87.6058 23.9274 88.4307 23.5155C89.2805 24.4042 91.1236 25.9959 93.4384 26.0137C95.4353 26.0289 97.3757 24.9066 98.5576 24.0558C98.6461 24.1078 98.7184 24.1631 98.7679 24.2211C99.5058 25.0849 99.7166 26.6429 99.7166 26.6429C99.7166 26.6429 97.341 27.95 97.3839 28.376C97.5018 29.5487 97.6132 29.8917 97.561 30.3106V30.315C97.542 30.4618 97.5034 30.619 97.4377 30.8249C97.0323 32.0941 96.1553 34.0542 96.3743 34.7143C96.4308 34.8855 98.2815 38.7001 98.6369 39.7682H98.6375Z" fill="#2B478B"/>
<path d="M88.6045 23.444C88.6426 23.4326 88.6844 23.4212 88.729 23.412C88.6844 23.4223 88.642 23.4331 88.604 23.4445L88.6045 23.444Z" fill="#FFB27D"/>
<path d="M94.9876 23.1253C95.0452 23.1844 95.1191 23.231 95.2006 23.2657C95.1191 23.231 95.0458 23.1844 94.9876 23.1253Z" fill="#FFB27D"/>
<path d="M95.2006 23.2657C95.2299 23.2782 95.2604 23.289 95.2919 23.2987C95.2604 23.2895 95.2299 23.2782 95.2006 23.2657Z" fill="#FFB27D"/>
<path d="M104.715 39.6262C104.715 39.6262 106.17 40.0018 106.369 40.2044C106.568 40.4071 107.139 41.9803 106.938 41.9949C105.895 42.0708 105.345 41.5126 105.345 41.5126C104.715 40.8206 103.773 40.7106 103.82 40.2039C103.867 39.6977 104.715 39.6257 104.715 39.6257V39.6262Z" fill="#FFB27D"/>
<path d="M86.1539 36.8489C86.1539 36.8489 85.1003 38.176 85.1003 38.4172C85.1003 38.6583 85.3133 39.6647 85.5692 39.6793C85.8252 39.6934 85.9105 38.8572 86.1094 38.7012C86.3082 38.5451 87.0195 38.2519 87.119 37.9804C87.2184 37.7089 87.2064 36.8494 87.2064 36.8494H86.1534L86.1539 36.8489Z" fill="#FFB27D"/>
<path d="M91.955 22.5373C93.2629 22.3699 94.8545 21.0844 94.8545 21.0844C93.9253 20.5815 93.1189 20.5333 92.4929 20.7062C92.3435 20.7474 92.2044 20.8005 92.0756 20.8639L91.9545 22.5373H91.955Z" fill="#E8945B"/>
<path d="M91.4812 21.273C91.4812 21.273 94.7154 22.3493 95.3566 20.3306C95.9977 18.3114 96.847 17.0905 94.8088 16.3177C92.7712 15.5449 92.1229 16.1882 91.7447 16.8103C91.3665 17.4325 90.6558 20.9414 91.4807 21.273H91.4812Z" fill="#FFB27D"/>
<path d="M92.6419 20.3848C92.6419 20.3848 92.5223 20.6189 91.9121 20.4303C91.9121 20.4303 91.3992 20.2721 91.4817 20.0028C91.4817 20.0028 92.0338 19.9312 92.6419 20.3854V20.3848Z" fill="white"/>
<path d="M100.16 16.5329C99.7976 16.069 100.987 15.1114 98.5712 13.9609C96.7384 13.0879 96.1705 14.4102 96.0032 15.1C94.9137 14.4795 93.1347 12.6934 92.0007 13.8569C90.6428 15.2501 92.1159 16.477 92.1159 16.477C92.631 16.851 92.8815 16.748 93.634 16.9127C94.3872 17.0775 93.9063 17.9467 93.965 18.2399C94.0236 18.5331 94.5377 19.1254 95.2343 18.8263C95.9309 18.5271 95.8505 19.6711 95.1886 19.9063C95.0001 19.9735 94.8039 21.0254 95.0773 21.0698C95.3071 21.1072 96.1374 21.1148 96.2216 20.4396C96.2716 20.0385 96.7824 19.8293 97.3241 19.4153C97.699 19.7708 98.2256 19.9524 98.5163 19.9106C98.9445 19.8494 98.9488 19.5069 99.8655 18.8972C100.782 18.2876 100.523 16.9973 100.161 16.5334L100.16 16.5329Z" fill="#C65447"/>
<path d="M88.2992 40.5209C86.4794 40.0516 85.478 39.1975 86.2773 38.2914C86.5044 38.034 89.0246 34.4373 89.0246 34.4373C89.0246 34.4373 89.7 38.499 88.2992 40.5209Z" fill="#233862"/>
<path d="M100.096 74.2575L99.8242 45.1564C99.8242 45.1564 99.5889 43.0603 97.7556 43.0603C95.7994 43.0603 95.6869 45.1564 95.6869 45.1564C95.6869 45.1564 95.7152 45.3374 95.9157 45.3374C96.1162 45.3374 96.1607 45.1564 96.1607 45.1564C96.1607 45.1564 96.2471 43.5404 97.7556 43.5404C99.1689 43.5404 99.3504 45.1564 99.3504 45.1564V74.2575H100.096Z" fill="#233862"/>
<path d="M99.0993 74.2575H100.316L100.207 72.9883C100.207 72.9883 100.218 72.8122 99.972 72.8019C99.7438 72.7927 99.2922 72.7602 99.2499 72.8978C99.2124 73.0187 99.0993 74.257 99.0993 74.257V74.2575Z" fill="#233862"/>
<path d="M97.7409 41.5186L97.6577 41.9347C97.6577 41.9347 95.5945 41.9272 95.1126 44.1317C95.1126 44.1317 94.9816 45.0492 95.6451 44.8535C96.3085 44.6573 96.2053 44.1897 97.1443 43.9328C98.0832 43.6765 98.6956 43.4798 98.838 42.798L98.9917 42.0393L97.7414 41.5186H97.7409Z" fill="#FFB27D"/>
<path d="M105.036 23.4753C105.036 23.4753 104.49 25.6165 104.019 27.5744C103.829 28.3629 103.652 29.1216 103.527 29.6982C103.4 30.2911 103.327 30.6921 103.355 30.7365C103.764 31.3993 103.017 35.4387 102.425 36.9057C102.373 37.0358 102.301 37.1881 102.215 37.3577C101.388 38.9748 99.1863 42.1477 99.1863 42.1477C99.1863 42.1477 98.5652 42.2127 98.1587 42.0599C97.8197 41.932 97.5882 41.5185 97.5882 41.5185C97.7849 41.2026 98.582 37.4688 99.6068 35.3759C100.045 34.4806 100.691 26.1719 101.541 25.0534C102.249 24.1202 105.035 23.4759 105.035 23.4759L105.036 23.4753Z" fill="#F99746"/>
<path d="M103.356 30.7365C103.765 31.3993 103.017 35.4388 102.426 36.9057C102.374 37.0358 102.302 37.1881 102.216 37.3577C101.426 33.871 102.735 28.9319 102.735 28.9319C103.062 29.0609 103.328 30.6921 103.356 30.7365Z" fill="#ED7D2B"/>
<path d="M109.082 71.052C109.082 71.052 109.292 74.2076 108.694 74.2515C108.615 74.2575 105.664 74.2575 105.664 74.2575H101.857C101.857 74.2575 101.922 73.3303 103.022 73.139C104.123 72.9477 105.967 72.176 106.634 70.7242C107.335 69.1971 109.082 71.0515 109.082 71.0515V71.052Z" fill="#0F2949"/>
<path d="M114.807 71.052C114.807 71.052 115.017 74.2076 114.419 74.2515C114.34 74.2575 111.389 74.2575 111.389 74.2575H107.583C107.583 74.2575 107.647 73.3303 108.748 73.139C109.848 72.9477 111.692 72.176 112.359 70.7242C113.061 69.1971 114.807 71.0515 114.807 71.0515V71.052Z" fill="#163560"/>
<path d="M109.262 63.4462C109.356 64.7804 109.546 66.4961 109.478 68.0428C109.383 70.2056 109.314 72.0291 109.314 72.0291C107.885 72.5142 105.261 71.9256 105.261 71.9256C105.261 71.9256 104.331 66.4604 103.564 62.0979C103.22 60.1432 102.935 58.4519 102.829 57.6537C102.483 55.0725 103.196 41.3489 103.196 41.3489C103.196 41.3489 107.064 38.8762 108.663 40.1513C110.261 41.4259 111.244 42.6718 108.669 56.6359C108.474 57.6954 109.052 60.4575 109.262 63.4462Z" fill="#2B478B"/>
<path d="M109.262 63.4462C109.356 64.7804 109.528 66.9161 109.46 68.4628C108.115 67.0435 105.464 64.0483 103.565 62.0979C103.221 60.1432 102.936 58.4519 102.829 57.6537C102.484 55.0725 103.196 41.3489 103.196 41.3489C103.196 41.3489 107.065 38.8762 108.663 40.1513C110.261 41.4259 111.245 42.6718 108.67 56.6359C108.474 57.6954 109.052 60.4575 109.262 63.4462H109.262Z" fill="#233862"/>
<path d="M106.692 41.6286C106.692 41.6286 107.039 55.3662 107.582 57.9132C108.125 60.4602 110.958 72.1202 110.958 72.1202C110.958 72.1202 113.614 72.3613 115.002 71.7685C115.002 71.7685 114.913 66.3682 114.443 63.1958C114.003 60.2321 113.214 57.522 113.327 56.4511C114.819 42.3309 113.742 41.1641 112.05 40.0158C110.359 38.8669 106.692 41.6291 106.692 41.6291V41.6286Z" fill="#2B478B"/>
<path d="M111.942 42.8311C111.942 42.8311 111.022 44.6725 112.791 46.0799C112.791 46.0799 113.557 46.6028 113.675 45.9233C113.793 45.2432 113.657 45.4805 113.842 44.5267C114.028 43.5735 113.791 42.5872 113.241 42.158L111.942 42.8311Z" fill="#FFB27D"/>
<path d="M104.185 20.3626C104.185 20.3626 105.248 21.9726 105.036 23.4754L106.607 27.252L109.442 22.9286C109.442 22.9286 107.944 21.3023 107.385 19.0858L104.185 20.3626H104.185Z" fill="#FFB27D"/>
<path d="M103.72 21.7364C103.72 21.7364 107.587 21.9033 107.657 19.5877C107.728 17.272 108.773 15.7314 105.88 15.5281C103.501 15.3607 102.711 16.3502 102.498 17.1176C102.286 17.8849 102.286 21.6123 103.719 21.7364H103.72Z" fill="#FFB27D"/>
<path d="M113.188 42.2902C112.357 42.3672 111.213 42.4631 109.825 42.5498C109.548 42.5672 109.261 42.5845 108.965 42.6008C104.774 42.8349 103.108 42.158 103.108 42.158C103.108 42.158 102.997 42.0686 103.032 41.5776C103.214 39.0501 103.752 38.3033 103.687 37.8232C103.541 36.7437 100.915 27.9337 100.915 27.9337C100.915 27.9337 100.864 25.151 103.967 23.8444C104.287 23.7095 104.64 23.5908 105.03 23.4921C105.166 23.8525 105.538 24.4541 106.491 24.343C107.9 24.1793 108.903 23.3512 109.333 22.9258C109.411 22.9258 109.442 22.9286 109.442 22.9286C109.547 23.2244 109.629 23.5333 109.702 23.8466C109.956 24.9407 110.105 26.0912 110.778 26.9518C111.442 27.8009 112.011 28.6388 112.496 29.4581C112.9 30.1399 113.246 30.8091 113.542 31.4616C116.29 37.5176 114.164 42.1986 113.186 42.2902H113.188Z" fill="#F99746"/>
<path d="M113.188 42.2902C112.357 42.3672 111.213 42.4631 109.825 42.5498C109.42 35.7466 112.2 29.2121 112.2 29.2121C112.304 29.2853 112.403 29.3676 112.497 29.4581C112.982 29.9274 113.319 30.6233 113.543 31.4616C114.371 34.5462 113.678 39.5584 113.187 42.2902H113.188Z" fill="#ED7D2B"/>
<path d="M102.473 19.5275C102.473 19.5275 101.72 22.5064 102.998 22.9258C104.276 23.3453 107.668 23.0093 107.667 19.3568C107.667 19.3568 105.887 20.4157 105.036 20.3886C104.186 20.362 103.637 19.8727 102.851 20.2547C102.851 20.2547 102.564 20.2357 102.474 19.5269L102.473 19.5275Z" fill="#C8D9E8"/>
<path d="M109.443 22.928C109.443 22.928 112.146 22.9887 113.575 24.8421C114.669 26.2625 115.827 33.8835 115.827 35.0307C115.827 36.178 114.594 42.5108 113.904 43.1991C113.904 43.1991 113.457 43.3139 112.862 43.1991C112.229 43.0771 111.857 42.7124 111.857 42.7124C111.857 42.7124 112.2 35.662 112.2 35.0004C112.2 34.0428 109.199 28.1819 109.199 28.1819C109.199 28.1819 107.642 25.3927 109.443 22.9275V22.928Z" fill="#F99746"/>
<path d="M107.476 16.2483C107.411 16.0121 107.119 15.888 107.119 15.888C104.941 14.9418 103.349 15.9768 103.349 15.9768C104.684 14.1896 107.906 14.5646 108.585 16.1768C109.693 18.8089 107.666 19.3573 107.666 19.3573C107.666 19.3573 105.642 18.5092 106.814 17.4454C107.203 17.0932 107.39 16.78 107.453 16.5074C107.473 16.4163 107.48 16.3302 107.476 16.2483Z" fill="#C8D9E8"/>
<path d="M104.024 20.9446C104.024 20.9446 103.953 21.1977 103.318 21.1315C103.318 21.1315 102.783 21.0763 102.812 20.7961C102.812 20.7961 103.339 20.6178 104.024 20.9451V20.9446Z" fill="white"/>
<path d="M0.159753 74.2603H135.841C135.929 74.2603 136.001 74.3318 136.001 74.4196V74.4873C136.001 74.5751 135.929 74.6466 135.841 74.6466H0.159753C0.0717257 74.6466 0 74.5751 0 74.4873V74.4196C0 74.3318 0.0717257 74.2603 0.159753 74.2603Z" fill="#2E3552"/>
</g>
<defs>
<clipPath id="clip0_1_421">
<rect width="136" height="74.6466" fill="white"/>
</clipPath>
</defs>
</svg>
