<svg width="23" height="22" viewBox="0 0 23 22" fill="none" xmlns="http://www.w3.org/2000/svg">
<path d="M11.2668 3.52335C11.5337 3.25646 11.9664 3.25646 12.2333 3.52335L20.1511 11.4412C20.418 11.7081 20.8507 11.7081 21.1176 11.4412C21.3845 11.1743 21.3845 10.7416 21.1176 10.4747L13.1997 2.55686C12.3991 1.75619 11.1009 1.75619 10.3003 2.55686L2.38242 10.4747C2.11553 10.7416 2.11553 11.1743 2.38242 11.4412C2.64931 11.7081 3.08202 11.7081 3.34891 11.4412L11.2668 3.52335Z" fill="#7E7E7E"/>
<path d="M11.75 4.97308L19.1846 12.4077C19.2117 12.4348 19.2394 12.4609 19.2675 12.4862V18.1338C19.2675 19.0774 18.5026 19.8423 17.559 19.8423H14.4837C14.1062 19.8423 13.8002 19.5363 13.8002 19.1589V15.0584C13.8002 14.681 13.4943 14.375 13.1168 14.375H10.3832C10.0057 14.375 9.69977 14.681 9.69977 15.0584V19.1589C9.69977 19.5363 9.3938 19.8423 9.01636 19.8423H5.94101C4.99742 19.8423 4.23248 19.0774 4.23248 18.1338V12.4862C4.26067 12.4609 4.28832 12.4348 4.3154 12.4077L11.75 4.97308Z" fill="#7E7E7E"/>
</svg>
