<svg width="110" height="75" viewBox="0 0 110 75" fill="none" xmlns="http://www.w3.org/2000/svg">
<g clip-path="url(#clip0_1_10)">
<path d="M60.5891 43.4797L76.339 53.8851L77.9306 17.3618L60.5922 43.4767L60.5891 43.4797ZM67.2911 41.7291L72.9649 33.1849L72.4693 45.1505L67.2911 41.7291Z" fill="#E3A349"/>
<path d="M61.6625 41.8743L61.5775 42.0023L62.7785 42.7963L62.8636 42.6683L61.6625 41.8743Z" fill="#373D48"/>
<path d="M62.5864 40.4751L62.5014 40.6031L63.7025 41.3969L63.7875 41.2689L62.5864 40.4751Z" fill="#373D48"/>
<path d="M63.513 39.087L63.4279 39.215L64.629 40.009L64.714 39.881L63.513 39.087Z" fill="#373D48"/>
<path d="M64.4393 37.6881L64.3543 37.8161L65.5555 38.6098L65.6405 38.4818L64.4393 37.6881Z" fill="#373D48"/>
<path d="M65.3656 36.2955L65.2806 36.4235L66.4816 37.2174L66.5667 37.0894L65.3656 36.2955Z" fill="#373D48"/>
<path d="M66.2884 34.8936L66.2034 35.0217L67.4045 35.8154L67.4895 35.6874L66.2884 34.8936Z" fill="#373D48"/>
<path d="M67.2172 33.5004L67.1322 33.6284L68.3334 34.4222L68.4184 34.2941L67.2172 33.5004Z" fill="#373D48"/>
<path d="M68.1392 32.0989L68.0542 32.2269L69.2555 33.0205L69.3405 32.8924L68.1392 32.0989Z" fill="#373D48"/>
<path d="M69.0672 30.7133L68.9821 30.8413L70.1833 31.6351L70.2683 31.507L69.0672 30.7133Z" fill="#373D48"/>
<path d="M69.9973 29.3218L69.9123 29.4498L71.1133 30.2438L71.1983 30.1158L69.9973 29.3218Z" fill="#373D48"/>
<path d="M70.9192 27.922L70.8342 28.05L72.0354 28.8437L72.1204 28.7157L70.9192 27.922Z" fill="#373D48"/>
<path d="M71.85 26.5303L71.765 26.6583L72.966 27.4522L73.051 27.3242L71.85 26.5303Z" fill="#373D48"/>
<path d="M72.7739 25.1323L72.6889 25.2603L73.8901 26.0541L73.9751 25.9261L72.7739 25.1323Z" fill="#373D48"/>
<path d="M73.7021 23.7404L73.6171 23.8684L74.8181 24.6623L74.9031 24.5343L73.7021 23.7404Z" fill="#373D48"/>
<path d="M74.6269 22.3452L74.5419 22.4733L75.7431 23.267L75.8281 23.139L74.6269 22.3452Z" fill="#373D48"/>
<path d="M75.5527 20.9489L75.4677 21.0769L76.6688 21.8706L76.7538 21.7426L75.5527 20.9489Z" fill="#373D48"/>
<path d="M76.4759 19.5508L76.3909 19.6789L77.5921 20.4726L77.6771 20.3446L76.4759 19.5508Z" fill="#373D48"/>
<path d="M37.6723 61.0534L38.6575 61.554C39.4302 61.9472 40.3784 61.64 40.7724 60.8692L40.9633 60.4975C41.3574 59.7266 41.0495 58.7807 40.2768 58.3876L39.2917 57.887L37.6754 61.0534H37.6723Z" fill="#DF6565"/>
<path d="M37.6723 61.0534L39.2917 57.8869L17.1383 46.6584L15.5221 49.8249L37.6723 61.0534Z" fill="#F3D34F"/>
<path d="M17.0552 48.6088L38.482 59.4687L38.2326 59.9601L16.8028 49.1002L17.0552 48.6088Z" fill="#373D48"/>
<path d="M17.8618 47.027L39.2917 57.887L39.1008 58.2617L17.6709 47.4017L17.8618 47.027Z" fill="#373D48"/>
<path d="M16.3718 49.9478L37.7985 60.8078L37.6723 61.0535L16.2455 50.1935L16.3718 49.9478Z" fill="#373D48"/>
<path d="M15.3193 49.7236L16.3537 50.2518C16.5754 50.3624 16.8432 50.2764 16.9571 50.0553C17.068 49.8342 16.9818 49.567 16.7601 49.4533C16.9818 49.5639 17.2496 49.4779 17.3635 49.2568C17.4743 49.0356 17.3881 48.7684 17.1695 48.6548C17.3912 48.7654 17.659 48.6794 17.7729 48.4582C17.8715 48.2678 17.816 48.0375 17.656 47.9085C17.8561 47.9638 18.0746 47.8716 18.1732 47.6812C18.284 47.4601 18.1978 47.1929 17.9761 47.0792L16.9417 46.5541L12.0068 46.0381L15.3255 49.7205L15.3193 49.7236Z" fill="#F7E9B3"/>
<path d="M13.3856 47.5767C13.6626 47.4876 13.9058 47.2911 14.0475 47.0147C14.1706 46.7751 14.1952 46.511 14.1429 46.2653L12.0033 46.0411L13.3886 47.5767H13.3856Z" fill="#2E4560"/>
<path d="M33.4208 20.1106L31.8631 61.7138C31.8385 62.3403 32.331 62.8686 32.9591 62.8931L41.7915 63.2218C42.4195 63.2463 42.949 62.7549 42.9736 62.1284L44.5314 20.5252C44.556 19.8987 44.0634 19.3704 43.4354 19.3458L34.603 19.0172C33.975 18.9926 33.4455 19.484 33.4208 20.1106ZM40.5847 22.2297C40.5508 23.1542 39.7719 23.8759 38.8422 23.8421C37.9155 23.8084 37.1921 23.0313 37.2259 22.1038C37.2598 21.1794 38.0387 20.4576 38.9684 20.4914C39.8951 20.5252 40.6185 21.3022 40.5847 22.2297Z" fill="#F3D34F"/>
<path d="M39.2123 56.3784L39.187 57.0536L43.1556 57.2015L43.1808 56.5263L39.2123 56.3784Z" fill="#373D48"/>
<path d="M39.3199 53.472L39.2946 54.1472L43.2632 54.2951L43.2885 53.6199L39.3199 53.472Z" fill="#373D48"/>
<path d="M39.4308 50.5625L39.4055 51.2377L43.3741 51.3857L43.3993 50.7105L39.4308 50.5625Z" fill="#373D48"/>
<path d="M39.5415 47.6561L39.5162 48.3313L43.4848 48.4792L43.5101 47.804L39.5415 47.6561Z" fill="#373D48"/>
<path d="M39.6491 44.7466L39.6238 45.4218L43.5924 45.5698L43.6177 44.8946L39.6491 44.7466Z" fill="#373D48"/>
<path d="M39.7569 41.8371L39.7316 42.5123L43.7002 42.6602L43.7255 41.985L39.7569 41.8371Z" fill="#373D48"/>
<path d="M39.8676 38.9337L39.8423 39.6089L43.8109 39.7568L43.8362 39.0816L39.8676 38.9337Z" fill="#373D48"/>
<path d="M39.9754 36.0211L39.9501 36.6964L43.9187 36.8443L43.944 36.1691L39.9754 36.0211Z" fill="#373D48"/>
<path d="M40.08 33.1116L40.0547 33.7868L44.0233 33.9347L44.0486 33.2595L40.08 33.1116Z" fill="#373D48"/>
<path d="M40.1938 30.2083L40.1685 30.8835L44.1371 31.0315L44.1624 30.3563L40.1938 30.2083Z" fill="#373D48"/>
<path d="M40.3015 27.2989L40.2762 27.9741L44.2448 28.122L44.2701 27.4468L40.3015 27.2989Z" fill="#373D48"/>
<path d="M40.4123 24.3924L40.387 25.0676L44.3555 25.2155L44.3808 24.5403L40.4123 24.3924Z" fill="#373D48"/>
<path d="M33.4208 20.1106L31.8631 61.7138C31.8385 62.3403 32.331 62.8686 32.9591 62.8931L37.3768 63.059L38.8453 23.8452C37.9186 23.8114 37.1952 23.0344 37.229 22.1069C37.2629 21.1824 38.0418 20.4607 38.9715 20.4945L39.0207 19.1831L34.603 19.0172C33.975 18.9926 33.4455 19.484 33.4208 20.1106Z" fill="#E3A349"/>
<path d="M52.8219 55.0276C52.0492 54.5608 51.5043 53.8206 51.2888 52.9423L46.0245 30.1229C45.8675 29.441 45.3533 28.8974 44.6791 28.7009C44.0696 28.5227 43.6694 28.3722 43.4231 28.2248C41.9084 27.3065 40.8279 25.7893 40.4553 24.0602C40.0798 22.3065 40.44 20.5221 41.462 19.0418C41.5883 18.8575 41.8007 18.7531 42.0254 18.7623C42.2532 18.7715 42.4903 18.9036 42.598 19.1093L44.519 22.7488C45.7258 22.8317 46.868 22.3065 47.5822 21.3544L45.4365 17.2881C45.3379 17.1007 45.3349 16.8796 45.4334 16.6923C45.5319 16.5049 45.7135 16.3759 45.9229 16.3514C47.3729 16.1579 48.7859 16.4281 50.0143 17.1345C51.3935 17.9361 52.3817 19.2998 52.8004 20.992C53.333 23.1634 52.8004 25.2703 51.258 27.0854C50.8424 27.5737 50.6916 28.2248 50.8486 28.8299L56.7656 51.6001C56.978 52.4724 56.8333 53.406 56.3715 54.1646C55.6326 55.3808 54.038 55.7709 52.8188 55.0338L52.8219 55.0276Z" fill="#869294"/>
<path d="M52.354 54.9079C51.5812 54.441 51.0363 53.7009 50.8208 52.8225L45.5565 30.0031C45.3995 29.3212 44.8854 28.7776 44.2112 28.5811C43.6016 28.4029 43.2014 28.2524 42.9551 28.102C41.4405 27.1837 40.3599 25.6665 39.9874 23.9373C39.6118 22.1837 39.972 20.3993 40.9941 18.9189C41.1203 18.7346 41.3327 18.6302 41.5575 18.6394C41.7853 18.6486 42.0223 18.7807 42.1301 18.9865L44.0511 22.6259C45.2579 22.7088 46.4 22.1837 47.1143 21.2316L44.9685 17.1652C44.87 16.9779 44.8669 16.7567 44.9654 16.5694C45.0639 16.3821 45.2456 16.2531 45.4549 16.2285C46.9049 16.035 48.318 16.3053 49.5463 17.0117C50.9255 17.8133 51.9137 19.1769 52.3324 20.8692C52.865 23.0405 52.3324 25.1474 50.7901 26.9625C50.3744 27.4509 50.2236 28.102 50.3806 28.707L56.2976 51.4773C56.51 52.3495 56.3653 53.2832 55.9035 54.0418C55.1647 55.258 53.57 55.648 52.3509 54.9109L52.354 54.9079Z" fill="#C4CCC9"/>
<path d="M49.1184 30.344L53.7055 47.3157L51.3904 47.8378L47.1666 30.7985L49.1184 30.344Z" fill="#E2E7E9"/>
<path d="M54.5983 26.9779C54.5582 27.3864 54.5644 27.3311 54.5459 27.4969C54.4843 28.1235 53.3761 28.2893 53.3022 29.0387C53.2283 29.7881 53.3083 30.0645 54.2257 30.1566C55.1401 30.2488 56.6116 30.3931 56.6116 30.3931C56.6116 30.3931 58.0801 30.5406 58.9975 30.6296C59.9118 30.7218 60.0473 30.4668 60.1243 29.7175C60.1982 28.9681 59.1484 28.5872 59.2099 27.9607C59.2253 27.7979 59.2222 27.8501 59.2623 27.4417C59.3177 26.8827 60.426 26.6892 60.4875 26.0749C60.5645 25.2979 61.642 14.5117 61.8298 12.6351C62.0176 10.7586 61.0017 10.2242 58.6496 9.99079C56.2976 9.75738 55.1986 10.0829 55.0108 11.9595C54.823 13.836 53.7486 24.6222 53.6685 25.3993C53.607 26.0135 54.6567 26.4189 54.6013 26.9779H54.5983Z" fill="#E3A349"/>
<path d="M59.9285 12.0104L58.6609 24.7241C58.6283 25.0516 58.8679 25.3434 59.1961 25.376L59.2421 25.3805C59.5703 25.4131 59.8629 25.1741 59.8955 24.8466L61.163 12.1329C61.1957 11.8055 60.9561 11.5136 60.6278 11.4811L60.5819 11.4765C60.2537 11.4439 59.9611 11.683 59.9285 12.0104Z" fill="#F3D34F"/>
<path d="M56.646 24.5225L57.9138 11.8057C57.9464 11.4787 58.2394 11.2393 58.5672 11.2718L58.6132 11.2764C58.941 11.3089 59.181 11.6012 59.1484 11.9282L57.8806 24.645C57.848 24.972 57.5549 25.2114 57.2271 25.1789L57.1812 25.1744C56.8534 25.1418 56.6134 24.8495 56.646 24.5225Z" fill="#F3D34F"/>
<path d="M54.4894 24.3087L55.755 11.5917C55.7875 11.2647 56.0805 11.0252 56.4083 11.0577L56.4543 11.0622C56.7821 11.0947 57.0221 11.387 56.9896 11.714L55.724 24.431C55.6914 24.758 55.3985 24.9975 55.0707 24.965L55.0247 24.9604C54.6969 24.928 54.4569 24.6357 54.4894 24.3087Z" fill="#F3D34F"/>
<path d="M54.6506 56.2746L57.3628 29.1032L56.1283 28.9803L53.4161 56.1517L52.3109 57.2267L52.7604 61.3698L53.5115 61.4435L54.2627 61.5203L55.5218 57.5461L54.6506 56.2746Z" fill="#E2E7E9"/>
<path d="M53.0681 28.9764L53.0415 29.2423C52.9926 29.7334 53.352 30.1712 53.8443 30.2201L59.3463 30.766C59.8386 30.8149 60.2774 30.4563 60.3264 29.9651L60.3529 29.6992C60.4019 29.2081 60.0425 28.7703 59.5501 28.7214L54.0482 28.1755C53.5558 28.1266 53.117 28.4852 53.0681 28.9764Z" fill="#F3D34F"/>
<path d="M70.3851 18.2832L70.7083 23.231L68.8366 23.922L67.3927 23.3784L66.7339 18.4644C63.6492 19.9662 63.1905 23.2617 63.1505 24.7973L61.4326 24.9202L61.7005 27.5676L62.4455 27.5737C62.4455 27.5737 63.0951 30.344 63.1197 31.2838C63.1443 32.2236 61.9006 35.8016 61.2572 37.7979L54.6783 58.234H54.6844C54.3304 59.6038 55.1 61.0289 56.4669 61.4681C57.8831 61.9226 59.4008 61.1456 59.8564 59.7297L66.2752 35.8876C66.9309 33.8544 67.6575 32.1315 70.1234 30.1259C72.5893 28.1204 73.7777 27.4785 74.498 25.2396C75.2184 23.0006 73.1466 19.8679 70.3851 18.2862V18.2832ZM58.9482 59.4349C58.6558 60.3471 57.6737 60.8507 56.7594 60.5559C55.8451 60.2641 55.3402 59.2844 55.6357 58.3722C55.9313 57.4601 56.9102 56.9564 57.8246 57.2512C58.7389 57.543 59.2438 58.5227 58.9482 59.4349Z" fill="#869294"/>
<path d="M66.3306 18.5473L66.9894 23.4613L69.4892 24.4011L62.7687 25.6941C62.7687 25.6941 62.2331 20.5375 66.3306 18.5442V18.5473Z" fill="#C4CCC9"/>
<path d="M74.0948 25.3194C74.8151 23.0805 72.7433 19.9478 69.9849 18.3661L70.305 23.3139L66.8601 24.5854L61.0294 25L61.2972 27.6474L62.0422 27.6536C62.0422 27.6536 62.6918 30.4238 62.7164 31.3636C62.741 32.3034 61.4973 35.8814 60.8539 37.8778L54.275 58.3139H54.2812C53.9271 59.6837 54.6968 61.1087 56.0636 61.5479C57.4798 62.0024 58.9975 61.2254 59.4531 59.8096L65.8719 35.9674C66.5246 33.9343 67.2542 32.2113 69.7201 30.2058C72.1861 28.2002 73.3744 27.5583 74.0948 25.3194ZM58.548 59.5178C58.2556 60.43 57.2735 60.9337 56.3592 60.6388C55.4448 60.347 54.94 59.3673 55.2355 58.4552C55.528 57.543 56.51 57.0393 57.4244 57.3341C58.3387 57.6259 58.8436 58.6056 58.548 59.5178Z" fill="#C4CCC9"/>
<path d="M74.0948 25.3194C74.8151 23.0805 72.7433 19.9478 69.9849 18.3661L70.3051 23.3139L66.8601 24.5854L61.0294 25L61.2972 27.6474L73.0419 27.3188C73.4852 26.7721 73.8208 26.1579 74.0917 25.3194H74.0948Z" fill="#E2E7E9"/>
<path d="M66.2062 27.2338L64.1278 27.3385C63.9733 27.3463 63.8543 27.4776 63.8621 27.6317L63.967 29.7053C63.9748 29.8594 64.1064 29.9781 64.261 29.9703L66.3394 29.8656C66.4939 29.8578 66.6129 29.7266 66.6051 29.5724L66.5002 27.4989C66.4924 27.3447 66.3608 27.226 66.2062 27.2338Z" fill="#869294"/>
<path d="M64.7606 29.352C64.7667 29.4932 64.659 29.613 64.5174 29.6222C64.3757 29.6284 64.2557 29.5209 64.2464 29.3796L64.1726 27.9361C64.1664 27.7948 64.2741 27.6751 64.4158 27.6658C64.5574 27.6597 64.6774 27.7672 64.6867 27.9085L64.7606 29.352Z" fill="#E2E7E9"/>
<path d="M65.524 29.312C65.5302 29.4533 65.4225 29.5731 65.2808 29.5823C65.1392 29.5885 65.0192 29.481 65.0099 29.3397L64.936 27.8962C64.9299 27.7549 65.0376 27.6351 65.1793 27.6259C65.3209 27.6198 65.4409 27.7273 65.4502 27.8686L65.524 29.312Z" fill="#E2E7E9"/>
<path d="M66.2906 29.2752C66.2968 29.4165 66.189 29.5362 66.0474 29.5454C65.9058 29.5516 65.7857 29.4441 65.7765 29.3028L65.7026 27.8593C65.6965 27.718 65.8042 27.5983 65.9458 27.5891C66.0874 27.5829 66.2075 27.6904 66.2167 27.8317L66.2906 29.2752Z" fill="#E2E7E9"/>
<path d="M58.9051 56.1302L56.6147 55.3962L62.1099 37.9545L63.7446 38.4797L58.9051 56.1302Z" fill="#E2E7E9"/>
<path d="M45.9814 67.586L40.6124 70.9091L15.1434 29.0633L19.712 26.2346L45.9814 67.586Z" fill="#C58161"/>
<path d="M18.8161 20.3685L17.9234 20.0307L4.28842 28.4705L7.88418 34.2506L17.3415 28.3968L21.516 25.8139L31.703 19.5086L30.0252 16.809L25.2657 19.7543C23.3293 20.9521 20.9434 21.1824 18.8131 20.3716L18.8161 20.3685Z" fill="#373D48"/>
<path d="M79.474 19.9168L77.4915 35.978L81.0573 36.416L83.0397 20.3549L79.474 19.9168Z" fill="#373D48"/>
<path d="M81.8189 37.2328L76.9363 36.6339C76.4622 36.5756 76.1266 36.1456 76.1851 35.6726C76.2436 35.1996 76.6746 34.8649 77.1487 34.9232L82.0313 35.5221C82.5054 35.5805 82.841 36.0105 82.7825 36.4834C82.724 36.9564 82.293 37.2912 81.8189 37.2328Z" fill="#8F5564"/>
<path d="M76.3914 61.0964C74.6397 60.8815 73.4206 59.2476 73.7192 57.5123L77.044 35.777L81.9174 36.3759L79.8548 58.2648C79.7224 60.0215 78.1431 61.3114 76.3883 61.0964H76.3914Z" fill="#8F5564"/>
<path d="M68.5565 10.8876L68.3964 12.1806C68.2394 13.4459 69.1906 14.5792 70.4652 14.6499L76.1174 14.9631C77.1456 15.0215 77.9522 15.8692 77.9522 16.898V18.4551C77.9522 19.5854 78.7988 20.5405 79.9256 20.6787L83.1611 21.0749C84.2263 21.207 85.2361 20.5651 85.5716 19.5485L86.1597 17.761C86.4336 16.9287 87.4865 16.6707 88.1176 17.2819L95.2014 24.183C95.4815 24.4564 95.9187 24.4902 96.2389 24.266C96.5775 24.0264 96.6822 23.5719 96.4821 23.2094L91.6918 14.5884C90.9899 13.3231 89.8324 12.371 88.4532 11.9257L80.5013 9.34581C80.0118 9.18611 79.4792 9.21682 79.0112 9.42873C78.4633 9.67751 77.8599 9.77271 77.2626 9.70208L71.0101 8.96498C69.8033 8.8237 68.7104 9.68058 68.5595 10.8814L68.5565 10.8876Z" fill="#C4CCC9"/>
<path d="M92.4953 41.5111L92.0859 41.0811L87.9082 36.6862L83.5428 40.8201C82.9025 41.4251 82.4838 42.2267 82.3484 43.0959L81.9051 45.9767C81.6034 47.9423 80.572 49.7236 79.0174 50.9706L72.7648 55.9736C70.3759 57.8839 68.4579 60.3164 67.1618 63.0836L66.5708 64.3397C66.4476 64.6008 66.4999 64.9079 66.697 65.1137L67.1064 65.5437C67.3034 65.7525 67.6082 65.817 67.8761 65.7095L69.166 65.1874C72.0044 64.0387 74.5381 62.2574 76.5761 59.9755L81.9112 54.0111C83.2381 52.5277 85.076 51.594 87.0586 51.3944L89.9647 51.1057C90.8421 51.0197 91.6672 50.6419 92.3075 50.0369L96.6729 45.903L92.4953 41.508V41.5111ZM70.185 62.2236C69.7786 61.7967 69.794 61.118 70.225 60.7126C70.6529 60.3072 71.3333 60.3225 71.7397 60.7525C72.146 61.1825 72.1306 61.8581 71.6996 62.2636C71.2686 62.669 70.5914 62.6536 70.185 62.2236Z" fill="#C58161"/>
<path d="M96.6745 45.9043L87.9055 36.6857L83.5397 40.8188L92.3088 50.0374L96.6745 45.9043Z" fill="#C4CCC9"/>
<path d="M76.5761 59.9785L76.8193 59.7083L73.0512 55.7463L72.7679 55.9736C70.379 57.8839 68.461 60.3164 67.1649 63.0836L66.5739 64.3397C66.4507 64.6008 66.5031 64.9079 66.7001 65.1137L67.1095 65.5436C67.3066 65.7525 67.6113 65.817 67.8792 65.7095L69.1691 65.1874C72.0075 64.0387 74.5412 62.2574 76.5792 59.9755L76.5761 59.9785ZM70.185 62.2236C69.7786 61.7967 69.794 61.118 70.225 60.7126C70.653 60.3071 71.3333 60.3225 71.7397 60.7525C72.1461 61.1825 72.1307 61.8581 71.6997 62.2635C71.2687 62.6689 70.5914 62.6536 70.185 62.2236Z" fill="#8F5564"/>
<path d="M87.9052 36.6861L96.4236 27.6996L99.89 30.4791L98.4031 32.5399L100.884 31.0105L106.337 38.2924L96.6729 45.903L87.9052 36.6861Z" fill="#F7E9B3"/>
<path d="M106.337 38.2924L100.887 31.0105L98.4061 32.543L99.8931 30.4822L96.4297 27.7027L93.071 31.247C93.0248 31.9933 93.2065 32.7427 93.7421 33.4583C95.54 35.8661 97.0454 34.656 97.7135 38.3538C98.2799 41.4957 97.9844 42.4263 101.371 42.2144L106.343 38.2955L106.337 38.2924Z" fill="#8F5564"/>
<path d="M100.943 4.5946L101.414 5.06451V5.77397L100.943 4.5946Z" fill="#869294"/>
<path d="M101.414 5.06451H96.3374L93.7975 9.45026L96.3374 13.836H101.414L103.954 9.45026L101.414 5.06451ZM100.09 11.551H97.6611L96.4482 9.45333L97.6611 7.35567H100.09L101.303 9.45333L100.09 11.551Z" fill="#869294"/>
<path d="M95.8663 13.3692L96.3343 13.836L96.4389 13.191L95.8663 13.3692Z" fill="#869294"/>
<path d="M100.943 4.5946H95.8663L93.3265 8.98035L95.8663 13.3661H100.943L103.483 8.98035L100.943 4.5946ZM99.6191 11.0811H97.1901L95.9772 8.98343L97.1901 6.88576H99.6191L100.832 8.98343L99.6191 11.0811Z" fill="#C4CCC9"/>
<path d="M38.4543 11.5909L38.0017 12.0762L37.2906 12.1007L38.4543 11.5909Z" fill="#869294"/>
<path d="M38.0017 12.0762L37.8201 7.01473L33.3346 4.64066L29.0308 7.328L29.2125 12.3894L33.6979 14.7635L38.0017 12.0762ZM31.4567 10.9889L31.3705 8.56879L33.4301 7.28193L35.5758 8.4183L35.662 10.8384L33.6025 12.1253L31.4567 10.9889Z" fill="#869294"/>
<path d="M29.4834 6.84274L29.0308 7.328L29.6835 7.40785L29.4834 6.84274Z" fill="#869294"/>
<path d="M38.4543 11.5909L38.2727 6.52947L33.7872 4.1554L29.4834 6.84274L29.665 11.9042L34.1505 14.2782L38.4543 11.5909ZM31.9093 10.5037L31.8231 8.08353L33.8826 6.79667L36.0284 7.93304L36.1146 10.3532L34.055 11.64L31.9093 10.5037Z" fill="#C4CCC9"/>
<path d="M25.5244 68.0252L25.8784 68.3784V68.9159L25.5244 68.0252Z" fill="#869294"/>
<path d="M25.8784 68.3784H22.0456L20.1307 71.6892L22.0456 75H25.8784L27.7932 71.6892L25.8784 68.3784ZM24.8778 73.274H23.0461L22.1287 71.6892L23.0461 70.1045H24.8778L25.7953 71.6892L24.8778 73.274Z" fill="#869294"/>
<path d="M21.6915 74.6469L22.0486 75L22.1256 74.5117L21.6915 74.6469Z" fill="#869294"/>
<path d="M25.5243 68.0252H21.6915L19.7767 71.336L21.6915 74.6468H25.5243L27.4392 71.336L25.5243 68.0252ZM24.5238 72.9208H22.6921L21.7747 71.336L22.6921 69.7513H24.5238L25.4412 71.336L24.5238 72.9208Z" fill="#C4CCC9"/>
<path d="M32.3156 58.3538L32.6697 58.707V59.2445L32.3156 58.3538Z" fill="#869294"/>
<path d="M32.6697 58.707H28.8369L26.922 62.0178L28.8369 65.3287H32.6697L34.5845 62.0178L32.6697 58.707ZM31.6691 63.6026H29.8374L28.92 62.0178L29.8374 60.4331H31.6691L32.5865 62.0178L31.6691 63.6026Z" fill="#869294"/>
<path d="M28.4828 64.9785L28.8369 65.3317L28.9169 64.8434L28.4828 64.9785Z" fill="#869294"/>
<path d="M32.3156 58.3538H28.4828L26.568 61.6646L28.4828 64.9754H32.3156L34.2305 61.6646L32.3156 58.3538ZM31.3151 63.2494H29.4834L28.5659 61.6646L29.4834 60.0799H31.3151L32.2325 61.6646L31.3151 63.2494Z" fill="#C4CCC9"/>
<path d="M46.0491 0L46.4031 0.353194V0.890663L46.0491 0Z" fill="#869294"/>
<path d="M46.4031 0.35318H42.5703L40.6555 3.66399L42.5703 6.9748H46.4031L48.318 3.66399L46.4031 0.35318ZM45.4026 5.24876H43.5709L42.6534 3.66399L43.5709 2.07922H45.4026L46.32 3.66399L45.4026 5.24876Z" fill="#869294"/>
<path d="M42.2163 6.62162L42.5703 6.97481L42.6473 6.48648L42.2163 6.62162Z" fill="#869294"/>
<path d="M46.0491 0H42.2163L40.3014 3.31081L42.2163 6.62162H46.0491L47.964 3.31081L46.0491 0ZM45.0486 4.89558H43.2168L42.2994 3.31081L43.2168 1.72604H45.0486L45.966 3.31081L45.0486 4.89558Z" fill="#C4CCC9"/>
<path d="M102.254 59.137L102.608 59.4902V60.0276L102.254 59.137Z" fill="#869294"/>
<path d="M102.608 59.4902H98.7756L96.8607 62.801L98.7756 66.1118H102.608L104.523 62.801L102.608 59.4902ZM101.608 64.3858H99.7761L98.8587 62.801L99.7761 61.2162H101.608L102.525 62.801L101.608 64.3858Z" fill="#869294"/>
<path d="M98.4215 65.7586L98.7756 66.1118L98.8556 65.6235L98.4215 65.7586Z" fill="#869294"/>
<path d="M102.254 59.137H98.4215L96.5067 62.4478L98.4215 65.7586H102.254L104.169 62.4478L102.254 59.137ZM101.254 64.0325H99.4221L98.5047 62.4478L99.4221 60.863H101.254L102.171 62.4478L101.254 64.0325Z" fill="#C4CCC9"/>
<path d="M20.3554 65.9061L20.2908 66.5203L19.7767 66.938L20.3554 65.9061Z" fill="#869294"/>
<path d="M20.2908 66.5203L17.3107 62.8594L12.6406 63.6026L10.9504 68.0099L13.9305 71.6708L18.6007 70.9276L20.2908 66.5203ZM14.814 69.3704L13.3887 67.6198L14.1952 65.5129L16.4272 65.1567L17.8526 66.9073L17.046 69.0142L14.814 69.3704Z" fill="#869294"/>
<path d="M11.0182 67.3925L10.9536 68.0068L11.4831 67.7027L11.0182 67.3925Z" fill="#869294"/>
<path d="M20.3554 65.9061L17.3754 62.2451L12.7052 62.9884L11.0151 67.3956L13.9951 71.0565L18.6653 70.3133L20.3554 65.9061ZM14.8787 68.7562L13.4533 67.0056L14.2599 64.8987L16.4918 64.5424L17.9172 66.293L17.1106 68.3999L14.8787 68.7562Z" fill="#C4CCC9"/>
<path d="M94.7426 66.3329L94.1916 67.0056L93.2619 67.0977L94.7426 66.3329Z" fill="#869294"/>
<path d="M94.1916 67.0055L93.5328 60.3901L87.4619 57.6505L82.0497 61.5264L82.7086 68.1419L88.7795 70.8815L94.1916 67.0055ZM85.5316 66.121L85.2176 62.9576L87.8067 61.1026L90.7097 62.411L91.0238 65.5743L88.4347 67.4294L85.5316 66.121Z" fill="#869294"/>
<path d="M82.6008 60.8538L82.0497 61.5264L82.9087 61.5786L82.6008 60.8538Z" fill="#869294"/>
<path d="M94.7426 66.3329L94.0838 59.7175L88.0129 56.9779L82.6008 60.8538L83.2596 67.4693L89.3305 70.2089L94.7426 66.3329ZM86.0826 65.4484L85.7686 62.285L88.3577 60.43L91.2608 61.7383L91.5748 64.9017L88.9857 66.7568L86.0826 65.4484Z" fill="#C4CCC9"/>
<path d="M8.57688 42.4048L8.51839 42.9638L8.05045 43.3446L8.57688 42.4048Z" fill="#869294"/>
<path d="M8.51837 42.9638L5.80001 39.6223L1.53928 40.301L0 44.3213L2.71837 47.6628L6.97909 46.984L8.51837 42.9638ZM3.52187 45.5651L2.22272 43.9681L2.9585 42.0455L4.9965 41.7199L6.29565 43.317L5.55988 45.2396L3.52187 45.5651Z" fill="#869294"/>
<path d="M0.0584926 43.7623L0 44.3213L0.483334 44.0418L0.0584926 43.7623Z" fill="#869294"/>
<path d="M8.57687 42.4048L5.85851 39.0633L1.59778 39.742L0.0585022 43.7623L2.77687 47.1038L7.0376 46.4251L8.57687 42.4048ZM3.58037 45.0062L2.28122 43.4091L3.017 41.4865L5.055 41.161L6.35416 42.758L5.61838 44.6806L3.58037 45.0062Z" fill="#C4CCC9"/>
<path d="M108.121 17.9595L106.539 17.0874L101.573 26.0519L103.154 26.924L108.121 17.9595Z" fill="#C4CCC9"/>
<path d="M107.494 19.097L106.247 17.6228L106.546 17.0823L107.793 18.5565L107.494 19.097Z" fill="#869294"/>
<path d="M107.02 19.9539L105.773 18.4797L106.069 17.9392L107.319 19.4134L107.02 19.9539Z" fill="#869294"/>
<path d="M106.546 20.8077L105.296 19.3335L105.595 18.7961L106.844 20.2703L106.546 20.8077Z" fill="#869294"/>
<path d="M106.072 21.6646L104.822 20.1904L105.12 19.6529L106.37 21.1271L106.072 21.6646Z" fill="#869294"/>
<path d="M105.598 22.5215L104.348 21.0473L104.646 20.5098L105.893 21.984L105.598 22.5215Z" fill="#869294"/>
<path d="M105.12 23.3784L103.874 21.9042L104.172 21.3667L105.419 22.8409L105.12 23.3784Z" fill="#869294"/>
<path d="M104.646 24.2352L103.4 22.761L103.698 22.2236L104.945 23.6978L104.646 24.2352Z" fill="#869294"/>
<path d="M104.172 25.0921L102.925 23.6179L103.224 23.0804L104.471 24.5546L104.172 25.0921Z" fill="#869294"/>
<path d="M103.698 25.949L102.451 24.4748L102.75 23.9343L103.997 25.4085L103.698 25.949Z" fill="#869294"/>
<path d="M103.224 26.8059L101.974 25.3317L102.273 24.7911L103.523 26.2653L103.224 26.8059Z" fill="#869294"/>
<path d="M108.759 16.0688L107.808 15.5436C106.647 14.9048 105.188 15.3225 104.548 16.4803L104.428 16.6953L109.578 19.5362L109.698 19.3212C110.339 18.1634 109.92 16.7076 108.759 16.0688Z" fill="#E2E7E9"/>
<path d="M107.271 70.8262L106.632 68.7377L94.7278 72.364L95.3671 74.4525L107.271 70.8262Z" fill="#C4CCC9"/>
<path d="M105.764 71.293L105.924 68.9588L106.638 68.7408L106.478 71.0749L105.764 71.293Z" fill="#869294"/>
<path d="M104.628 71.64L104.785 69.3059L105.502 69.0878L105.342 71.422L104.628 71.64Z" fill="#869294"/>
<path d="M103.489 71.984L103.649 69.6529L104.363 69.4349L104.206 71.766L103.489 71.984Z" fill="#869294"/>
<path d="M102.353 72.3311L102.513 69.9969L103.227 69.7789L103.067 72.113L102.353 72.3311Z" fill="#869294"/>
<path d="M101.217 72.6781L101.374 70.344L102.091 70.1259L101.931 72.4601L101.217 72.6781Z" fill="#869294"/>
<path d="M100.078 73.0252L100.238 70.691L100.952 70.473L100.795 72.8071L100.078 73.0252Z" fill="#869294"/>
<path d="M98.9418 73.3722L99.1019 71.0381L99.8161 70.82L99.656 73.1542L98.9418 73.3722Z" fill="#869294"/>
<path d="M97.8027 73.7162L97.9628 71.3851L98.6801 71.1671L98.52 73.4981L97.8027 73.7162Z" fill="#869294"/>
<path d="M96.6667 74.0632L96.8268 71.7291L97.5411 71.5141L97.381 73.8452L96.6667 74.0632Z" fill="#869294"/>
<path d="M95.5308 74.4103L95.6908 72.0761L96.4051 71.8581L96.245 74.1922L95.5308 74.4103Z" fill="#869294"/>
<path d="M109.424 69.7205L109.039 68.4644C108.572 66.9318 106.943 66.0688 105.407 66.5356L105.12 66.6216L107.205 73.4275L107.491 73.3415C109.027 72.8747 109.892 71.25 109.424 69.7174V69.7205Z" fill="#E2E7E9"/>
<path d="M7.85641 54.9064L5.72086 54.4274L2.99087 66.5421L5.12643 67.0211L7.85641 54.9064Z" fill="#C4CCC9"/>
<path d="M7.51476 56.4527L5.55988 55.1597L5.72612 54.4318L7.67792 55.7248L7.51476 56.4527Z" fill="#869294"/>
<path d="M7.25308 57.6075L5.30127 56.3145L5.46443 55.5866L7.41932 56.8796L7.25308 57.6075Z" fill="#869294"/>
<path d="M6.9945 58.7653L5.03961 57.4723L5.20278 56.7444L7.15766 58.0374L6.9945 58.7653Z" fill="#869294"/>
<path d="M6.73281 59.9232L4.77792 58.6302L4.94417 57.9023L6.89597 59.1953L6.73281 59.9232Z" fill="#869294"/>
<path d="M6.47112 61.0811L4.51932 59.7881L4.68248 59.0602L6.63429 60.3532L6.47112 61.0811Z" fill="#869294"/>
<path d="M6.21251 62.2389L4.25763 60.9459L4.42079 60.218L6.37568 61.511L6.21251 62.2389Z" fill="#869294"/>
<path d="M5.95086 63.3937L3.99597 62.1007L4.16221 61.3728L6.11402 62.6658L5.95086 63.3937Z" fill="#869294"/>
<path d="M5.68917 64.5516L3.73737 63.2586L3.90053 62.5307L5.85234 63.8237L5.68917 64.5516Z" fill="#869294"/>
<path d="M5.42748 65.7094L3.47568 64.4164L3.63884 63.6885L5.59373 64.9815L5.42748 65.7094Z" fill="#869294"/>
<path d="M5.16891 66.8673L3.21402 65.5743L3.38026 64.8464L5.33207 66.1394L5.16891 66.8673Z" fill="#869294"/>
<path d="M7.95807 52.5L6.67431 52.2113C5.10733 51.8612 3.55266 52.844 3.19862 54.4072L3.13397 54.699L10.0946 56.2592L10.1592 55.9674C10.5102 54.4042 9.52506 52.8532 7.95807 52.5Z" fill="#E2E7E9"/>
<path d="M34.1043 54.1309L34.5753 54.9724C34.5753 54.9724 34.526 54.223 34.5137 54.0234C34.5014 53.8237 33.975 53.8207 34.1043 54.1309Z" fill="#596A6C"/>
<path d="M27.3838 33.2463C27.3838 33.2463 29.8866 41.0842 30.8164 45.1812C31.7461 49.2783 32.368 51.2715 32.4234 51.5141C32.4788 51.7568 32.7928 52.5829 33.0022 52.7488C33.2115 52.9146 33.7933 53.9773 33.9842 54.0633C34.1751 54.1493 34.5722 54.0172 34.5722 54.0172C34.5722 54.0172 34.0704 50.2918 33.3931 47.1192C32.7158 43.9466 31.7246 39.008 31.4259 37.8808C31.1273 36.7537 31.7092 37.0485 31.7092 37.0485C31.7092 37.0485 32.6881 39.8557 33.1376 40.1382C33.5871 40.4208 33.5994 40.2887 33.2885 39.6775C32.9775 39.0663 30.8841 33.7807 30.4531 32.2574C30.0221 30.734 27.2422 32.4263 27.3869 33.2494L27.3838 33.2463Z" fill="#8F5564"/>
<path d="M29.4095 32.8532L29.3541 32.6075L28.9477 32.6996C29.5172 35.2088 30.1329 37.7088 30.7056 40.2211C30.764 40.4822 31.1704 40.39 31.1119 40.129C30.5424 37.6198 29.9267 35.1198 29.3541 32.6075C29.2956 32.3464 28.8892 32.4386 28.9477 32.6996L29.0031 32.9453C29.0616 33.2064 29.468 33.1142 29.4095 32.8532Z" fill="#B47596"/>
<path d="M31.4044 42.3894L32.0971 45.4423C32.1556 45.7033 32.5619 45.6112 32.5034 45.3501L31.8108 42.2973C31.7523 42.0362 31.3459 42.1284 31.4044 42.3894Z" fill="#B47596"/>
<path d="M32.7374 48.5043L32.916 49.2905C32.9744 49.5516 33.3808 49.4595 33.3223 49.1984L33.1438 48.4122C33.0853 48.1511 32.6789 48.2432 32.7374 48.5043Z" fill="#B47596"/>
<path d="M33.8642 52.0547C33.8642 52.0547 33.8919 52.0301 33.9042 52.0178C33.9073 52.0148 33.9134 52.0086 33.9165 52.0056C33.8395 52.0731 33.6271 52.0332 33.5932 51.9042C33.6025 51.938 33.5902 51.8428 33.5932 51.8766C33.5932 51.8889 33.5932 51.9011 33.5932 51.9134C33.5932 51.9533 33.5932 51.9933 33.5932 52.0301C33.7318 52.0178 33.8672 52.0056 34.0058 51.9933L33.9504 51.7476C33.9257 51.637 33.8118 51.5664 33.701 51.5909C33.5902 51.6155 33.5194 51.7291 33.544 51.8397L33.5902 52.0455C33.6148 52.1561 33.7287 52.2267 33.8395 52.2021C33.9504 52.1776 34.0212 52.0639 33.9965 51.9534V51.9441C33.9688 51.8336 33.8549 51.7629 33.7441 51.7875C33.6333 51.8121 33.5625 51.9257 33.5871 52.0363V52.0455C33.6148 52.1561 33.7287 52.2267 33.8395 52.2021C33.9504 52.1776 34.0212 52.0639 33.9965 51.9534L33.9504 51.7476C33.9257 51.637 33.8118 51.5664 33.701 51.5909C33.5902 51.6155 33.5194 51.7291 33.544 51.8397L33.5994 52.0854C33.621 52.1745 33.701 52.242 33.7934 52.2482C33.9011 52.2543 34.015 52.1653 34.0119 52.0516C34.0089 51.9165 34.0304 51.7629 33.9042 51.6739C33.8149 51.6124 33.7133 51.6432 33.6363 51.7015C33.6148 51.7169 33.5994 51.7384 33.5779 51.7537C33.4917 51.8274 33.4947 51.9687 33.5686 52.0486C33.6487 52.1346 33.7749 52.1315 33.8642 52.0578V52.0547Z" fill="#B47596"/>
<path d="M94.6194 69.1769L94.7118 70.3747C94.7118 70.3747 93.2526 71.8059 88.7055 74.008C84.1585 76.2101 63.8215 72.586 58.0646 71.5203C52.3077 70.4546 29.3047 75.1075 29.0338 73.7838C28.7629 72.4601 30.062 71.8551 30.062 71.8551L29.8927 69.6837L31.4843 68.0098L32.02 67.4447V67.0823L31.9892 55.5651C34.6368 42.0209 43.9894 39.4994 43.9894 39.4994C63.3505 31.379 73.2173 42.6014 75.2892 44.6806C76.3913 45.7863 78.5432 51.0166 80.3195 55.6757C81.5817 58.9865 82.6561 62.0086 83.0256 63.0621C83.1149 63.3139 83.161 63.4521 83.1641 63.4552L84.845 64.1063L84.7311 66.3698L94.6225 69.1708L94.6194 69.1769Z" fill="#E3A349"/>
<path d="M94.6349 69.3704L94.7119 70.3717C94.7119 70.3717 93.2526 71.8029 88.7056 74.0049C84.1586 76.207 63.8216 72.583 58.0647 71.5172C52.3078 70.4515 29.3048 75.1045 29.0339 73.7807C28.9631 73.4429 28.9969 73.1511 29.0862 72.9054C30.9672 73.7562 52.4525 69.4933 57.9877 70.516C63.7446 71.5817 84.0816 75.2058 88.6286 73.0037C93.1757 70.8016 94.6349 69.3704 94.6349 69.3704Z" fill="#F3D34F"/>
<path d="M83.1642 63.4583C82.3638 65.4269 72.3708 66.204 72.3708 66.204C72.3708 66.204 45.3472 68.3108 39.8212 68.7408C34.2951 69.1708 32.0262 67.4448 32.0262 67.4448V67.0823C32.3156 67.1898 32.6081 67.2881 32.9036 67.3741C36.1423 68.3231 39.541 67.9761 39.541 67.9761L72.3184 65.4791C78.2385 65.0185 81.003 64.1708 82.2868 63.5258C82.6285 63.3538 82.8656 63.1972 83.0287 63.0621C83.118 63.317 83.1673 63.4552 83.1673 63.4552L83.1642 63.4583Z" fill="#F3D34F"/>
<path d="M78.0815 56.68L78.2539 53.1204C78.2539 53.1204 72.6048 39.4564 59.6348 38.449C46.6648 37.4417 35.5266 44.2476 34.4583 55.8784C33.3901 67.5092 34.6861 68.4705 34.6861 68.4705L31.4844 68.0098L32.0201 67.4447V67.0823L31.9893 55.5651C34.6369 42.0209 43.9895 39.4994 43.9895 39.4994C63.3506 31.379 73.2174 42.6014 75.2893 44.6806C76.3914 45.7863 78.5433 51.0166 80.3196 55.6757L78.0815 56.68Z" fill="#F3D34F"/>
<path d="M45.0547 66.7353L46.2646 66.6401C47.0866 56.8151 44.6053 53.0129 44.6053 53.0129C46.3723 56.7261 45.4457 64.18 45.0547 66.7353Z" fill="#F3D34F"/>
<path d="M39.972 67.1315L38.7622 67.2267C36.4224 57.6474 38.2819 53.5074 38.2819 53.5074C37.112 57.4478 39.1901 64.6683 39.9751 67.1345L39.972 67.1315Z" fill="#F3D34F"/>
<path d="M70.8469 64.7236L72.0567 64.6284C72.8787 54.8034 70.3974 51.0012 70.3974 51.0012C72.1645 54.7144 71.2378 62.1683 70.8469 64.7236Z" fill="#F3D34F"/>
<path d="M65.7673 65.1197L64.5574 65.215C62.2177 55.6357 64.0771 51.4957 64.0771 51.4957C62.9073 55.4361 64.9853 62.6566 65.7703 65.1228L65.7673 65.1197Z" fill="#F3D34F"/>
<path d="M46.9823 65.4878L37.8821 66.1975L38.2269 70.5975L47.3271 69.8878L46.9823 65.4878Z" fill="#F3D34F"/>
<path d="M72.7761 63.476L63.676 64.1857L64.0207 68.5856L73.1209 67.8759L72.7761 63.476Z" fill="#F3D34F"/>
<path d="M79.6054 66.0872C79.6054 66.0872 75.8619 57.0209 76.1482 56.3821C76.4345 55.7433 78.8881 51.9103 79.4453 51.8673C80.0025 51.8244 80.2334 52.5891 80.2334 52.5891L83.863 63.7285C83.863 63.7285 82.4808 65.5252 79.6054 66.0872Z" fill="#F3D34F"/>
<path d="M36.6995 51.161C36.6995 51.161 40.5108 41.1947 53.4192 39.7697C66.3276 38.3446 74.6982 48.9558 74.6982 48.9558L72.8202 50.8108C72.8202 50.8108 54.8661 32.4294 36.6995 51.161Z" fill="#F3D34F"/>
<path d="M71.1855 69.0326C71.1855 69.0326 79.4207 69.4625 83.7799 67.0485L92.9109 69.5885C92.9109 69.5885 88.9334 72.5891 87.4772 72.3096C86.0242 72.0301 71.1824 69.0326 71.1824 69.0326H71.1855Z" fill="#F3D34F"/>
<path d="M30.6932 71.637L30.5763 70.1597L31.8816 68.8821L33.7441 68.9896C33.7441 68.9896 31.7307 70.3225 31.7646 71.5541L30.6963 71.637H30.6932Z" fill="#F3D34F"/>
</g>
<defs>
<clipPath id="clip0_1_10">
<rect width="110" height="75" fill="white"/>
</clipPath>
</defs>
</svg>
