<svg width="66" height="66" viewBox="0 0 66 66" fill="none" xmlns="http://www.w3.org/2000/svg">
<circle cx="33" cy="33" r="33" fill="#FFEADA"/>
<circle cx="33" cy="33" r="28" fill="#FCC49A"/>
<path d="M40 42.9912V21.5C39.9988 21.1025 39.8404 20.7217 39.5594 20.4406C39.2783 20.1596 38.8975 20.0012 38.5 20H21.5C21.1025 20.0012 20.7217 20.1596 20.4406 20.4406C20.1596 20.7217 20.0012 21.1025 20 21.5V43.5C20.002 44.1624 20.266 44.7972 20.7344 45.2656C21.2028 45.734 21.8376 45.998 22.5 46H43" stroke="#FA8833" stroke-width="1.3125" stroke-linejoin="round"/>
<path d="M43 46C42.2044 46 41.4413 45.6839 40.8787 45.1213C40.3161 44.5587 40 43.7956 40 43V25H44.5C44.8978 25 45.2794 25.158 45.5607 25.4393C45.842 25.7206 46 26.1022 46 26.5V43C46 43.7956 45.6839 44.5587 45.1213 45.1213C44.5587 45.6839 43.7956 46 43 46Z" stroke="#FA8833" stroke-width="1.3125" stroke-linejoin="round"/>
<path d="M32 25H36M32 29H36M24 33H36M24 37H36M24 41H36" stroke="#FA8833" stroke-width="1.3125" stroke-linecap="round" stroke-linejoin="round"/>
<path d="M28 30H24C23.7348 30 23.4804 29.8946 23.2929 29.7071C23.1054 29.5196 23 29.2652 23 29V25C23 24.7348 23.1054 24.4804 23.2929 24.2929C23.4804 24.1054 23.7348 24 24 24H28C28.2652 24 28.5196 24.1054 28.7071 24.2929C28.8946 24.4804 29 24.7348 29 25V29C29 29.2652 28.8946 29.5196 28.7071 29.7071C28.5196 29.8946 28.2652 30 28 30Z" fill="#FA8833"/>
</svg>
