<svg width="23" height="23" viewBox="0 0 23 23" fill="none" xmlns="http://www.w3.org/2000/svg">
<path opacity="0.16" d="M14 14.7079H8.5C7.71047 14.708 6.94203 14.9628 6.30887 15.4345C5.6757 15.9061 5.21159 16.5695 4.9855 17.3259C5.75918 18.2307 6.71991 18.957 7.80143 19.4545C8.88295 19.9521 10.0595 20.2091 11.25 20.2079C12.4405 20.2091 13.6171 19.9521 14.6986 19.4545C15.7801 18.957 16.7408 18.2307 17.5145 17.3259C17.2884 16.5695 16.8243 15.9061 16.1911 15.4345C15.558 14.9628 14.7895 14.708 14 14.7079Z" fill="#7E7E7E"/>
<path d="M19.5 11.958C19.5027 13.5958 19.0156 15.1971 18.1012 16.556C17.3471 17.6807 16.3275 18.6022 15.1325 19.2392C13.9376 19.8762 12.6041 20.2089 11.25 20.208C9.89589 20.2089 8.56241 19.8762 7.36746 19.2392C6.17252 18.6022 5.15293 17.6807 4.39883 16.556C3.68084 15.4857 3.22358 14.2621 3.06371 12.9832C2.90385 11.7043 3.04583 10.4058 3.47827 9.19172C3.91071 7.97762 4.62158 6.88173 5.5539 5.99188C6.48621 5.10204 7.61404 4.443 8.84697 4.0676C10.0799 3.6922 11.3836 3.61088 12.6536 3.83015C13.9237 4.04943 15.1246 4.5632 16.1603 5.33029C17.196 6.09738 18.0375 7.09644 18.6175 8.24738C19.1975 9.39833 19.4997 10.6691 19.5 11.958Z" stroke="#7E7E7E" stroke-width="2"/>
<path d="M12.1667 9.20795C12.1667 9.45106 12.0701 9.68422 11.8982 9.85613C11.7263 10.028 11.4931 10.1246 11.25 10.1246V11.9579C11.9794 11.9579 12.6788 11.6682 13.1946 11.1525C13.7103 10.6368 14 9.93729 14 9.20795H12.1667ZM11.25 10.1246C11.0069 10.1246 10.7737 10.028 10.6018 9.85613C10.4299 9.68422 10.3333 9.45106 10.3333 9.20795H8.50001C8.50001 9.93729 8.78974 10.6368 9.30546 11.1525C9.82119 11.6682 10.5207 11.9579 11.25 11.9579V10.1246ZM10.3333 9.20795C10.3333 8.96483 10.4299 8.73167 10.6018 8.55977C10.7737 8.38786 11.0069 8.29128 11.25 8.29128V6.45795C10.5207 6.45795 9.82119 6.74768 9.30546 7.2634C8.78974 7.77913 8.50001 8.4786 8.50001 9.20795H10.3333ZM11.25 8.29128C11.4931 8.29128 11.7263 8.38786 11.8982 8.55977C12.0701 8.73167 12.1667 8.96483 12.1667 9.20795H14C14 8.4786 13.7103 7.77913 13.1946 7.2634C12.6788 6.74768 11.9794 6.45795 11.25 6.45795V8.29128ZM4.98551 17.3259L4.10642 17.0647L3.96434 17.5441L4.28976 17.9227L4.98551 17.3259ZM17.5145 17.3259L18.2112 17.9227L18.5357 17.5441L18.3936 17.0647L17.5145 17.3259ZM8.50001 15.6246H14V13.7913H8.50001V15.6246ZM8.50001 13.7913C7.51288 13.7913 6.5521 14.1098 5.76052 14.6996C4.96894 15.2894 4.38883 16.1188 4.10642 17.0647L5.86367 17.5872C6.03349 17.02 6.38173 16.5227 6.85667 16.1691C7.33161 15.8155 7.90791 15.6246 8.50001 15.6246V13.7913ZM11.25 19.2913C10.1917 19.2925 9.14574 19.064 8.18432 18.6217C7.22289 18.1793 6.36889 17.5337 5.68126 16.7292L4.28976 17.9227C5.14948 18.9278 6.21694 19.7346 7.41855 20.2874C8.62016 20.8401 9.92735 21.1258 11.25 21.1246V19.2913ZM14 15.6246C15.2439 15.6246 16.2972 16.4514 16.6363 17.5881L18.3936 17.0647C18.1112 16.119 17.5303 15.2896 16.7389 14.6999C15.9475 14.1101 14.987 13.7915 14 13.7913V15.6246ZM16.8188 16.7292C16.1311 17.5337 15.2771 18.1793 14.3157 18.6217C13.3543 19.064 12.3083 19.2925 11.25 19.2913V21.1246C12.5727 21.1258 13.8799 20.8401 15.0815 20.2874C16.2831 19.7346 17.3514 18.9278 18.2112 17.9227L16.8188 16.7292Z" fill="#7E7E7E"/>
</svg>
