<svg width="102" height="76" viewBox="0 0 102 76" fill="none" xmlns="http://www.w3.org/2000/svg">
<g clip-path="url(#clip0_1_205)">
<path d="M50.265 7.00114C50.0019 6.80183 49.6172 6.78009 49.3323 6.94678C48.9548 6.18398 47.9004 5.84697 47.1473 6.24921C46.9513 5.42661 46.1401 4.79426 45.2926 4.80513C44.4451 4.816 43.6503 5.46647 43.4724 6.2945C43.4452 6.42677 43.4252 6.56991 43.3309 6.66594C43.1784 6.82176 42.9225 6.76922 42.7048 6.75291C42.0188 6.70037 41.3292 7.18052 41.1423 7.84186L50.5862 7.80743C50.6697 7.48854 50.5264 7.20226 50.2632 7.00295L50.265 7.00114Z" fill="#F0F0F0"/>
<path d="M17.3146 27.8488C16.8863 27.5262 16.2602 27.4882 15.7974 27.76C15.1822 26.5188 13.4673 25.9716 12.246 26.6257C11.9266 25.2886 10.6072 24.2594 9.22984 24.2775C7.85244 24.2938 6.55853 25.3538 6.2718 26.6982C6.22643 26.912 6.19558 27.1457 6.04314 27.3016C5.79451 27.5552 5.37894 27.4701 5.02506 27.4429C3.9108 27.3559 2.78747 28.1368 2.48441 29.2131L17.8408 29.1569C17.9751 28.6369 17.7447 28.1731 17.3146 27.8506V27.8488Z" fill="#E0E0E0"/>
<path d="M13.9936 2.19784C13.7304 1.99853 13.3457 1.97679 13.0608 2.14348C12.6833 1.38068 11.629 1.04366 10.8758 1.4459C10.6798 0.621494 9.86683 -0.0108553 9.02116 1.60089e-05C8.17367 0.0108873 7.37881 0.661356 7.20096 1.48939C7.17374 1.62166 7.15378 1.7648 7.05941 1.86083C6.90697 2.01665 6.65109 1.9641 6.43332 1.9478C5.74734 1.89525 5.05774 2.3754 4.87082 3.03674L14.3148 3.00232C14.3983 2.68342 14.2549 2.39715 13.9918 2.19784H13.9936Z" fill="#F0F0F0"/>
<path d="M10.2552 60.5842C8.16094 61.3198 5.74187 60.7436 3.97793 59.3992C2.21399 58.053 1.06163 56.0255 0.450054 53.8947C-0.0235962 52.2477 -0.195998 50.4666 0.2958 48.8232C0.787598 47.1816 2.02707 45.7049 3.67668 45.2284C3.45347 43.1411 3.48069 41.0031 4.01786 38.9738C4.55503 36.9444 5.63117 35.0202 7.25356 33.6849C9.85773 31.5414 13.685 31.1754 16.8173 32.4256C19.9496 33.6758 22.3777 36.3846 23.6753 39.4956C24.9728 42.6066 25.2105 46.0836 24.7841 49.4266C25.1797 48.5025 26.5208 48.3014 27.3737 48.8323C28.2285 49.365 28.6549 50.3796 28.8419 51.3671C29.4008 54.3024 28.165 57.5058 25.7767 59.305C23.3885 61.106 19.9659 61.4176 17.291 60.0768" fill="#407BFF"/>
<g opacity="0.4">
<path d="M10.2552 60.5842C8.16094 61.3198 5.74187 60.7436 3.97793 59.3992C2.21399 58.053 1.06163 56.0255 0.450054 53.8947C-0.0235962 52.2477 -0.195998 50.4666 0.2958 48.8232C0.787598 47.1816 2.02707 45.7049 3.67668 45.2284C3.45347 43.1411 3.48069 41.0031 4.01786 38.9738C4.55503 36.9444 5.63117 35.0202 7.25356 33.6849C9.85773 31.5414 13.685 31.1754 16.8173 32.4256C19.9496 33.6758 22.3777 36.3846 23.6753 39.4956C24.9728 42.6066 25.2105 46.0836 24.7841 49.4266C25.1797 48.5025 26.5208 48.3014 27.3737 48.8323C28.2285 49.365 28.6549 50.3796 28.8419 51.3671C29.4008 54.3024 28.165 57.5058 25.7767 59.305C23.3885 61.106 19.9659 61.4176 17.291 60.0768" fill="black"/>
</g>
<path d="M9.73795 75.7714C9.73795 75.6265 13.0172 65.6574 11.5963 63.3654C10.1753 61.0734 6.42239 57.109 6.42239 57.109H7.58928C7.58928 57.109 11.9465 60.6748 11.9538 60.2743C11.961 59.8739 12.7268 53.7624 12.7268 53.7624H13.6379C13.6379 53.7624 12.2895 58.5277 14.293 58.1635C16.2965 57.7993 17.6085 53.9436 17.6085 53.9436L19.211 54.9256C19.211 54.9256 17.1349 57.946 16.5142 61.8017C15.8954 65.6574 15.8954 75.7714 15.8954 75.7714H9.73795Z" fill="#A24E3F"/>
<path d="M8.3878 50.2473C8.65819 51.5881 9.54561 52.7695 10.7361 53.4381C11.9266 54.1067 13.4564 54.1791 14.7539 53.6483C15.4817 53.3511 16.1277 52.8818 16.6231 52.273L16.3963 52.2132C16.654 53.5196 17.6158 54.6466 18.8698 55.1014C20.1928 55.5815 21.7317 55.2445 22.7697 54.3096C22.9004 54.1918 22.7062 53.9998 22.5773 54.1175C21.6083 54.9909 20.1728 55.288 18.9424 54.8405C17.712 54.3929 16.8972 53.3511 16.6576 52.1408C16.6395 52.0465 16.4925 52.0031 16.4308 52.081C15.596 53.1083 14.313 53.7207 12.9882 53.7407C11.6634 53.7606 10.4403 53.1464 9.60005 52.148C9.12277 51.5809 8.79611 50.9014 8.64912 50.1767C8.61464 50.0045 8.3515 50.077 8.38598 50.2491L8.3878 50.2473Z" fill="#263238"/>
<path d="M13.3475 40.329C13.5308 41.418 14.2893 42.4181 15.4181 42.632C16.438 42.824 17.5124 42.2515 17.77 41.2151C17.8118 41.0447 17.5505 40.9723 17.5069 41.1426C17.2728 42.0848 16.2711 42.5722 15.3601 42.3421C14.3801 42.0956 13.7703 41.2132 13.6088 40.2566C13.5798 40.0844 13.3166 40.1569 13.3457 40.329H13.3475Z" fill="#263238"/>
<path d="M41.6029 1.92549L8.05127 8.1825L16.3494 52.5387L49.901 46.2817L41.6029 1.92549Z" fill="#263238"/>
<path d="M39.704 4.31089L10.6835 9.7229L18.2662 50.2551L47.2868 44.8431L39.704 4.31089Z" fill="white"/>
<path d="M38.6487 5.45793L11.8099 10.4631L18.9911 48.8491L45.8299 43.8439L38.6487 5.45793Z" stroke="#407BFF" stroke-miterlimit="10"/>
<path opacity="0.3" d="M30.5967 3.97711L32.4333 7.86905L20.1383 10.1629L20.0893 5.87778L30.5967 3.97711Z" fill="black"/>
<path d="M28.5805 4.35399L21.4159 5.68935L20.6192 3.76875L28.595 2.28119L28.5805 4.35399Z" fill="#263238"/>
<path opacity="0.7" d="M28.5805 4.35399L21.4159 5.68935L20.6192 3.76875L28.595 2.28119L28.5805 4.35399Z" fill="white"/>
<path d="M31.4896 7.36715L19.5267 9.59758L19.485 5.54982L29.9997 3.58936L31.4896 7.36715Z" fill="#263238"/>
<path opacity="0.7" d="M31.4896 7.36715L19.5267 9.59758L19.485 5.54982L29.9997 3.58936L31.4896 7.36715Z" fill="white"/>
<path d="M19.5902 5.56613C23.0637 4.91748 26.5371 4.27063 30.0124 3.62198C30.0977 3.60567 30.0614 3.47521 29.9761 3.49152C26.5026 4.14018 23.0292 4.78702 19.5539 5.43568C19.4687 5.45198 19.5049 5.58244 19.5902 5.56613Z" fill="#263238"/>
<path d="M19.592 9.66829C22.6898 9.09029 25.7876 8.5123 28.8854 7.93431C29.7601 7.77124 30.6348 7.60817 31.5095 7.4451C31.5948 7.42879 31.5585 7.29833 31.4732 7.31464C28.3754 7.89263 25.2777 8.47063 22.1799 9.04862C21.3052 9.21169 20.4305 9.37476 19.5557 9.53783C19.4705 9.55414 19.5067 9.68459 19.592 9.66829Z" fill="#263238"/>
<path d="M17.6866 11.9567L17.9207 11.9132L18.2256 13.5439L17.9915 13.5874L17.6866 11.9567Z" fill="#407BFF"/>
<path d="M19.8135 11.5599L20.1183 13.1906L19.9278 13.2268L18.721 12.194L18.9478 13.4098L18.7137 13.4533L18.4088 11.8226L18.5994 11.7864L19.8062 12.8191L19.5794 11.6034L19.8135 11.5599Z" fill="#407BFF"/>
<path d="M21.7081 11.2047L22.0129 12.8354L21.7788 12.8789L21.6427 12.1523L20.7045 12.3281L20.8406 13.0547L20.6065 13.0981L20.3016 11.4674L20.5357 11.424L20.6664 12.1252L21.6046 11.9494L21.474 11.2482L21.7081 11.2047Z" fill="#407BFF"/>
<path d="M23.6517 12.3208L23.6898 12.5238L22.5048 12.7448L22.1999 11.1141L23.3523 10.8985L23.3904 11.1014L22.4721 11.2736L22.5665 11.7736L23.3849 11.6214L23.4212 11.8189L22.6028 11.9711L22.7008 12.4984L23.6517 12.3208Z" fill="#407BFF"/>
<path d="M25.1597 12.2484L24.7133 11.8135C24.6807 11.8226 24.6462 11.8316 24.6117 11.8371L24.2088 11.9132L24.3014 12.4096L24.0673 12.4531L23.7624 10.8224L24.3994 10.7028C24.824 10.6231 25.1198 10.7898 25.187 11.1431C25.2342 11.395 25.138 11.6015 24.9238 11.7247L25.4138 12.1995L25.1597 12.2466V12.2484ZM24.9547 11.1884C24.9111 10.9547 24.7297 10.8514 24.432 10.9076L24.0346 10.9819L24.1725 11.7157L24.57 11.6414C24.8694 11.5852 25.0001 11.4222 24.9565 11.1884H24.9547Z" fill="#407BFF"/>
<path d="M25.4592 10.5053L25.6933 10.4619L25.9981 12.0926L25.764 12.136L25.4592 10.5053Z" fill="#407BFF"/>
<path d="M26.5462 10.5126L25.9854 10.6177L25.9473 10.4148L27.2975 10.1629L27.3356 10.3658L26.7767 10.4709L27.0434 11.8987L26.813 11.9422L26.5462 10.5144V10.5126Z" fill="#407BFF"/>
<path d="M28.7403 11.1594L27.8728 11.3207L27.7694 11.761L27.5298 11.8063L27.9635 10.0379L28.194 9.99438L29.2411 11.4856L28.9961 11.5309L28.7403 11.1576V11.1594ZM28.6241 10.9873L28.1232 10.2535L27.92 11.1178L28.6241 10.9855V10.9873Z" fill="#407BFF"/>
<path d="M30.584 9.55048L30.8889 11.1812L30.6984 11.2174L29.4916 10.1846L29.7184 11.4004L29.4843 11.4439L29.1794 9.8132L29.37 9.77696L30.5768 10.8097L30.3499 9.59396L30.584 9.55048Z" fill="#407BFF"/>
<path d="M31.094 10.2988C31.0032 9.8168 31.3063 9.39645 31.8035 9.30404C32.0558 9.25693 32.2917 9.30404 32.4714 9.44174L32.348 9.6175C32.1973 9.50878 32.0322 9.47617 31.8525 9.51059C31.4841 9.57945 31.2609 9.89653 31.3281 10.2571C31.3952 10.6177 31.7182 10.8333 32.0866 10.7644C32.2663 10.73 32.4079 10.6394 32.5095 10.4836L32.6891 10.6014C32.5712 10.797 32.3679 10.9257 32.1139 10.9746C31.6184 11.067 31.1847 10.7844 31.094 10.3024V10.2988Z" fill="#407BFF"/>
<path d="M34.2136 10.3495L34.2517 10.5525L33.0666 10.7735L32.7617 9.1428L33.9141 8.92719L33.9522 9.13012L33.034 9.30225L33.1283 9.80233L33.9468 9.65013L33.9831 9.84762L33.1646 9.99982L33.2626 10.5271L34.2136 10.3495Z" fill="#407BFF"/>
<path d="M17.4634 14.5477C22.1563 13.6725 26.8474 12.7974 31.5404 11.9222C32.876 11.6722 34.2135 11.424 35.5492 11.1739C35.6345 11.1576 35.5982 11.0272 35.5129 11.0435C30.8199 11.9186 26.1288 12.7937 21.4358 13.6689C20.1002 13.9189 18.7627 14.1672 17.4271 14.4172C17.3418 14.4335 17.3781 14.564 17.4634 14.5477Z" fill="#263238"/>
<path d="M26.735 14.9175L14.6633 17.1687L14.8979 18.4226L26.9696 16.1714L26.735 14.9175Z" fill="#E0E0E0"/>
<path d="M27.9144 21.2237L15.8427 23.475L16.0773 24.7289L28.149 22.4776L27.9144 21.2237Z" fill="#E0E0E0"/>
<path d="M20.3564 18.4225L15.0832 19.4059L15.3178 20.6598L20.591 19.6764L20.3564 18.4225Z" fill="#E0E0E0"/>
<path d="M16.5124 26.0731C19.5412 25.5078 22.5683 24.9425 25.5971 24.379C28.6259 23.8155 31.6838 23.243 34.7271 22.6758C36.4348 22.3569 38.1406 22.0381 39.8483 21.721C39.9336 21.7047 39.8973 21.5742 39.812 21.5905C36.7832 22.1558 33.7562 22.7211 30.7274 23.2846C27.6986 23.8481 24.6407 24.4207 21.5974 24.9878C19.8897 25.3067 18.1838 25.6256 16.4761 25.9427C16.3908 25.959 16.4271 26.0894 16.5124 26.0731Z" fill="#263238"/>
<path d="M16.8481 27.5444C19.8951 26.9755 22.9421 26.4083 25.9891 25.8394C29.036 25.2705 32.083 24.7034 35.13 24.1344C36.854 23.8137 38.578 23.4912 40.302 23.1705C40.3873 23.1542 40.351 23.0237 40.2657 23.04C37.2187 23.609 34.1718 24.1761 31.1248 24.745C28.0778 25.314 25.0309 25.8811 21.9839 26.45C20.2599 26.7707 18.5359 27.0932 16.8119 27.4139C16.7266 27.4303 16.7629 27.5607 16.8481 27.5444Z" fill="#263238"/>
<path d="M17.1367 29.0845C20.1837 28.5156 23.2306 27.9484 26.2776 27.3795C29.3246 26.8106 32.3715 26.2435 35.4185 25.6745C37.1425 25.3538 38.8665 25.0313 40.5906 24.7106C40.6758 24.6943 40.6396 24.5638 40.5543 24.5801C37.5073 25.1491 34.4603 25.7162 31.4134 26.2851C28.3664 26.8541 25.3194 27.4212 22.2724 27.9901C20.5484 28.3108 18.8244 28.6333 17.1004 28.954C17.0151 28.9704 17.0514 29.1008 17.1367 29.0845Z" fill="#263238"/>
<path d="M17.4252 30.6246C20.4722 30.0557 23.5192 29.4885 26.5661 28.9196C29.6131 28.3507 32.6601 27.7836 35.7071 27.2146C37.4311 26.8939 39.1551 26.5714 40.8791 26.2507C40.9644 26.2344 40.9281 26.1039 40.8428 26.1202C37.7958 26.6892 34.7489 27.2563 31.7019 27.8252C28.6549 28.3942 25.608 28.9613 22.561 29.5302C20.837 29.8509 19.113 30.1734 17.3889 30.4941C17.3036 30.5105 17.3399 30.6409 17.4252 30.6246Z" fill="#263238"/>
<path d="M17.7138 32.1629C20.7607 31.5939 23.8077 31.0268 26.8547 30.4579C29.9017 29.889 32.9486 29.3218 35.9956 28.7529C37.7196 28.4322 39.4436 28.1097 41.1676 27.789C41.2529 27.7727 41.2166 27.6422 41.1313 27.6585C38.0844 28.2274 35.0374 28.7946 31.9904 29.3635C28.9435 29.9324 25.8965 30.4996 22.8495 31.0685C21.1255 31.3892 19.4015 31.7117 17.6775 32.0324C17.5922 32.0487 17.6285 32.1792 17.7138 32.1629Z" fill="#263238"/>
<path d="M18.0005 33.703C21.0475 33.1341 24.0945 32.567 27.1414 31.998C30.1884 31.4291 33.2354 30.862 36.2823 30.2931C38.0064 29.9724 39.7304 29.6498 41.4544 29.3291C41.5397 29.3128 41.5034 29.1824 41.4181 29.1987C38.3711 29.7676 35.3242 30.3347 32.2772 30.9037C29.2302 31.4726 26.1832 32.0397 23.1363 32.6087C21.4123 32.9294 19.6882 33.2519 17.9642 33.5726C17.8789 33.5889 17.9152 33.7193 18.0005 33.703Z" fill="#263238"/>
<path d="M18.2891 35.2431C21.336 34.6742 24.383 34.1071 27.43 33.5381C30.4769 32.9692 33.5239 32.4021 36.5709 31.8332C38.2949 31.5125 40.0189 31.1899 41.7429 30.8692C41.8282 30.8529 41.7919 30.7225 41.7066 30.7388C38.6597 31.3077 35.6127 31.8748 32.5657 32.4438C29.5188 33.0127 26.4718 33.5798 23.4248 34.1488C21.7008 34.4695 19.9768 34.792 18.2528 35.1127C18.1675 35.129 18.2038 35.2594 18.2891 35.2431Z" fill="#263238"/>
<path d="M18.5776 36.7832C21.6246 36.2143 24.6715 35.6472 27.7185 35.0782C30.7655 34.5093 33.8125 33.9422 36.8594 33.3733C38.5834 33.0526 40.3075 32.73 42.0315 32.4093C42.1168 32.393 42.0805 32.2626 41.9952 32.2789C38.9482 32.8478 35.9012 33.4149 32.8543 33.9839C29.8073 34.5528 26.7603 35.1199 23.7134 35.6889C21.9893 36.0096 20.2653 36.3321 18.5413 36.6528C18.456 36.6691 18.4923 36.7995 18.5776 36.7832Z" fill="#263238"/>
<path d="M18.8662 38.3215C21.9131 37.7526 24.9601 37.1854 28.0071 36.6165C31.054 36.0476 34.101 35.4805 37.148 34.9115C38.872 34.5908 40.596 34.2683 42.32 33.9476C42.4053 33.9313 42.369 33.8008 42.2837 33.8171C39.2368 34.3861 36.1898 34.9532 33.1428 35.5221C30.0958 36.0911 27.0489 36.6582 24.0019 37.2271C22.2779 37.5478 20.5539 37.8703 18.8299 38.191C18.7446 38.2074 18.7809 38.3378 18.8662 38.3215Z" fill="#263238"/>
<path d="M19.1529 39.8616C22.1999 39.2927 25.2468 38.7255 28.2938 38.1566C31.3408 37.5877 34.3877 37.0206 37.4347 36.4516C39.1587 36.1309 40.8827 35.8084 42.6068 35.4877C42.6921 35.4714 42.6558 35.3409 42.5705 35.3572C39.5235 35.9262 36.4765 36.4933 33.4296 37.0622C30.3826 37.6312 27.3356 38.1983 24.2886 38.7672C22.5646 39.0879 20.8406 39.4104 19.1166 39.7311C19.0313 39.7475 19.0676 39.8779 19.1529 39.8616Z" fill="#263238"/>
<path d="M19.4414 41.4017C22.4884 40.8328 25.5354 40.2656 28.5823 39.6967C31.6293 39.1278 34.6763 38.5607 37.7233 37.9917C39.4473 37.671 41.1713 37.3485 42.8953 37.0278C42.9806 37.0115 42.9443 36.881 42.859 36.8973C39.812 37.4663 36.7651 38.0334 33.7181 38.6023C30.6711 39.1713 27.6242 39.7384 24.5772 40.3073C22.8532 40.628 21.1292 40.9505 19.4051 41.2712C19.3198 41.2876 19.3561 41.418 19.4414 41.4017Z" fill="#263238"/>
<path d="M99.022 53.7388H25.8348V75.3909H99.022V53.7388Z" fill="#407BFF"/>
<path opacity="0.7" d="M99.022 53.7388H25.8348V75.3909H99.022V53.7388Z" fill="white"/>
<path opacity="0.2" d="M99.022 53.7388H25.8348V55.9475H99.022V53.7388Z" fill="black"/>
<path d="M21.0584 52.6571L27.3048 45.4766L96.2218 45.7756L102 52.6571V53.7388H21.0584V52.6571Z" fill="#407BFF"/>
<path d="M32.8597 33.529L27.3047 45.4766L96.2218 45.7756L90.0008 33.529H32.8597Z" fill="#407BFF"/>
<path opacity="0.2" d="M62.4275 33.529H69.0114L75.755 45.7756L62.4275 33.529Z" fill="black"/>
<path d="M29.0505 45.7756L52.2576 23.7339L75.755 45.7756" fill="#407BFF"/>
<path opacity="0.7" d="M29.0505 45.7756L52.2576 23.7339L75.755 45.7756" fill="white"/>
<path d="M42.6104 58.6165H28.3591V68.0473H42.6104V58.6165Z" fill="#407BFF"/>
<path d="M42.3418 58.8701H28.6277V67.6378H42.3418V58.8701Z" fill="#407BFF"/>
<path opacity="0.9" d="M42.3418 58.8701H28.6277V67.6378H42.3418V58.8701Z" fill="white"/>
<path opacity="0.9" d="M33.5838 58.8701C33.5838 58.8701 34.2153 59.1455 33.8088 60.2055C33.4005 61.2654 29.1377 61.8326 28.6277 63.1679C28.6277 63.1679 28.6277 66.3351 28.6277 66.2336C28.6277 66.1322 29.6476 63.7894 31.6257 62.8128C33.6038 61.8344 34.7471 62.1605 35.8069 61.0824C36.8685 60.0025 37.0917 58.8719 37.0917 58.8719H33.5838V58.8701Z" fill="white"/>
<path opacity="0.9" d="M32.5494 67.5672C32.5494 67.5672 33.3606 65.3983 35.2171 64.6446C37.0736 63.8908 38.0118 63.8093 38.9918 62.7095C39.9717 61.6097 41.6232 58.8683 41.6232 58.8683H42.3436V61.751C42.3436 61.751 41.4399 62.9722 39.9717 63.7676C38.5036 64.5612 37.197 64.4797 36.4838 65.1519C35.7706 65.8241 35.179 67.5654 35.179 67.5654H32.553L32.5494 67.5672Z" fill="white"/>
<path d="M42.9497 67.5672H27.8329V68.272H42.9497V67.5672Z" fill="#407BFF"/>
<path d="M32.5494 58.7668H32.1592V67.5672H32.5494V58.7668Z" fill="#407BFF"/>
<path d="M28.5569 61.9087V62.2982H42.409V61.9087H28.5569Z" fill="#407BFF"/>
<path d="M38.6107 58.7668H38.2205V67.5672H38.6107V58.7668Z" fill="#407BFF"/>
<path d="M78.2013 58.5041H63.95V67.935H78.2013V58.5041Z" fill="#407BFF"/>
<path d="M77.9327 58.7578H64.2186V67.5255H77.9327V58.7578Z" fill="#407BFF"/>
<path opacity="0.9" d="M77.9327 58.7578H64.2186V67.5255H77.9327V58.7578Z" fill="white"/>
<path opacity="0.9" d="M69.1747 58.7578C69.1747 58.7578 69.8063 59.0332 69.3998 60.0931C68.9914 61.1531 64.7286 61.7202 64.2186 63.0556C64.2186 63.0556 64.2186 66.2227 64.2186 66.1213C64.2186 66.0198 65.2385 63.677 67.2166 62.7004C69.1947 61.722 70.338 62.0481 71.3978 60.9701C72.4594 59.8902 72.6826 58.7596 72.6826 58.7596H69.1747V58.7578Z" fill="white"/>
<path opacity="0.9" d="M68.1403 67.4548C68.1403 67.4548 68.9515 65.286 70.808 64.5322C72.6645 63.7785 73.6027 63.6969 74.5827 62.5971C75.5627 61.4973 77.2141 58.7559 77.2141 58.7559H77.9345V61.6386C77.9345 61.6386 77.0308 62.8599 75.5627 63.6553C74.0945 64.4489 72.7879 64.3673 72.0747 65.0396C71.3615 65.7118 70.7699 67.453 70.7699 67.453H68.1439L68.1403 67.4548Z" fill="white"/>
<path d="M78.5407 67.4548H63.4238V68.1597H78.5407V67.4548Z" fill="#407BFF"/>
<path d="M68.1403 58.6545H67.7501V67.4548H68.1403V58.6545Z" fill="#407BFF"/>
<path d="M64.1479 61.7981V62.1877H77.9999V61.7981H64.1479Z" fill="#407BFF"/>
<path d="M74.2016 58.6545H73.8114V67.4548H74.2016V58.6545Z" fill="#407BFF"/>
<path d="M97.7226 58.5041H83.7907V67.935H97.7226V58.5041Z" fill="#407BFF"/>
<path d="M97.4577 58.7578H84.0521V67.5255H97.4577V58.7578Z" fill="#407BFF"/>
<path opacity="0.9" d="M97.4577 58.7578H84.0521V67.5255H97.4577V58.7578Z" fill="white"/>
<path opacity="0.9" d="M88.8975 58.7578C88.8975 58.7578 89.5163 59.0332 89.1171 60.0931C88.7178 61.1531 84.5511 61.7202 84.0521 63.0556C84.0521 63.0556 84.0521 66.2227 84.0521 66.1213C84.0521 66.0198 85.0484 63.677 86.9829 62.7004C88.9174 61.722 90.0335 62.0481 91.0715 60.9701C92.1078 59.8902 92.3274 58.7596 92.3274 58.7596H88.8975V58.7578Z" fill="white"/>
<path opacity="0.9" d="M87.8866 67.4548C87.8866 67.4548 88.6797 65.286 90.4944 64.5322C92.3092 63.7785 93.2256 63.6969 94.1838 62.5971C95.1402 61.4973 96.7572 58.7559 96.7572 58.7559H97.4613V61.6386C97.4613 61.6386 96.5775 62.8599 95.142 63.6553C93.7066 64.4489 92.4308 64.3673 91.7321 65.0396C91.0334 65.7118 90.4563 67.453 90.4563 67.453H87.8885L87.8866 67.4548Z" fill="white"/>
<path d="M98.0529 67.4548H83.2754V68.1597H98.0529V67.4548Z" fill="#407BFF"/>
<path d="M87.8867 58.6545H87.5056V67.4548H87.8867V58.6545Z" fill="#407BFF"/>
<path d="M83.9831 61.7963V62.1859H97.5248V61.7963H83.9831Z" fill="#407BFF"/>
<path d="M93.8118 58.6545H93.4307V67.4548H93.8118V58.6545Z" fill="#407BFF"/>
<path d="M57.7799 58.2523H48.8005V75.4525H57.7799V58.2523Z" fill="#A24E3F"/>
<path d="M56.5931 59.5188H49.9892V74.5357H56.5931V59.5188Z" fill="#B97964"/>
<path d="M55.1086 60.8777H51.4718V73.175H55.1086V60.8777Z" fill="#A24E3F"/>
<path opacity="0.2" d="M49.3286 75.4525V58.7668H57.7817V58.2523H48.8005V75.4525H49.3286Z" fill="black"/>
<path d="M47.8423 53.7388H45.6846V54.2299H47.8423V53.7388Z" fill="#407BFF"/>
<path d="M47.8423 74.5357H45.6846V75.4525H47.8423V74.5357Z" fill="#407BFF"/>
<path d="M47.4721 54.2299H46.053V74.5357H47.4721V54.2299Z" fill="#407BFF"/>
<g opacity="0.4">
<path d="M47.8423 53.7388H45.6846V54.2299H47.8423V53.7388Z" fill="white"/>
<path d="M47.8423 74.5357H45.6846V75.4525H47.8423V74.5357Z" fill="white"/>
<path d="M47.4721 54.2299H46.053V74.5357H47.4721V54.2299Z" fill="white"/>
</g>
<path d="M61.2025 53.7388H59.0448V54.2299H61.2025V53.7388Z" fill="#407BFF"/>
<path d="M61.2025 74.5357H59.0448V75.4525H61.2025V74.5357Z" fill="#407BFF"/>
<path d="M60.8323 54.2299H59.4132V74.5357H60.8323V54.2299Z" fill="#407BFF"/>
<g opacity="0.4">
<path d="M61.2025 53.7388H59.0448V54.2299H61.2025V53.7388Z" fill="white"/>
<path d="M61.2025 74.5357H59.0448V75.4525H61.2025V74.5357Z" fill="white"/>
<path d="M60.8323 54.2299H59.4132V74.5357H60.8323V54.2299Z" fill="white"/>
</g>
<path d="M83.1519 53.7388H80.9942V54.2299H83.1519V53.7388Z" fill="#407BFF"/>
<path d="M83.1519 74.5357H80.9942V75.4525H83.1519V74.5357Z" fill="#407BFF"/>
<path d="M82.7835 54.2299H81.3644V74.5357H82.7835V54.2299Z" fill="#407BFF"/>
<g opacity="0.4">
<path d="M83.1519 53.7388H80.9942V54.2299H83.1519V53.7388Z" fill="white"/>
<path d="M83.1519 74.5357H80.9942V75.4525H83.1519V74.5357Z" fill="white"/>
<path d="M82.7835 54.2299H81.3644V74.5357H82.7835V54.2299Z" fill="white"/>
</g>
<path d="M83.651 29.3436H78.4572V33.7084H83.651V29.3436Z" fill="#407BFF"/>
<path d="M84.2517 28.9848H77.7386V30.5811H84.2517V28.9848Z" fill="#407BFF"/>
<path d="M49.7805 67.7194C49.7805 67.906 49.628 68.0582 49.4411 68.0582C49.2542 68.0582 49.1017 67.906 49.1017 67.7194C49.1017 67.5328 49.2542 67.3806 49.4411 67.3806C49.628 67.3806 49.7805 67.5328 49.7805 67.7194Z" fill="white"/>
<path d="M48.5773 35.5275H43.5305V43.3132H48.5773V35.5275Z" fill="#407BFF"/>
<path d="M48.2343 35.8591H43.8734V42.8965H48.2343V35.8591Z" fill="#407BFF"/>
<path opacity="0.9" d="M48.2343 35.8591H43.8734V42.8965H48.2343V35.8591Z" fill="white"/>
<path opacity="0.9" d="M47.1563 35.8591C47.1563 35.8591 47.5048 36.0457 47.2362 36.7886C46.9676 37.5315 43.8734 40.2366 43.8734 40.2366V42.7515C43.8734 42.7515 45.6519 39.5101 46.8877 38.307C48.1236 37.1057 48.2343 36.8828 48.2343 36.8828V35.8573H47.1563V35.8591Z" fill="white"/>
<path d="M48.2343 39.0027H43.7755V39.3778H48.2343V39.0027Z" fill="#407BFF"/>
<path opacity="0.2" d="M44.1801 42.8965V36.1472H48.2343V35.8591H43.8734V42.8965H44.1801Z" fill="black"/>
<path d="M59.1174 35.5275H54.0706V43.3132H59.1174V35.5275Z" fill="#407BFF"/>
<path d="M58.7744 35.8591H54.4135V42.8965H58.7744V35.8591Z" fill="#407BFF"/>
<path opacity="0.9" d="M58.7744 35.8591H54.4135V42.8965H58.7744V35.8591Z" fill="white"/>
<path opacity="0.9" d="M57.6964 35.8591C57.6964 35.8591 58.0449 36.0457 57.7763 36.7886C57.5077 37.5315 54.4135 40.2366 54.4135 40.2366V42.7515C54.4135 42.7515 56.192 39.5101 57.4279 38.307C58.6637 37.1057 58.7744 36.8828 58.7744 36.8828V35.8573H57.6964V35.8591Z" fill="white"/>
<path d="M58.7726 39.0027H54.3137V39.3778H58.7726V39.0027Z" fill="#407BFF"/>
<path opacity="0.2" d="M54.7202 42.8965V36.1472H58.7744V35.8591H54.4135V42.8965H54.7202Z" fill="black"/>
<path opacity="0.2" d="M29.1268 67.6125V59.2579H42.3418V58.8701H28.6277V67.6378L29.1268 67.6125Z" fill="black"/>
<path opacity="0.2" d="M64.7195 67.4548V59.1455H77.9327V58.7578H64.2187V67.4548H64.7195Z" fill="black"/>
<path opacity="0.2" d="M84.553 67.4548V59.1455H97.7662V58.7578H84.0521V67.4548H84.553Z" fill="black"/>
<path d="M29.0505 45.7756L52.2576 23.7339L75.755 45.7756" stroke="#407BFF" stroke-width="4" stroke-miterlimit="10"/>
<path opacity="0.7" d="M29.0505 45.7756L52.2576 23.7339L75.755 45.7756" stroke="#407BFF" stroke-width="4" stroke-miterlimit="10"/>
<path opacity="0.2" d="M83.651 33.0724H78.4572V33.5272H83.651V33.0724Z" fill="black"/>
<path opacity="0.2" d="M102 52.6571H21.0584V53.7388H102V52.6571Z" fill="black"/>
<path d="M75.8131 45.685H29.1086L29.2447 45.8209V45.3788C29.2447 45.3498 29.2538 45.3081 29.2447 45.2809C29.2175 45.1903 29.2393 45.357 29.2048 45.3389L29.2084 45.3353C29.2175 45.3371 29.2683 45.2791 29.2756 45.2719L29.6458 44.9204L31.2119 43.4346C32.0249 42.6627 32.8379 41.8909 33.6528 41.119C34.6672 40.1569 35.6816 39.1948 36.6943 38.2309L40.0661 35.0311C41.2094 33.9457 42.3527 32.8604 43.496 31.7769L46.7099 28.7257L49.4375 26.1383L51.4047 24.2721C51.715 23.9785 52.0453 23.6941 52.3393 23.3842C52.352 23.3716 52.3665 23.3589 52.3792 23.3462C52.5062 23.2248 52.3139 23.0327 52.1868 23.1541C51.9709 23.3589 51.7567 23.5636 51.5408 23.7684L49.7859 25.4335L47.2126 27.8759C46.1655 28.8688 45.1184 29.8636 44.0713 30.8565L40.6504 34.1034C39.509 35.1869 38.3675 36.2704 37.226 37.3539C36.1753 38.3505 35.1245 39.3488 34.0738 40.3453L31.4805 42.8059C30.8853 43.3694 30.2918 43.9347 29.6966 44.4982L29.2012 44.9675C29.1431 45.0236 29.0596 45.0798 29.0124 45.1468C28.9616 45.2193 28.9725 45.2936 28.9725 45.3806V45.8227C28.9725 45.897 29.0342 45.9586 29.1086 45.9586H75.8131C75.9891 45.9586 75.9891 45.6868 75.8131 45.6868V45.685Z" fill="#263238"/>
<path opacity="0.2" d="M30.898 45.7756L53.0289 24.8301L52.2558 24.0909L29.4353 45.7502L30.898 45.7756Z" fill="black"/>
<path d="M29.9144 69.4026H40.8682L41.2947 67.3389H29.4861L29.9144 69.4026Z" fill="#263238"/>
<path d="M40.6813 67.3497C40.3129 66.8333 40.1187 66.4927 39.4073 66.576C39.3075 65.6846 38.4201 65.0142 37.3658 64.8674C36.3114 64.7207 35.1753 65.2298 34.7362 66.047C33.7653 65.5994 32.3951 65.9292 31.8562 66.7409C31.2827 66.4583 30.3427 66.8641 30.0142 67.3497C33.8832 67.4131 36.9865 67.4149 40.6831 67.3497" fill="#407BFF"/>
<path d="M39.2041 67.2827C39.1642 67.7773 39.1224 68.2738 39.0825 68.7684C39.0734 68.888 39.0045 69.0456 38.8121 69.0438C38.6542 69.0438 38.5689 68.9315 38.5272 68.8355C38.4056 68.5528 38.353 68.2575 38.3693 67.964C38.3748 67.886 38.3766 67.7973 38.2858 67.7429C38.1697 67.674 37.9846 67.7049 37.8249 67.7139C37.422 67.7411 37.0046 67.5871 36.8449 67.3533C36.2352 67.6233 35.3732 67.6523 34.7217 67.4222C34.3878 67.5961 34.0266 67.7719 33.5983 67.8172C33.1682 67.8607 32.6601 67.723 32.5639 67.4584C32.4677 67.6958 32.2863 67.9187 32.034 68.1053C31.9288 68.1832 31.7382 68.2593 31.6148 68.1904C31.5495 68.1542 31.5404 68.0962 31.535 68.0419C31.5132 67.8262 31.4896 67.6106 31.4678 67.395C31.1593 67.5943 30.5623 67.5671 30.3009 67.3425L30.8508 67.0598L39.2041 67.2827Z" fill="#407BFF"/>
<path d="M39.0226 66.8116C39.0226 66.8116 40.0461 66.7482 39.5743 65.5197C39.5743 65.5197 38.3929 65.7879 39.0226 66.8116Z" fill="#407BFF"/>
<path d="M38.7922 65.6212C38.7922 65.6212 39.3112 65.1827 38.4492 64.708C38.4492 64.708 37.9465 65.3186 38.7922 65.6212Z" fill="#407BFF"/>
<path d="M33.5874 65.7589C33.5874 65.7589 33.7961 65.1483 32.7835 65.1175C32.7835 65.1175 32.6855 65.8694 33.5874 65.7589Z" fill="#407BFF"/>
<path opacity="0.3" d="M37.6343 66.326C37.6343 66.326 37.843 65.7154 36.8304 65.6846C36.8304 65.6846 36.7324 66.4365 37.6343 66.326Z" fill="black"/>
<path opacity="0.3" d="M37.9392 66.2535C37.9392 66.2535 38.3366 66.3006 38.2622 65.7969C38.2622 65.7969 37.7868 65.8187 37.9392 66.2535Z" fill="black"/>
<path opacity="0.3" d="M37.7668 65.8223C37.7668 65.8223 38.0554 65.5741 37.5708 65.3113C37.5708 65.3113 37.2914 65.6556 37.7668 65.8223Z" fill="black"/>
<path opacity="0.3" d="M33.9232 67.107C33.9232 67.107 34.317 67.0454 34.0792 66.5851C34.0792 66.5851 33.6328 66.7319 33.9232 67.107Z" fill="black"/>
<path opacity="0.3" d="M33.484 67.0617C33.484 67.0617 33.7852 66.6359 33.023 66.4239C33.023 66.4239 32.7726 66.9783 33.484 67.0617Z" fill="black"/>
<path d="M39.391 66.8442C39.391 66.8442 40.0153 67.1541 40.2603 66.2753C40.2603 66.2753 39.4564 66.0325 39.391 66.8442Z" fill="#407BFF"/>
<path d="M34.885 66.3115C34.885 66.3115 35.2897 65.469 33.8506 65.2823C33.8506 65.2823 33.5784 66.3441 34.885 66.3115Z" fill="#407BFF"/>
<path d="M35.1282 65.9945C35.1282 65.9945 35.7216 65.6393 34.9594 65.0432C34.9594 65.0432 34.3515 65.5705 35.1282 65.9945Z" fill="#407BFF"/>
<path d="M77.1252 69.0601H66.1713L65.7448 66.9964H77.5516L77.1252 69.0601Z" fill="#263238"/>
<path d="M66.3582 67.0073C66.7266 66.4909 66.9208 66.1503 67.6322 66.2336C67.732 65.3422 68.6194 64.6718 69.6738 64.525C70.7282 64.3783 71.8642 64.8874 72.3034 65.7046C73.2743 65.257 74.6444 65.5868 75.1834 66.3985C75.7568 66.1159 76.6969 66.5217 77.0253 67.0073C73.1563 67.0707 70.0531 67.0725 66.3564 67.0073" fill="#407BFF"/>
<path d="M67.8354 66.9403C67.8754 67.4349 67.9171 67.9314 67.957 68.426C67.9661 68.5456 68.0351 68.7032 68.2274 68.7014C68.3853 68.7014 68.4706 68.5891 68.5124 68.4931C68.6339 68.2104 68.6866 67.9151 68.6702 67.6215C68.6648 67.5436 68.663 67.4548 68.7537 67.4005C68.8699 67.3316 69.055 67.3624 69.2147 67.3715C69.6175 67.3987 70.0349 67.2447 70.1946 67.0109C70.8044 67.2809 71.6664 67.3099 72.3179 67.0798C72.6518 67.2537 73.0129 67.4295 73.4412 67.4748C73.8713 67.5183 74.3795 67.3806 74.4756 67.116C74.5718 67.3534 74.7533 67.5762 75.0055 67.7629C75.1108 67.8408 75.3013 67.9169 75.4247 67.848C75.4901 67.8118 75.4992 67.7538 75.5046 67.6995C75.5264 67.4838 75.55 67.2682 75.5717 67.0526C75.8802 67.2519 76.4773 67.2247 76.7386 67.0001L76.1888 66.7174L67.8354 66.9403Z" fill="#407BFF"/>
<path d="M68.0169 66.4674C68.0169 66.4674 66.9934 66.4039 67.4652 65.1755C67.4652 65.1755 68.6466 65.4436 68.0169 66.4674Z" fill="#407BFF"/>
<path d="M68.2474 65.2787C68.2474 65.2787 67.7284 64.8403 68.5904 64.3655C68.5904 64.3655 69.0931 64.9761 68.2474 65.2787Z" fill="#407BFF"/>
<path d="M73.4521 65.4164C73.4521 65.4164 73.2434 64.8058 74.256 64.775C74.256 64.775 74.354 65.527 73.4521 65.4164Z" fill="#407BFF"/>
<path opacity="0.3" d="M69.4052 65.9835C69.4052 65.9835 69.1965 65.3729 70.2091 65.3421C70.2091 65.3421 70.3071 66.094 69.4052 65.9835Z" fill="black"/>
<path opacity="0.3" d="M69.1003 65.9111C69.1003 65.9111 68.7029 65.9582 68.7773 65.4545C68.7773 65.4545 69.2528 65.4762 69.1003 65.9111Z" fill="black"/>
<path opacity="0.3" d="M69.2727 65.4798C69.2727 65.4798 68.9842 65.2316 69.4687 64.9689C69.4687 64.9689 69.7482 65.3131 69.2727 65.4798Z" fill="black"/>
<path opacity="0.3" d="M73.1164 66.7645C73.1164 66.7645 72.7226 66.7029 72.9603 66.2427C72.9603 66.2427 73.4067 66.3894 73.1164 66.7645Z" fill="black"/>
<path opacity="0.3" d="M73.5555 66.7192C73.5555 66.7192 73.2543 66.2934 74.0165 66.0814C74.0165 66.0814 74.2669 66.6359 73.5555 66.7192Z" fill="black"/>
<path d="M67.6485 66.5018C67.6485 66.5018 67.0243 66.8116 66.7793 65.9328C66.7793 65.9328 67.5832 65.69 67.6485 66.5018Z" fill="#407BFF"/>
<path d="M72.1546 65.9691C72.1546 65.9691 71.7499 65.1266 73.189 64.9399C73.189 64.9399 73.4612 66.0017 72.1546 65.9691Z" fill="#407BFF"/>
<path d="M71.9114 65.652C71.9114 65.652 71.3179 65.2969 72.0801 64.7007C72.0801 64.7007 72.6881 65.228 71.9114 65.652Z" fill="#407BFF"/>
<path d="M96.0149 69.0601H85.0611L84.6346 66.9964H96.4414L96.0149 69.0601Z" fill="#263238"/>
<path d="M85.248 67.0073C85.6164 66.4909 85.8106 66.1503 86.522 66.2336C86.6218 65.3422 87.5092 64.6718 88.5636 64.525C89.6179 64.3783 90.754 64.8874 91.1931 65.7046C92.164 65.257 93.5342 65.5868 94.0731 66.3985C94.6466 66.1159 95.5867 66.5217 95.9151 67.0073C92.0461 67.0707 88.9428 67.0725 85.2462 67.0073" fill="#407BFF"/>
<path d="M86.7252 66.9403C86.7651 67.4349 86.8069 67.9314 86.8468 68.426C86.8559 68.5456 86.9248 68.7032 87.1172 68.7014C87.2751 68.7014 87.3604 68.5891 87.4021 68.4931C87.5237 68.2104 87.5763 67.9151 87.56 67.6215C87.5546 67.5436 87.5527 67.4548 87.6435 67.4005C87.7596 67.3316 87.9447 67.3624 88.1044 67.3715C88.5073 67.3987 88.9247 67.2447 89.0844 67.0109C89.6942 67.2809 90.5562 67.3099 91.2077 67.0798C91.5416 67.2537 91.9027 67.4295 92.331 67.4748C92.7611 67.5183 93.2692 67.3806 93.3654 67.116C93.4616 67.3534 93.6431 67.5762 93.8953 67.7629C94.0006 67.8408 94.1911 67.9169 94.3145 67.848C94.3798 67.8118 94.3889 67.7538 94.3944 67.6995C94.4161 67.4838 94.4397 67.2682 94.4615 67.0526C94.77 67.2519 95.3671 67.2247 95.6284 67.0001L95.0785 66.7174L86.7252 66.9403Z" fill="#407BFF"/>
<path d="M86.9067 66.4674C86.9067 66.4674 85.8832 66.4039 86.355 65.1755C86.355 65.1755 87.5364 65.4436 86.9067 66.4674Z" fill="#407BFF"/>
<path d="M87.1372 65.2787C87.1372 65.2787 86.6181 64.8403 87.4801 64.3655C87.4801 64.3655 87.9828 64.9761 87.1372 65.2787Z" fill="#407BFF"/>
<path d="M92.3419 65.4164C92.3419 65.4164 92.1332 64.8058 93.1458 64.775C93.1458 64.775 93.2438 65.527 92.3419 65.4164Z" fill="#407BFF"/>
<path opacity="0.3" d="M88.295 65.9835C88.295 65.9835 88.0863 65.3729 89.0989 65.3421C89.0989 65.3421 89.1969 66.094 88.295 65.9835Z" fill="black"/>
<path opacity="0.3" d="M87.9901 65.9111C87.9901 65.9111 87.5927 65.9582 87.6671 65.4545C87.6671 65.4545 88.1425 65.4762 87.9901 65.9111Z" fill="black"/>
<path opacity="0.3" d="M88.1625 65.4798C88.1625 65.4798 87.8739 65.2316 88.3585 64.9689C88.3585 64.9689 88.638 65.3131 88.1625 65.4798Z" fill="black"/>
<path opacity="0.3" d="M92.0061 66.7645C92.0061 66.7645 91.6123 66.7029 91.8501 66.2427C91.8501 66.2427 92.2965 66.3894 92.0061 66.7645Z" fill="black"/>
<path opacity="0.3" d="M92.4453 66.7192C92.4453 66.7192 92.1441 66.2934 92.9063 66.0814C92.9063 66.0814 93.1567 66.6359 92.4453 66.7192Z" fill="black"/>
<path d="M86.5383 66.5018C86.5383 66.5018 85.914 66.8116 85.669 65.9328C85.669 65.9328 86.473 65.69 86.5383 66.5018Z" fill="#407BFF"/>
<path d="M91.0443 65.9691C91.0443 65.9691 90.6396 65.1266 92.0787 64.9399C92.0787 64.9399 92.3509 66.0017 91.0443 65.9691Z" fill="#407BFF"/>
<path d="M90.8011 65.652C90.8011 65.652 90.2077 65.2969 90.9699 64.7007C90.9699 64.7007 91.5779 65.228 90.8011 65.652Z" fill="#407BFF"/>
<path d="M77.7839 30.7804H84.1682C84.3442 30.7804 84.3442 30.5086 84.1682 30.5086H77.7839C77.6079 30.5086 77.6079 30.7804 77.7839 30.7804Z" fill="#263238"/>
</g>
<defs>
<clipPath id="clip0_1_205">
<rect width="102" height="75.7714" fill="white"/>
</clipPath>
</defs>
</svg>
